<ttFont>
<head>
    <!-- Most of this table will be recalculated by the compiler -->
    <tableVersion value="1.0"/>
    <fontRevision value="1.00199890137"/>
    <checkSumAdjustment value="0x2097ad1b"/>
    <magicNumber value="0x5f0f3cf5"/>
    <flags value="00000000 00011001"/>
    <unitsPerEm value="2048"/>
    <created value="Fri Aug 17 03:27:00 2012"/>
    <modified value="Wed Sep 12 10:49:19 2012"/>
    <xMin value="-356"/>
    <yMin value="-620"/>
    <xMax value="1966"/>
    <yMax value="1960"/>
    <macStyle value="00000000 00000000"/>
    <lowestRecPPEM value="9"/>
    <fontDirectionHint value="2"/>
    <indexToLocFormat value="1"/>
    <glyphDataFormat value="0"/>
  </head>
    <TTGlyph name=".notdef" xMin="0" yMin="0" xMax="1024" yMax="1434">
      <contour>
        <pt x="1024" y="0" on="1"/>
        <pt x="0" y="0" on="1"/>
        <pt x="0" y="1434" on="1"/>
        <pt x="1024" y="1434" on="1"/>
      </contour>
      <contour>
        <pt x="164" y="103" on="1"/>
        <pt x="860" y="103" on="1"/>
        <pt x="511" y="624" on="1"/>
      </contour>
      <contour>
        <pt x="103" y="194" on="1"/>
        <pt x="450" y="717" on="1"/>
        <pt x="103" y="1239" on="1"/>
      </contour>
      <contour>
        <pt x="574" y="717" on="1"/>
        <pt x="921" y="194" on="1"/>
        <pt x="921" y="1239" on="1"/>
      </contour>
      <contour>
        <pt x="164" y="1331" on="1"/>
        <pt x="511" y="809" on="1"/>
        <pt x="860" y="1331" on="1"/>
      </contour>
    </TTGlyph>
    <TTGlyph name="A" xMin="-2" yMin="0" xMax="1122" yMax="1405">
      <contour>
        <pt x="831" y="313" on="1"/>
        <pt x="274" y="313" on="1"/>
        <pt x="178" y="0" on="1"/>
        <pt x="-2" y="0" on="1"/>
        <pt x="444" y="1405" on="1"/>
        <pt x="676" y="1405" on="1"/>
        <pt x="1122" y="0" on="1"/>
        <pt x="928" y="0" on="1"/>
      </contour>
      <contour>
        <pt x="324" y="477" on="1"/>
        <pt x="780" y="477" on="1"/>
        <pt x="590" y="1102" on="1"/>
        <pt x="584" y="1119" on="0"/>
        <pt x="573" y="1172" on="0"/>
        <pt x="568" y="1197" on="1"/>
        <pt x="563" y="1226" on="0"/>
        <pt x="557" y="1257" on="1"/>
        <pt x="549" y="1257" on="1"/>
        <pt x="543" y="1225" on="0"/>
        <pt x="538" y="1196" on="1"/>
        <pt x="533" y="1171" on="0"/>
        <pt x="521" y="1119" on="0"/>
        <pt x="516" y="1102" on="1"/>
      </contour>
    </TTGlyph>
    <TTGlyph name="AE" xMin="-2" yMin="0" xMax="1604" yMax="1405">
      <contour>
        <pt x="928" y="0" on="1"/>
        <pt x="858" y="313" on="1"/>
        <pt x="299" y="313" on="1"/>
        <pt x="178" y="0" on="1"/>
        <pt x="-2" y="0" on="1"/>
        <pt x="571" y="1405" on="1"/>
        <pt x="1591" y="1405" on="1"/>
        <pt x="1591" y="1241" on="1"/>
        <pt x="840" y="1241" on="1"/>
        <pt x="940" y="801" on="1"/>
        <pt x="1501" y="801" on="1"/>
        <pt x="1501" y="637" on="1"/>
        <pt x="977" y="637" on="1"/>
        <pt x="1083" y="164" on="1"/>
        <pt x="1604" y="164" on="1"/>
        <pt x="1604" y="0" on="1"/>
      </contour>
      <contour>
        <pt x="362" y="477" on="1"/>
        <pt x="823" y="477" on="1"/>
        <pt x="684" y="1112" on="1"/>
        <pt x="679" y="1129" on="0"/>
        <pt x="671" y="1173" on="0"/>
        <pt x="668" y="1193" on="1"/>
        <pt x="664" y="1216" on="0"/>
        <pt x="662" y="1239" on="1"/>
        <pt x="653" y="1239" on="1"/>
        <pt x="646" y="1215" on="0"/>
        <pt x="638" y="1192" on="1"/>
        <pt x="631" y="1172" on="0"/>
        <pt x="616" y="1129" on="0"/>
        <pt x="610" y="1112" on="1"/>
      </contour>
    </TTGlyph>
    <TTGlyph name="AEacute" xMin="-2" yMin="0" xMax="1604" yMax="1808">
      <contour>
        <pt x="1059" y="1538" on="1"/>
        <pt x="918" y="1538" on="1"/>
        <pt x="1094" y="1808" on="1"/>
        <pt x="1278" y="1808" on="1"/>
        <pt x="1280" y="1802" on="1"/>
      </contour>
      <contour>
        <pt x="928" y="0" on="1"/>
        <pt x="858" y="313" on="1"/>
        <pt x="299" y="313" on="1"/>
        <pt x="178" y="0" on="1"/>
        <pt x="-2" y="0" on="1"/>
        <pt x="571" y="1405" on="1"/>
        <pt x="1591" y="1405" on="1"/>
        <pt x="1591" y="1241" on="1"/>
        <pt x="840" y="1241" on="1"/>
        <pt x="940" y="801" on="1"/>
        <pt x="1501" y="801" on="1"/>
        <pt x="1501" y="637" on="1"/>
        <pt x="977" y="637" on="1"/>
        <pt x="1083" y="164" on="1"/>
        <pt x="1604" y="164" on="1"/>
        <pt x="1604" y="0" on="1"/>
      </contour>
      <contour>
        <pt x="362" y="477" on="1"/>
        <pt x="823" y="477" on="1"/>
        <pt x="684" y="1112" on="1"/>
        <pt x="679" y="1129" on="0"/>
        <pt x="671" y="1173" on="0"/>
        <pt x="668" y="1193" on="1"/>
        <pt x="664" y="1216" on="0"/>
        <pt x="662" y="1239" on="1"/>
        <pt x="653" y="1239" on="1"/>
        <pt x="646" y="1215" on="0"/>
        <pt x="638" y="1192" on="1"/>
        <pt x="631" y="1172" on="0"/>
        <pt x="616" y="1129" on="0"/>
        <pt x="610" y="1112" on="1"/>
      </contour>
    </TTGlyph>
    <TTGlyph name="Aacute" xMin="-2" yMin="0" xMax="1122" yMax="1808">
      <contour>
        <pt x="580" y="1538" on="1"/>
        <pt x="438" y="1538" on="1"/>
        <pt x="614" y="1808" on="1"/>
        <pt x="799" y="1808" on="1"/>
        <pt x="801" y="1802" on="1"/>
      </contour>
      <contour>
        <pt x="831" y="313" on="1"/>
        <pt x="274" y="313" on="1"/>
        <pt x="178" y="0" on="1"/>
        <pt x="-2" y="0" on="1"/>
        <pt x="444" y="1405" on="1"/>
        <pt x="676" y="1405" on="1"/>
        <pt x="1122" y="0" on="1"/>
        <pt x="928" y="0" on="1"/>
      </contour>
      <contour>
        <pt x="324" y="477" on="1"/>
        <pt x="780" y="477" on="1"/>
        <pt x="590" y="1102" on="1"/>
        <pt x="584" y="1119" on="0"/>
        <pt x="573" y="1172" on="0"/>
        <pt x="568" y="1197" on="1"/>
        <pt x="563" y="1226" on="0"/>
        <pt x="557" y="1257" on="1"/>
        <pt x="549" y="1257" on="1"/>
        <pt x="543" y="1225" on="0"/>
        <pt x="538" y="1196" on="1"/>
        <pt x="533" y="1171" on="0"/>
        <pt x="521" y="1119" on="0"/>
        <pt x="516" y="1102" on="1"/>
      </contour>
    </TTGlyph>
    <TTGlyph name="Abreve" xMin="-2" yMin="0" xMax="1122" yMax="1808">
      <contour>
        <pt x="813" y="1808" on="1"/>
        <pt x="813" y="1773" on="0"/>
        <pt x="778" y="1703" on="0"/>
        <pt x="712" y="1646" on="0"/>
        <pt x="618" y="1610" on="0"/>
        <pt x="559" y="1610" on="1"/>
        <pt x="500" y="1610" on="0"/>
        <pt x="407" y="1646" on="0"/>
        <pt x="342" y="1703" on="0"/>
        <pt x="307" y="1773" on="0"/>
        <pt x="307" y="1808" on="1"/>
        <pt x="438" y="1808" on="1"/>
        <pt x="440" y="1797" on="0"/>
        <pt x="460" y="1774" on="0"/>
        <pt x="491" y="1754" on="0"/>
        <pt x="534" y="1741" on="0"/>
        <pt x="559" y="1741" on="1"/>
        <pt x="585" y="1741" on="0"/>
        <pt x="630" y="1754" on="0"/>
        <pt x="662" y="1774" on="0"/>
        <pt x="681" y="1797" on="0"/>
        <pt x="682" y="1808" on="1"/>
      </contour>
      <contour>
        <pt x="831" y="313" on="1"/>
        <pt x="274" y="313" on="1"/>
        <pt x="178" y="0" on="1"/>
        <pt x="-2" y="0" on="1"/>
        <pt x="444" y="1405" on="1"/>
        <pt x="676" y="1405" on="1"/>
        <pt x="1122" y="0" on="1"/>
        <pt x="928" y="0" on="1"/>
      </contour>
      <contour>
        <pt x="324" y="477" on="1"/>
        <pt x="780" y="477" on="1"/>
        <pt x="590" y="1102" on="1"/>
        <pt x="584" y="1119" on="0"/>
        <pt x="573" y="1172" on="0"/>
        <pt x="568" y="1197" on="1"/>
        <pt x="563" y="1226" on="0"/>
        <pt x="557" y="1257" on="1"/>
        <pt x="549" y="1257" on="1"/>
        <pt x="543" y="1225" on="0"/>
        <pt x="538" y="1196" on="1"/>
        <pt x="533" y="1171" on="0"/>
        <pt x="521" y="1119" on="0"/>
        <pt x="516" y="1102" on="1"/>
      </contour>
    </TTGlyph>
    <TTGlyph name="Acircumflex" xMin="-2" yMin="0" xMax="1122" yMax="1806">
      <contour>
        <pt x="815" y="1530" on="1"/>
        <pt x="651" y="1530" on="1"/>
        <pt x="561" y="1692" on="1"/>
        <pt x="469" y="1530" on="1"/>
        <pt x="305" y="1530" on="1"/>
        <pt x="481" y="1806" on="1"/>
        <pt x="641" y="1806" on="1"/>
      </contour>
      <contour>
        <pt x="831" y="313" on="1"/>
        <pt x="274" y="313" on="1"/>
        <pt x="178" y="0" on="1"/>
        <pt x="-2" y="0" on="1"/>
        <pt x="444" y="1405" on="1"/>
        <pt x="676" y="1405" on="1"/>
        <pt x="1122" y="0" on="1"/>
        <pt x="928" y="0" on="1"/>
      </contour>
      <contour>
        <pt x="324" y="477" on="1"/>
        <pt x="780" y="477" on="1"/>
        <pt x="590" y="1102" on="1"/>
        <pt x="584" y="1119" on="0"/>
        <pt x="573" y="1172" on="0"/>
        <pt x="568" y="1197" on="1"/>
        <pt x="563" y="1226" on="0"/>
        <pt x="557" y="1257" on="1"/>
        <pt x="549" y="1257" on="1"/>
        <pt x="543" y="1225" on="0"/>
        <pt x="538" y="1196" on="1"/>
        <pt x="533" y="1171" on="0"/>
        <pt x="521" y="1119" on="0"/>
        <pt x="516" y="1102" on="1"/>
      </contour>
    </TTGlyph>
    <TTGlyph name="Adieresis" xMin="-2" yMin="0" xMax="1122" yMax="1808">
      <contour>
        <pt x="803" y="1614" on="1"/>
        <pt x="625" y="1614" on="1"/>
        <pt x="625" y="1808" on="1"/>
        <pt x="803" y="1808" on="1"/>
      </contour>
      <contour>
        <pt x="496" y="1614" on="1"/>
        <pt x="317" y="1614" on="1"/>
        <pt x="317" y="1808" on="1"/>
        <pt x="496" y="1808" on="1"/>
      </contour>
      <contour>
        <pt x="831" y="313" on="1"/>
        <pt x="274" y="313" on="1"/>
        <pt x="178" y="0" on="1"/>
        <pt x="-2" y="0" on="1"/>
        <pt x="444" y="1405" on="1"/>
        <pt x="676" y="1405" on="1"/>
        <pt x="1122" y="0" on="1"/>
        <pt x="928" y="0" on="1"/>
      </contour>
      <contour>
        <pt x="324" y="477" on="1"/>
        <pt x="780" y="477" on="1"/>
        <pt x="590" y="1102" on="1"/>
        <pt x="584" y="1119" on="0"/>
        <pt x="573" y="1172" on="0"/>
        <pt x="568" y="1197" on="1"/>
        <pt x="563" y="1226" on="0"/>
        <pt x="557" y="1257" on="1"/>
        <pt x="549" y="1257" on="1"/>
        <pt x="543" y="1225" on="0"/>
        <pt x="538" y="1196" on="1"/>
        <pt x="533" y="1171" on="0"/>
        <pt x="521" y="1119" on="0"/>
        <pt x="516" y="1102" on="1"/>
      </contour>
    </TTGlyph>
    <TTGlyph name="Agrave" xMin="-2" yMin="0" xMax="1122" yMax="1808">
      <contour>
        <pt x="541" y="1538" on="1"/>
        <pt x="319" y="1802" on="1"/>
        <pt x="322" y="1808" on="1"/>
        <pt x="506" y="1808" on="1"/>
        <pt x="682" y="1538" on="1"/>
      </contour>
      <contour>
        <pt x="831" y="313" on="1"/>
        <pt x="274" y="313" on="1"/>
        <pt x="178" y="0" on="1"/>
        <pt x="-2" y="0" on="1"/>
        <pt x="444" y="1405" on="1"/>
        <pt x="676" y="1405" on="1"/>
        <pt x="1122" y="0" on="1"/>
        <pt x="928" y="0" on="1"/>
      </contour>
      <contour>
        <pt x="324" y="477" on="1"/>
        <pt x="780" y="477" on="1"/>
        <pt x="590" y="1102" on="1"/>
        <pt x="584" y="1119" on="0"/>
        <pt x="573" y="1172" on="0"/>
        <pt x="568" y="1197" on="1"/>
        <pt x="563" y="1226" on="0"/>
        <pt x="557" y="1257" on="1"/>
        <pt x="549" y="1257" on="1"/>
        <pt x="543" y="1225" on="0"/>
        <pt x="538" y="1196" on="1"/>
        <pt x="533" y="1171" on="0"/>
        <pt x="521" y="1119" on="0"/>
        <pt x="516" y="1102" on="1"/>
      </contour>
    </TTGlyph>
    <TTGlyph name="Amacron" xMin="-2" yMin="0" xMax="1122" yMax="1702">
      <contour>
        <pt x="817" y="1554" on="1"/>
        <pt x="303" y="1554" on="1"/>
        <pt x="303" y="1702" on="1"/>
        <pt x="817" y="1702" on="1"/>
      </contour>
      <contour>
        <pt x="831" y="313" on="1"/>
        <pt x="274" y="313" on="1"/>
        <pt x="178" y="0" on="1"/>
        <pt x="-2" y="0" on="1"/>
        <pt x="444" y="1405" on="1"/>
        <pt x="676" y="1405" on="1"/>
        <pt x="1122" y="0" on="1"/>
        <pt x="928" y="0" on="1"/>
      </contour>
      <contour>
        <pt x="324" y="477" on="1"/>
        <pt x="780" y="477" on="1"/>
        <pt x="590" y="1102" on="1"/>
        <pt x="584" y="1119" on="0"/>
        <pt x="573" y="1172" on="0"/>
        <pt x="568" y="1197" on="1"/>
        <pt x="563" y="1226" on="0"/>
        <pt x="557" y="1257" on="1"/>
        <pt x="549" y="1257" on="1"/>
        <pt x="543" y="1225" on="0"/>
        <pt x="538" y="1196" on="1"/>
        <pt x="533" y="1171" on="0"/>
        <pt x="521" y="1119" on="0"/>
        <pt x="516" y="1102" on="1"/>
      </contour>
    </TTGlyph>
    <TTGlyph name="Aogonek" xMin="-2" yMin="-373" xMax="1169" yMax="1405">
      <contour>
        <pt x="1122" y="0" on="1"/>
        <pt x="1061" y="0" on="1"/>
        <pt x="1044" y="-23" on="0"/>
        <pt x="1012" y="-90" on="0"/>
        <pt x="1012" y="-127" on="1"/>
        <pt x="1012" y="-148" on="0"/>
        <pt x="1022" y="-189" on="0"/>
        <pt x="1044" y="-221" on="0"/>
        <pt x="1080" y="-240" on="0"/>
        <pt x="1106" y="-240" on="1"/>
        <pt x="1169" y="-240" on="1"/>
        <pt x="1169" y="-344" on="1"/>
        <pt x="1137" y="-358" on="0"/>
        <pt x="1075" y="-373" on="0"/>
        <pt x="1044" y="-373" on="1"/>
        <pt x="1011" y="-373" on="0"/>
        <pt x="943" y="-355" on="0"/>
        <pt x="887" y="-312" on="0"/>
        <pt x="852" y="-241" on="0"/>
        <pt x="852" y="-188" on="1"/>
        <pt x="852" y="-123" on="0"/>
        <pt x="896" y="-35" on="0"/>
        <pt x="928" y="0" on="1"/>
        <pt x="831" y="313" on="1"/>
        <pt x="274" y="313" on="1"/>
        <pt x="178" y="0" on="1"/>
        <pt x="-2" y="0" on="1"/>
        <pt x="444" y="1405" on="1"/>
        <pt x="676" y="1405" on="1"/>
      </contour>
      <contour>
        <pt x="549" y="1257" on="1"/>
        <pt x="543" y="1225" on="0"/>
        <pt x="538" y="1196" on="1"/>
        <pt x="533" y="1171" on="0"/>
        <pt x="521" y="1119" on="0"/>
        <pt x="516" y="1102" on="1"/>
        <pt x="324" y="477" on="1"/>
        <pt x="780" y="477" on="1"/>
        <pt x="590" y="1102" on="1"/>
        <pt x="584" y="1119" on="0"/>
        <pt x="573" y="1172" on="0"/>
        <pt x="568" y="1197" on="1"/>
        <pt x="563" y="1226" on="0"/>
        <pt x="557" y="1257" on="1"/>
      </contour>
    </TTGlyph>
    <TTGlyph name="Aring" xMin="-2" yMin="0" xMax="1122" yMax="1874">
      <contour>
        <pt x="559" y="1874" on="1"/>
        <pt x="601" y="1874" on="0"/>
        <pt x="674" y="1843" on="0"/>
        <pt x="726" y="1789" on="0"/>
        <pt x="756" y="1717" on="0"/>
        <pt x="756" y="1677" on="1"/>
        <pt x="756" y="1636" on="0"/>
        <pt x="726" y="1565" on="0"/>
        <pt x="673" y="1512" on="0"/>
        <pt x="601" y="1481" on="0"/>
        <pt x="559" y="1481" on="1"/>
        <pt x="519" y="1481" on="0"/>
        <pt x="448" y="1511" on="0"/>
        <pt x="394" y="1564" on="0"/>
        <pt x="362" y="1636" on="0"/>
        <pt x="362" y="1677" on="1"/>
        <pt x="362" y="1718" on="0"/>
        <pt x="393" y="1790" on="0"/>
        <pt x="447" y="1843" on="0"/>
        <pt x="518" y="1874" on="0"/>
      </contour>
      <contour>
        <pt x="559" y="1782" on="1"/>
        <pt x="538" y="1782" on="0"/>
        <pt x="501" y="1765" on="0"/>
        <pt x="472" y="1737" on="0"/>
        <pt x="455" y="1699" on="0"/>
        <pt x="455" y="1677" on="1"/>
        <pt x="455" y="1656" on="0"/>
        <pt x="472" y="1618" on="0"/>
        <pt x="501" y="1589" on="0"/>
        <pt x="538" y="1573" on="0"/>
        <pt x="559" y="1573" on="1"/>
        <pt x="580" y="1573" on="0"/>
        <pt x="618" y="1589" on="0"/>
        <pt x="647" y="1618" on="0"/>
        <pt x="664" y="1656" on="0"/>
        <pt x="664" y="1677" on="1"/>
        <pt x="664" y="1699" on="0"/>
        <pt x="647" y="1737" on="0"/>
        <pt x="618" y="1765" on="0"/>
        <pt x="580" y="1782" on="0"/>
      </contour>
      <contour>
        <pt x="831" y="313" on="1"/>
        <pt x="274" y="313" on="1"/>
        <pt x="178" y="0" on="1"/>
        <pt x="-2" y="0" on="1"/>
        <pt x="444" y="1405" on="1"/>
        <pt x="676" y="1405" on="1"/>
        <pt x="1122" y="0" on="1"/>
        <pt x="928" y="0" on="1"/>
      </contour>
      <contour>
        <pt x="324" y="477" on="1"/>
        <pt x="780" y="477" on="1"/>
        <pt x="590" y="1102" on="1"/>
        <pt x="584" y="1119" on="0"/>
        <pt x="573" y="1172" on="0"/>
        <pt x="568" y="1197" on="1"/>
        <pt x="563" y="1226" on="0"/>
        <pt x="557" y="1257" on="1"/>
        <pt x="549" y="1257" on="1"/>
        <pt x="543" y="1225" on="0"/>
        <pt x="538" y="1196" on="1"/>
        <pt x="533" y="1171" on="0"/>
        <pt x="521" y="1119" on="0"/>
        <pt x="516" y="1102" on="1"/>
      </contour>
    </TTGlyph>
    <TTGlyph name="Aringacute" xMin="-2" yMin="0" xMax="1122" yMax="1960">
      <contour>
        <pt x="561" y="1681" on="1"/>
        <pt x="603" y="1681" on="0"/>
        <pt x="675" y="1651" on="0"/>
        <pt x="728" y="1600" on="0"/>
        <pt x="758" y="1531" on="0"/>
        <pt x="758" y="1493" on="1"/>
        <pt x="758" y="1450" on="0"/>
        <pt x="721" y="1378" on="0"/>
        <pt x="692" y="1352" on="1"/>
        <pt x="1122" y="0" on="1"/>
        <pt x="928" y="0" on="1"/>
        <pt x="831" y="313" on="1"/>
        <pt x="274" y="313" on="1"/>
        <pt x="178" y="0" on="1"/>
        <pt x="-2" y="0" on="1"/>
        <pt x="428" y="1354" on="1"/>
        <pt x="399" y="1378" on="0"/>
        <pt x="365" y="1450" on="0"/>
        <pt x="365" y="1493" on="1"/>
        <pt x="365" y="1532" on="0"/>
        <pt x="396" y="1600" on="0"/>
        <pt x="449" y="1651" on="0"/>
        <pt x="520" y="1681" on="0"/>
      </contour>
      <contour>
        <pt x="549" y="1257" on="1"/>
        <pt x="543" y="1225" on="0"/>
        <pt x="538" y="1196" on="1"/>
        <pt x="533" y="1171" on="0"/>
        <pt x="521" y="1119" on="0"/>
        <pt x="516" y="1102" on="1"/>
        <pt x="324" y="477" on="1"/>
        <pt x="780" y="477" on="1"/>
        <pt x="590" y="1102" on="1"/>
        <pt x="584" y="1119" on="0"/>
        <pt x="573" y="1172" on="0"/>
        <pt x="568" y="1197" on="1"/>
        <pt x="563" y="1226" on="0"/>
        <pt x="557" y="1257" on="1"/>
      </contour>
      <contour>
        <pt x="829" y="1952" on="1"/>
        <pt x="639" y="1737" on="1"/>
        <pt x="498" y="1737" on="1"/>
        <pt x="643" y="1960" on="1"/>
        <pt x="827" y="1960" on="1"/>
      </contour>
      <contour>
        <pt x="561" y="1593" on="1"/>
        <pt x="540" y="1593" on="0"/>
        <pt x="502" y="1577" on="0"/>
        <pt x="473" y="1550" on="0"/>
        <pt x="457" y="1514" on="0"/>
        <pt x="457" y="1493" on="1"/>
        <pt x="457" y="1472" on="0"/>
        <pt x="473" y="1436" on="0"/>
        <pt x="502" y="1409" on="0"/>
        <pt x="540" y="1393" on="0"/>
        <pt x="561" y="1393" on="1"/>
        <pt x="582" y="1393" on="0"/>
        <pt x="620" y="1409" on="0"/>
        <pt x="649" y="1436" on="0"/>
        <pt x="666" y="1472" on="0"/>
        <pt x="666" y="1493" on="1"/>
        <pt x="666" y="1514" on="0"/>
        <pt x="649" y="1550" on="0"/>
        <pt x="620" y="1577" on="0"/>
        <pt x="582" y="1593" on="0"/>
      </contour>
    </TTGlyph>
    <TTGlyph name="Atilde" xMin="-2" yMin="0" xMax="1122" yMax="1808">
      <contour>
        <pt x="858" y="1808" on="1"/>
        <pt x="858" y="1773" on="0"/>
        <pt x="839" y="1697" on="0"/>
        <pt x="797" y="1635" on="0"/>
        <pt x="731" y="1595" on="0"/>
        <pt x="684" y="1595" on="1"/>
        <pt x="651" y="1595" on="0"/>
        <pt x="592" y="1615" on="0"/>
        <pt x="535" y="1639" on="0"/>
        <pt x="479" y="1659" on="0"/>
        <pt x="449" y="1659" on="1"/>
        <pt x="421" y="1659" on="0"/>
        <pt x="384" y="1630" on="0"/>
        <pt x="381" y="1595" on="1"/>
        <pt x="260" y="1595" on="1"/>
        <pt x="260" y="1631" on="0"/>
        <pt x="280" y="1706" on="0"/>
        <pt x="322" y="1768" on="0"/>
        <pt x="388" y="1808" on="0"/>
        <pt x="434" y="1808" on="1"/>
        <pt x="467" y="1808" on="0"/>
        <pt x="526" y="1789" on="0"/>
        <pt x="583" y="1766" on="0"/>
        <pt x="640" y="1747" on="0"/>
        <pt x="670" y="1747" on="1"/>
        <pt x="698" y="1747" on="0"/>
        <pt x="734" y="1773" on="0"/>
        <pt x="739" y="1808" on="1"/>
      </contour>
      <contour>
        <pt x="831" y="313" on="1"/>
        <pt x="274" y="313" on="1"/>
        <pt x="178" y="0" on="1"/>
        <pt x="-2" y="0" on="1"/>
        <pt x="444" y="1405" on="1"/>
        <pt x="676" y="1405" on="1"/>
        <pt x="1122" y="0" on="1"/>
        <pt x="928" y="0" on="1"/>
      </contour>
      <contour>
        <pt x="324" y="477" on="1"/>
        <pt x="780" y="477" on="1"/>
        <pt x="590" y="1102" on="1"/>
        <pt x="584" y="1119" on="0"/>
        <pt x="573" y="1172" on="0"/>
        <pt x="568" y="1197" on="1"/>
        <pt x="563" y="1226" on="0"/>
        <pt x="557" y="1257" on="1"/>
        <pt x="549" y="1257" on="1"/>
        <pt x="543" y="1225" on="0"/>
        <pt x="538" y="1196" on="1"/>
        <pt x="533" y="1171" on="0"/>
        <pt x="521" y="1119" on="0"/>
        <pt x="516" y="1102" on="1"/>
      </contour>
    </TTGlyph>
    <TTGlyph name="B" xMin="133" yMin="0" xMax="1061" yMax="1405">
      <contour>
        <pt x="133" y="1405" on="1"/>
        <pt x="666" y="1405" on="1"/>
        <pt x="744" y="1405" on="0"/>
        <pt x="877" y="1356" on="0"/>
        <pt x="973" y="1266" on="0"/>
        <pt x="1028" y="1139" on="0"/>
        <pt x="1028" y="1061" on="1"/>
        <pt x="1028" y="1000" on="0"/>
        <pt x="995" y="896" on="0"/>
        <pt x="937" y="813" on="0"/>
        <pt x="858" y="753" on="0"/>
        <pt x="813" y="737" on="1"/>
        <pt x="813" y="729" on="1"/>
        <pt x="865" y="713" on="0"/>
        <pt x="956" y="648" on="0"/>
        <pt x="1023" y="557" on="0"/>
        <pt x="1061" y="440" on="0"/>
        <pt x="1061" y="373" on="1"/>
        <pt x="1061" y="284" on="0"/>
        <pt x="998" y="146" on="0"/>
        <pt x="890" y="50" on="0"/>
        <pt x="747" y="0" on="0"/>
        <pt x="666" y="0" on="1"/>
        <pt x="133" y="0" on="1"/>
      </contour>
      <contour>
        <pt x="313" y="637" on="1"/>
        <pt x="313" y="164" on="1"/>
        <pt x="641" y="164" on="1"/>
        <pt x="691" y="164" on="0"/>
        <pt x="776" y="194" on="0"/>
        <pt x="837" y="253" on="0"/>
        <pt x="872" y="340" on="0"/>
        <pt x="872" y="397" on="1"/>
        <pt x="872" y="445" on="0"/>
        <pt x="838" y="532" on="0"/>
        <pt x="775" y="598" on="0"/>
        <pt x="685" y="637" on="0"/>
        <pt x="629" y="637" on="1"/>
      </contour>
      <contour>
        <pt x="313" y="1241" on="1"/>
        <pt x="313" y="801" on="1"/>
        <pt x="612" y="801" on="1"/>
        <pt x="664" y="801" on="0"/>
        <pt x="748" y="837" on="0"/>
        <pt x="808" y="897" on="0"/>
        <pt x="840" y="977" on="0"/>
        <pt x="840" y="1022" on="1"/>
        <pt x="840" y="1132" on="0"/>
        <pt x="722" y="1241" on="0"/>
        <pt x="625" y="1241" on="1"/>
      </contour>
    </TTGlyph>
    <TTGlyph name="C" xMin="86" yMin="-24" xMax="1129" yMax="1430">
      <contour>
        <pt x="639" y="1430" on="1"/>
        <pt x="746" y="1430" on="0"/>
        <pt x="926" y="1364" on="0"/>
        <pt x="1056" y="1232" on="0"/>
        <pt x="1129" y="1032" on="0"/>
        <pt x="1129" y="897" on="1"/>
        <pt x="944" y="897" on="1"/>
        <pt x="944" y="989" on="0"/>
        <pt x="901" y="1127" on="0"/>
        <pt x="821" y="1218" on="0"/>
        <pt x="708" y="1264" on="0"/>
        <pt x="639" y="1264" on="1"/>
        <pt x="454" y="1264" on="0"/>
        <pt x="275" y="1011" on="0"/>
        <pt x="275" y="754" on="1"/>
        <pt x="275" y="651" on="1"/>
        <pt x="275" y="393" on="0"/>
        <pt x="454" y="141" on="0"/>
        <pt x="639" y="141" on="1"/>
        <pt x="710" y="141" on="0"/>
        <pt x="825" y="186" on="0"/>
        <pt x="906" y="276" on="0"/>
        <pt x="950" y="412" on="0"/>
        <pt x="950" y="503" on="1"/>
        <pt x="1129" y="503" on="1"/>
        <pt x="1129" y="367" on="0"/>
        <pt x="1056" y="169" on="0"/>
        <pt x="926" y="39" on="0"/>
        <pt x="746" y="-24" on="0"/>
        <pt x="639" y="-24" on="1"/>
        <pt x="366" y="-24" on="0"/>
        <pt x="86" y="337" on="0"/>
        <pt x="86" y="703" on="1"/>
        <pt x="86" y="1068" on="0"/>
        <pt x="366" y="1430" on="0"/>
      </contour>
    </TTGlyph>
    <TTGlyph name="Cacute" xMin="86" yMin="-24" xMax="1129" yMax="1809">
      <contour>
        <pt x="639" y="1430" on="1"/>
        <pt x="746" y="1430" on="0"/>
        <pt x="926" y="1364" on="0"/>
        <pt x="1056" y="1232" on="0"/>
        <pt x="1129" y="1032" on="0"/>
        <pt x="1129" y="897" on="1"/>
        <pt x="944" y="897" on="1"/>
        <pt x="944" y="989" on="0"/>
        <pt x="901" y="1127" on="0"/>
        <pt x="821" y="1218" on="0"/>
        <pt x="708" y="1264" on="0"/>
        <pt x="639" y="1264" on="1"/>
        <pt x="454" y="1264" on="0"/>
        <pt x="275" y="1011" on="0"/>
        <pt x="275" y="754" on="1"/>
        <pt x="275" y="651" on="1"/>
        <pt x="275" y="393" on="0"/>
        <pt x="454" y="141" on="0"/>
        <pt x="639" y="141" on="1"/>
        <pt x="710" y="141" on="0"/>
        <pt x="825" y="186" on="0"/>
        <pt x="906" y="276" on="0"/>
        <pt x="950" y="412" on="0"/>
        <pt x="950" y="503" on="1"/>
        <pt x="1129" y="503" on="1"/>
        <pt x="1129" y="367" on="0"/>
        <pt x="1056" y="169" on="0"/>
        <pt x="926" y="39" on="0"/>
        <pt x="746" y="-24" on="0"/>
        <pt x="639" y="-24" on="1"/>
        <pt x="366" y="-24" on="0"/>
        <pt x="86" y="337" on="0"/>
        <pt x="86" y="703" on="1"/>
        <pt x="86" y="1068" on="0"/>
        <pt x="366" y="1430" on="0"/>
      </contour>
      <contour>
        <pt x="656" y="1538" on="1"/>
        <pt x="514" y="1538" on="1"/>
        <pt x="690" y="1809" on="1"/>
        <pt x="874" y="1809" on="1"/>
        <pt x="876" y="1802" on="1"/>
      </contour>
    </TTGlyph>
    <TTGlyph name="Ccaron" xMin="86" yMin="-24" xMax="1129" yMax="1809">
      <contour>
        <pt x="639" y="1430" on="1"/>
        <pt x="746" y="1430" on="0"/>
        <pt x="926" y="1364" on="0"/>
        <pt x="1056" y="1232" on="0"/>
        <pt x="1129" y="1032" on="0"/>
        <pt x="1129" y="897" on="1"/>
        <pt x="944" y="897" on="1"/>
        <pt x="944" y="989" on="0"/>
        <pt x="901" y="1127" on="0"/>
        <pt x="821" y="1218" on="0"/>
        <pt x="708" y="1264" on="0"/>
        <pt x="639" y="1264" on="1"/>
        <pt x="454" y="1264" on="0"/>
        <pt x="275" y="1011" on="0"/>
        <pt x="275" y="754" on="1"/>
        <pt x="275" y="651" on="1"/>
        <pt x="275" y="393" on="0"/>
        <pt x="454" y="141" on="0"/>
        <pt x="639" y="141" on="1"/>
        <pt x="710" y="141" on="0"/>
        <pt x="825" y="186" on="0"/>
        <pt x="906" y="276" on="0"/>
        <pt x="950" y="412" on="0"/>
        <pt x="950" y="503" on="1"/>
        <pt x="1129" y="503" on="1"/>
        <pt x="1129" y="367" on="0"/>
        <pt x="1056" y="169" on="0"/>
        <pt x="926" y="39" on="0"/>
        <pt x="746" y="-24" on="0"/>
        <pt x="639" y="-24" on="1"/>
        <pt x="366" y="-24" on="0"/>
        <pt x="86" y="337" on="0"/>
        <pt x="86" y="703" on="1"/>
        <pt x="86" y="1068" on="0"/>
        <pt x="366" y="1430" on="0"/>
      </contour>
      <contour>
        <pt x="685" y="1532" on="1"/>
        <pt x="525" y="1532" on="1"/>
        <pt x="351" y="1809" on="1"/>
        <pt x="515" y="1809" on="1"/>
        <pt x="606" y="1647" on="1"/>
        <pt x="698" y="1809" on="1"/>
        <pt x="862" y="1809" on="1"/>
      </contour>
    </TTGlyph>
    <TTGlyph name="Ccedilla" xMin="86" yMin="-373" xMax="1129" yMax="1430">
      <contour>
        <pt x="639" y="1430" on="1"/>
        <pt x="746" y="1430" on="0"/>
        <pt x="926" y="1364" on="0"/>
        <pt x="1056" y="1232" on="0"/>
        <pt x="1129" y="1032" on="0"/>
        <pt x="1129" y="897" on="1"/>
        <pt x="944" y="897" on="1"/>
        <pt x="944" y="989" on="0"/>
        <pt x="901" y="1127" on="0"/>
        <pt x="821" y="1218" on="0"/>
        <pt x="708" y="1264" on="0"/>
        <pt x="639" y="1264" on="1"/>
        <pt x="454" y="1264" on="0"/>
        <pt x="275" y="1011" on="0"/>
        <pt x="275" y="754" on="1"/>
        <pt x="275" y="651" on="1"/>
        <pt x="275" y="393" on="0"/>
        <pt x="454" y="141" on="0"/>
        <pt x="639" y="141" on="1"/>
        <pt x="710" y="141" on="0"/>
        <pt x="825" y="186" on="0"/>
        <pt x="906" y="276" on="0"/>
        <pt x="950" y="412" on="0"/>
        <pt x="950" y="503" on="1"/>
        <pt x="1129" y="503" on="1"/>
        <pt x="1129" y="367" on="0"/>
        <pt x="1056" y="169" on="0"/>
        <pt x="926" y="39" on="0"/>
        <pt x="747" y="-24" on="0"/>
        <pt x="640" y="-24" on="1"/>
        <pt x="633" y="-74" on="1"/>
        <pt x="666" y="-76" on="0"/>
        <pt x="726" y="-92" on="0"/>
        <pt x="772" y="-123" on="0"/>
        <pt x="799" y="-171" on="0"/>
        <pt x="799" y="-206" on="1"/>
        <pt x="799" y="-258" on="0"/>
        <pt x="756" y="-323" on="0"/>
        <pt x="691" y="-360" on="0"/>
        <pt x="617" y="-373" on="0"/>
        <pt x="586" y="-373" on="1"/>
        <pt x="542" y="-373" on="0"/>
        <pt x="451" y="-364" on="0"/>
        <pt x="414" y="-356" on="1"/>
        <pt x="414" y="-256" on="1"/>
        <pt x="570" y="-256" on="1"/>
        <pt x="604" y="-256" on="0"/>
        <pt x="643" y="-236" on="0"/>
        <pt x="643" y="-206" on="1"/>
        <pt x="643" y="-182" on="0"/>
        <pt x="614" y="-158" on="0"/>
        <pt x="574" y="-158" on="1"/>
        <pt x="506" y="-158" on="1"/>
        <pt x="528" y="-16" on="1"/>
        <pt x="309" y="18" on="0"/>
        <pt x="86" y="376" on="0"/>
        <pt x="86" y="703" on="1"/>
        <pt x="86" y="1068" on="0"/>
        <pt x="366" y="1430" on="0"/>
      </contour>
    </TTGlyph>
    <TTGlyph name="Ccircumflex" xMin="86" yMin="-24" xMax="1129" yMax="1807">
      <contour>
        <pt x="639" y="1430" on="1"/>
        <pt x="746" y="1430" on="0"/>
        <pt x="926" y="1364" on="0"/>
        <pt x="1056" y="1232" on="0"/>
        <pt x="1129" y="1032" on="0"/>
        <pt x="1129" y="897" on="1"/>
        <pt x="944" y="897" on="1"/>
        <pt x="944" y="989" on="0"/>
        <pt x="901" y="1127" on="0"/>
        <pt x="821" y="1218" on="0"/>
        <pt x="708" y="1264" on="0"/>
        <pt x="639" y="1264" on="1"/>
        <pt x="454" y="1264" on="0"/>
        <pt x="275" y="1011" on="0"/>
        <pt x="275" y="754" on="1"/>
        <pt x="275" y="651" on="1"/>
        <pt x="275" y="393" on="0"/>
        <pt x="454" y="141" on="0"/>
        <pt x="639" y="141" on="1"/>
        <pt x="710" y="141" on="0"/>
        <pt x="825" y="186" on="0"/>
        <pt x="906" y="276" on="0"/>
        <pt x="950" y="412" on="0"/>
        <pt x="950" y="503" on="1"/>
        <pt x="1129" y="503" on="1"/>
        <pt x="1129" y="367" on="0"/>
        <pt x="1056" y="169" on="0"/>
        <pt x="926" y="39" on="0"/>
        <pt x="746" y="-24" on="0"/>
        <pt x="639" y="-24" on="1"/>
        <pt x="366" y="-24" on="0"/>
        <pt x="86" y="337" on="0"/>
        <pt x="86" y="703" on="1"/>
        <pt x="86" y="1068" on="0"/>
        <pt x="366" y="1430" on="0"/>
      </contour>
      <contour>
        <pt x="862" y="1530" on="1"/>
        <pt x="698" y="1530" on="1"/>
        <pt x="608" y="1692" on="1"/>
        <pt x="515" y="1530" on="1"/>
        <pt x="351" y="1530" on="1"/>
        <pt x="527" y="1807" on="1"/>
        <pt x="687" y="1807" on="1"/>
      </contour>
    </TTGlyph>
    <TTGlyph name="Cdotaccent" xMin="86" yMin="-24" xMax="1129" yMax="1809">
      <contour>
        <pt x="639" y="1430" on="1"/>
        <pt x="746" y="1430" on="0"/>
        <pt x="926" y="1364" on="0"/>
        <pt x="1056" y="1232" on="0"/>
        <pt x="1129" y="1032" on="0"/>
        <pt x="1129" y="897" on="1"/>
        <pt x="944" y="897" on="1"/>
        <pt x="944" y="989" on="0"/>
        <pt x="901" y="1127" on="0"/>
        <pt x="821" y="1218" on="0"/>
        <pt x="708" y="1264" on="0"/>
        <pt x="639" y="1264" on="1"/>
        <pt x="454" y="1264" on="0"/>
        <pt x="275" y="1011" on="0"/>
        <pt x="275" y="754" on="1"/>
        <pt x="275" y="651" on="1"/>
        <pt x="275" y="393" on="0"/>
        <pt x="454" y="141" on="0"/>
        <pt x="639" y="141" on="1"/>
        <pt x="710" y="141" on="0"/>
        <pt x="825" y="186" on="0"/>
        <pt x="906" y="276" on="0"/>
        <pt x="950" y="412" on="0"/>
        <pt x="950" y="503" on="1"/>
        <pt x="1129" y="503" on="1"/>
        <pt x="1129" y="367" on="0"/>
        <pt x="1056" y="169" on="0"/>
        <pt x="926" y="39" on="0"/>
        <pt x="746" y="-24" on="0"/>
        <pt x="639" y="-24" on="1"/>
        <pt x="366" y="-24" on="0"/>
        <pt x="86" y="337" on="0"/>
        <pt x="86" y="703" on="1"/>
        <pt x="86" y="1068" on="0"/>
        <pt x="366" y="1430" on="0"/>
      </contour>
      <contour>
        <pt x="696" y="1614" on="1"/>
        <pt x="517" y="1614" on="1"/>
        <pt x="517" y="1809" on="1"/>
        <pt x="696" y="1809" on="1"/>
      </contour>
    </TTGlyph>
    <TTGlyph name="D" xMin="143" yMin="0" xMax="1112" yMax="1405">
      <contour>
        <pt x="143" y="0" on="1"/>
        <pt x="143" y="1405" on="1"/>
        <pt x="580" y="1405" on="1"/>
        <pt x="704" y="1405" on="0"/>
        <pt x="901" y="1319" on="0"/>
        <pt x="1039" y="1148" on="0"/>
        <pt x="1112" y="893" on="0"/>
        <pt x="1112" y="723" on="1"/>
        <pt x="1112" y="543" on="0"/>
        <pt x="1039" y="272" on="0"/>
        <pt x="901" y="91" on="0"/>
        <pt x="704" y="0" on="0"/>
        <pt x="580" y="0" on="1"/>
      </contour>
      <contour>
        <pt x="324" y="1241" on="1"/>
        <pt x="324" y="164" on="1"/>
        <pt x="563" y="164" on="1"/>
        <pt x="646" y="164" on="0"/>
        <pt x="779" y="227" on="0"/>
        <pt x="873" y="353" on="0"/>
        <pt x="924" y="544" on="0"/>
        <pt x="924" y="672" on="1"/>
        <pt x="924" y="774" on="1"/>
        <pt x="924" y="891" on="0"/>
        <pt x="873" y="1067" on="0"/>
        <pt x="779" y="1183" on="0"/>
        <pt x="646" y="1241" on="0"/>
        <pt x="563" y="1241" on="1"/>
      </contour>
    </TTGlyph>
    <TTGlyph name="Dcaron" xMin="143" yMin="0" xMax="1112" yMax="1808">
      <contour>
        <pt x="684" y="1532" on="1"/>
        <pt x="524" y="1532" on="1"/>
        <pt x="350" y="1808" on="1"/>
        <pt x="514" y="1808" on="1"/>
        <pt x="606" y="1647" on="1"/>
        <pt x="698" y="1808" on="1"/>
        <pt x="862" y="1808" on="1"/>
      </contour>
      <contour>
        <pt x="143" y="0" on="1"/>
        <pt x="143" y="1405" on="1"/>
        <pt x="580" y="1405" on="1"/>
        <pt x="704" y="1405" on="0"/>
        <pt x="901" y="1319" on="0"/>
        <pt x="1039" y="1148" on="0"/>
        <pt x="1112" y="893" on="0"/>
        <pt x="1112" y="723" on="1"/>
        <pt x="1112" y="543" on="0"/>
        <pt x="1039" y="272" on="0"/>
        <pt x="901" y="91" on="0"/>
        <pt x="704" y="0" on="0"/>
        <pt x="580" y="0" on="1"/>
      </contour>
      <contour>
        <pt x="324" y="1241" on="1"/>
        <pt x="324" y="164" on="1"/>
        <pt x="563" y="164" on="1"/>
        <pt x="646" y="164" on="0"/>
        <pt x="779" y="227" on="0"/>
        <pt x="873" y="353" on="0"/>
        <pt x="924" y="544" on="0"/>
        <pt x="924" y="672" on="1"/>
        <pt x="924" y="774" on="1"/>
        <pt x="924" y="891" on="0"/>
        <pt x="873" y="1067" on="0"/>
        <pt x="779" y="1183" on="0"/>
        <pt x="646" y="1241" on="0"/>
        <pt x="563" y="1241" on="1"/>
      </contour>
    </TTGlyph>
    <TTGlyph name="Dcroat" xMin="10" yMin="0" xMax="1112" yMax="1405">
      <contour>
        <pt x="10" y="793" on="1"/>
        <pt x="143" y="793" on="1"/>
        <pt x="143" y="1405" on="1"/>
        <pt x="580" y="1405" on="1"/>
        <pt x="704" y="1405" on="0"/>
        <pt x="901" y="1319" on="0"/>
        <pt x="1039" y="1148" on="0"/>
        <pt x="1112" y="893" on="0"/>
        <pt x="1112" y="723" on="1"/>
        <pt x="1112" y="543" on="0"/>
        <pt x="1039" y="272" on="0"/>
        <pt x="901" y="91" on="0"/>
        <pt x="704" y="0" on="0"/>
        <pt x="580" y="0" on="1"/>
        <pt x="143" y="0" on="1"/>
        <pt x="143" y="662" on="1"/>
        <pt x="10" y="662" on="1"/>
      </contour>
      <contour>
        <pt x="324" y="1241" on="1"/>
        <pt x="324" y="793" on="1"/>
        <pt x="645" y="793" on="1"/>
        <pt x="645" y="662" on="1"/>
        <pt x="324" y="662" on="1"/>
        <pt x="324" y="164" on="1"/>
        <pt x="563" y="164" on="1"/>
        <pt x="646" y="164" on="0"/>
        <pt x="779" y="227" on="0"/>
        <pt x="873" y="353" on="0"/>
        <pt x="924" y="544" on="0"/>
        <pt x="924" y="672" on="1"/>
        <pt x="924" y="774" on="1"/>
        <pt x="924" y="891" on="0"/>
        <pt x="873" y="1067" on="0"/>
        <pt x="779" y="1183" on="0"/>
        <pt x="646" y="1241" on="0"/>
        <pt x="563" y="1241" on="1"/>
      </contour>
    </TTGlyph>
    <TTGlyph name="Delta" xMin="33" yMin="0" xMax="1122" yMax="1405">
      <contour>
        <pt x="33" y="78" on="1"/>
        <pt x="461" y="1405" on="1"/>
        <pt x="692" y="1405" on="1"/>
        <pt x="1122" y="78" on="1"/>
        <pt x="1122" y="0" on="1"/>
        <pt x="33" y="0" on="1"/>
      </contour>
      <contour>
        <pt x="239" y="172" on="1"/>
        <pt x="893" y="172" on="1"/>
        <pt x="576" y="1206" on="1"/>
        <pt x="567" y="1206" on="1"/>
      </contour>
    </TTGlyph>
    <TTGlyph name="E" xMin="143" yMin="0" xMax="1022" yMax="1405">
      <contour>
        <pt x="143" y="0" on="1"/>
        <pt x="143" y="1405" on="1"/>
        <pt x="1010" y="1405" on="1"/>
        <pt x="1010" y="1241" on="1"/>
        <pt x="324" y="1241" on="1"/>
        <pt x="324" y="801" on="1"/>
        <pt x="920" y="801" on="1"/>
        <pt x="920" y="637" on="1"/>
        <pt x="324" y="637" on="1"/>
        <pt x="324" y="164" on="1"/>
        <pt x="1022" y="164" on="1"/>
        <pt x="1022" y="0" on="1"/>
      </contour>
    </TTGlyph>
    <TTGlyph name="Eacute" xMin="143" yMin="0" xMax="1022" yMax="1808">
      <contour>
        <pt x="580" y="1538" on="1"/>
        <pt x="438" y="1538" on="1"/>
        <pt x="614" y="1808" on="1"/>
        <pt x="799" y="1808" on="1"/>
        <pt x="801" y="1802" on="1"/>
      </contour>
      <contour>
        <pt x="143" y="0" on="1"/>
        <pt x="143" y="1405" on="1"/>
        <pt x="1010" y="1405" on="1"/>
        <pt x="1010" y="1241" on="1"/>
        <pt x="324" y="1241" on="1"/>
        <pt x="324" y="801" on="1"/>
        <pt x="920" y="801" on="1"/>
        <pt x="920" y="637" on="1"/>
        <pt x="324" y="637" on="1"/>
        <pt x="324" y="164" on="1"/>
        <pt x="1022" y="164" on="1"/>
        <pt x="1022" y="0" on="1"/>
      </contour>
    </TTGlyph>
    <TTGlyph name="Ebreve" xMin="143" yMin="0" xMax="1022" yMax="1808">
      <contour>
        <pt x="813" y="1808" on="1"/>
        <pt x="813" y="1773" on="0"/>
        <pt x="778" y="1703" on="0"/>
        <pt x="712" y="1646" on="0"/>
        <pt x="618" y="1610" on="0"/>
        <pt x="559" y="1610" on="1"/>
        <pt x="500" y="1610" on="0"/>
        <pt x="407" y="1646" on="0"/>
        <pt x="342" y="1703" on="0"/>
        <pt x="307" y="1773" on="0"/>
        <pt x="307" y="1808" on="1"/>
        <pt x="438" y="1808" on="1"/>
        <pt x="440" y="1797" on="0"/>
        <pt x="460" y="1774" on="0"/>
        <pt x="491" y="1754" on="0"/>
        <pt x="534" y="1741" on="0"/>
        <pt x="559" y="1741" on="1"/>
        <pt x="585" y="1741" on="0"/>
        <pt x="630" y="1754" on="0"/>
        <pt x="662" y="1774" on="0"/>
        <pt x="681" y="1797" on="0"/>
        <pt x="682" y="1808" on="1"/>
      </contour>
      <contour>
        <pt x="143" y="0" on="1"/>
        <pt x="143" y="1405" on="1"/>
        <pt x="1010" y="1405" on="1"/>
        <pt x="1010" y="1241" on="1"/>
        <pt x="324" y="1241" on="1"/>
        <pt x="324" y="801" on="1"/>
        <pt x="920" y="801" on="1"/>
        <pt x="920" y="637" on="1"/>
        <pt x="324" y="637" on="1"/>
        <pt x="324" y="164" on="1"/>
        <pt x="1022" y="164" on="1"/>
        <pt x="1022" y="0" on="1"/>
      </contour>
    </TTGlyph>
    <TTGlyph name="Ecaron" xMin="143" yMin="0" xMax="1022" yMax="1808">
      <contour>
        <pt x="639" y="1532" on="1"/>
        <pt x="479" y="1532" on="1"/>
        <pt x="305" y="1808" on="1"/>
        <pt x="469" y="1808" on="1"/>
        <pt x="559" y="1647" on="1"/>
        <pt x="651" y="1808" on="1"/>
        <pt x="815" y="1808" on="1"/>
      </contour>
      <contour>
        <pt x="143" y="0" on="1"/>
        <pt x="143" y="1405" on="1"/>
        <pt x="1010" y="1405" on="1"/>
        <pt x="1010" y="1241" on="1"/>
        <pt x="324" y="1241" on="1"/>
        <pt x="324" y="801" on="1"/>
        <pt x="920" y="801" on="1"/>
        <pt x="920" y="637" on="1"/>
        <pt x="324" y="637" on="1"/>
        <pt x="324" y="164" on="1"/>
        <pt x="1022" y="164" on="1"/>
        <pt x="1022" y="0" on="1"/>
      </contour>
    </TTGlyph>
    <TTGlyph name="Ecircumflex" xMin="143" yMin="0" xMax="1022" yMax="1806">
      <contour>
        <pt x="815" y="1530" on="1"/>
        <pt x="651" y="1530" on="1"/>
        <pt x="561" y="1692" on="1"/>
        <pt x="469" y="1530" on="1"/>
        <pt x="305" y="1530" on="1"/>
        <pt x="481" y="1806" on="1"/>
        <pt x="641" y="1806" on="1"/>
      </contour>
      <contour>
        <pt x="143" y="0" on="1"/>
        <pt x="143" y="1405" on="1"/>
        <pt x="1010" y="1405" on="1"/>
        <pt x="1010" y="1241" on="1"/>
        <pt x="324" y="1241" on="1"/>
        <pt x="324" y="801" on="1"/>
        <pt x="920" y="801" on="1"/>
        <pt x="920" y="637" on="1"/>
        <pt x="324" y="637" on="1"/>
        <pt x="324" y="164" on="1"/>
        <pt x="1022" y="164" on="1"/>
        <pt x="1022" y="0" on="1"/>
      </contour>
    </TTGlyph>
    <TTGlyph name="Edieresis" xMin="143" yMin="0" xMax="1022" yMax="1808">
      <contour>
        <pt x="803" y="1614" on="1"/>
        <pt x="625" y="1614" on="1"/>
        <pt x="625" y="1808" on="1"/>
        <pt x="803" y="1808" on="1"/>
      </contour>
      <contour>
        <pt x="496" y="1614" on="1"/>
        <pt x="317" y="1614" on="1"/>
        <pt x="317" y="1808" on="1"/>
        <pt x="496" y="1808" on="1"/>
      </contour>
      <contour>
        <pt x="143" y="0" on="1"/>
        <pt x="143" y="1405" on="1"/>
        <pt x="1010" y="1405" on="1"/>
        <pt x="1010" y="1241" on="1"/>
        <pt x="324" y="1241" on="1"/>
        <pt x="324" y="801" on="1"/>
        <pt x="920" y="801" on="1"/>
        <pt x="920" y="637" on="1"/>
        <pt x="324" y="637" on="1"/>
        <pt x="324" y="164" on="1"/>
        <pt x="1022" y="164" on="1"/>
        <pt x="1022" y="0" on="1"/>
      </contour>
    </TTGlyph>
    <TTGlyph name="Edotaccent" xMin="143" yMin="0" xMax="1022" yMax="1808">
      <contour>
        <pt x="649" y="1614" on="1"/>
        <pt x="471" y="1614" on="1"/>
        <pt x="471" y="1808" on="1"/>
        <pt x="649" y="1808" on="1"/>
      </contour>
      <contour>
        <pt x="143" y="0" on="1"/>
        <pt x="143" y="1405" on="1"/>
        <pt x="1010" y="1405" on="1"/>
        <pt x="1010" y="1241" on="1"/>
        <pt x="324" y="1241" on="1"/>
        <pt x="324" y="801" on="1"/>
        <pt x="920" y="801" on="1"/>
        <pt x="920" y="637" on="1"/>
        <pt x="324" y="637" on="1"/>
        <pt x="324" y="164" on="1"/>
        <pt x="1022" y="164" on="1"/>
        <pt x="1022" y="0" on="1"/>
      </contour>
    </TTGlyph>
    <TTGlyph name="Egrave" xMin="143" yMin="0" xMax="1022" yMax="1808">
      <contour>
        <pt x="541" y="1538" on="1"/>
        <pt x="319" y="1802" on="1"/>
        <pt x="322" y="1808" on="1"/>
        <pt x="506" y="1808" on="1"/>
        <pt x="682" y="1538" on="1"/>
      </contour>
      <contour>
        <pt x="143" y="0" on="1"/>
        <pt x="143" y="1405" on="1"/>
        <pt x="1010" y="1405" on="1"/>
        <pt x="1010" y="1241" on="1"/>
        <pt x="324" y="1241" on="1"/>
        <pt x="324" y="801" on="1"/>
        <pt x="920" y="801" on="1"/>
        <pt x="920" y="637" on="1"/>
        <pt x="324" y="637" on="1"/>
        <pt x="324" y="164" on="1"/>
        <pt x="1022" y="164" on="1"/>
        <pt x="1022" y="0" on="1"/>
      </contour>
    </TTGlyph>
    <TTGlyph name="Emacron" xMin="143" yMin="0" xMax="1022" yMax="1702">
      <contour>
        <pt x="817" y="1554" on="1"/>
        <pt x="303" y="1554" on="1"/>
        <pt x="303" y="1702" on="1"/>
        <pt x="817" y="1702" on="1"/>
      </contour>
      <contour>
        <pt x="143" y="0" on="1"/>
        <pt x="143" y="1405" on="1"/>
        <pt x="1010" y="1405" on="1"/>
        <pt x="1010" y="1241" on="1"/>
        <pt x="324" y="1241" on="1"/>
        <pt x="324" y="801" on="1"/>
        <pt x="920" y="801" on="1"/>
        <pt x="920" y="637" on="1"/>
        <pt x="324" y="637" on="1"/>
        <pt x="324" y="164" on="1"/>
        <pt x="1022" y="164" on="1"/>
        <pt x="1022" y="0" on="1"/>
      </contour>
    </TTGlyph>
    <TTGlyph name="Eng" xMin="143" yMin="-373" xMax="1069" yMax="1405">
      <contour>
        <pt x="1069" y="-125" on="1"/>
        <pt x="1069" y="-171" on="0"/>
        <pt x="1049" y="-260" on="0"/>
        <pt x="999" y="-330" on="0"/>
        <pt x="917" y="-373" on="0"/>
        <pt x="856" y="-373" on="1"/>
        <pt x="819" y="-373" on="0"/>
        <pt x="741" y="-357" on="0"/>
        <pt x="715" y="-348" on="1"/>
        <pt x="715" y="-231" on="1"/>
        <pt x="805" y="-231" on="1"/>
        <pt x="901" y="-231" on="0"/>
        <pt x="901" y="-133" on="1"/>
        <pt x="901" y="31" on="1"/>
        <pt x="393" y="895" on="1"/>
        <pt x="379" y="917" on="0"/>
        <pt x="349" y="981" on="0"/>
        <pt x="335" y="1011" on="1"/>
        <pt x="319" y="1046" on="0"/>
        <pt x="303" y="1083" on="1"/>
        <pt x="297" y="1081" on="1"/>
        <pt x="299" y="1043" on="0"/>
        <pt x="301" y="1009" on="1"/>
        <pt x="303" y="980" on="0"/>
        <pt x="305" y="916" on="0"/>
        <pt x="305" y="895" on="1"/>
        <pt x="305" y="0" on="1"/>
        <pt x="143" y="0" on="1"/>
        <pt x="143" y="1405" on="1"/>
        <pt x="299" y="1405" on="1"/>
        <pt x="821" y="522" on="1"/>
        <pt x="832" y="502" on="0"/>
        <pt x="862" y="438" on="0"/>
        <pt x="876" y="408" on="1"/>
        <pt x="892" y="373" on="0"/>
        <pt x="907" y="334" on="1"/>
        <pt x="913" y="336" on="1"/>
        <pt x="911" y="376" on="0"/>
        <pt x="910" y="412" on="1"/>
        <pt x="908" y="443" on="0"/>
        <pt x="907" y="505" on="0"/>
        <pt x="907" y="522" on="1"/>
        <pt x="901" y="1405" on="1"/>
        <pt x="1069" y="1405" on="1"/>
      </contour>
    </TTGlyph>
    <TTGlyph name="Eogonek" xMin="143" yMin="-373" xMax="1130" yMax="1405">
      <contour>
        <pt x="1010" y="1241" on="1"/>
        <pt x="324" y="1241" on="1"/>
        <pt x="324" y="801" on="1"/>
        <pt x="920" y="801" on="1"/>
        <pt x="920" y="637" on="1"/>
        <pt x="324" y="637" on="1"/>
        <pt x="324" y="164" on="1"/>
        <pt x="1022" y="164" on="1"/>
        <pt x="1022" y="0" on="1"/>
        <pt x="1005" y="-23" on="0"/>
        <pt x="973" y="-90" on="0"/>
        <pt x="973" y="-127" on="1"/>
        <pt x="973" y="-148" on="0"/>
        <pt x="983" y="-189" on="0"/>
        <pt x="1005" y="-221" on="0"/>
        <pt x="1041" y="-240" on="0"/>
        <pt x="1067" y="-240" on="1"/>
        <pt x="1130" y="-240" on="1"/>
        <pt x="1130" y="-344" on="1"/>
        <pt x="1098" y="-358" on="0"/>
        <pt x="1037" y="-373" on="0"/>
        <pt x="1006" y="-373" on="1"/>
        <pt x="973" y="-373" on="0"/>
        <pt x="904" y="-355" on="0"/>
        <pt x="849" y="-312" on="0"/>
        <pt x="813" y="-241" on="0"/>
        <pt x="813" y="-188" on="1"/>
        <pt x="813" y="-123" on="0"/>
        <pt x="857" y="-35" on="0"/>
        <pt x="889" y="0" on="1"/>
        <pt x="143" y="0" on="1"/>
        <pt x="143" y="1405" on="1"/>
        <pt x="1010" y="1405" on="1"/>
      </contour>
    </TTGlyph>
    <TTGlyph name="Eth" xMin="10" yMin="0" xMax="1112" yMax="1405">
      <contour>
        <pt x="10" y="793" on="1"/>
        <pt x="143" y="793" on="1"/>
        <pt x="143" y="1405" on="1"/>
        <pt x="580" y="1405" on="1"/>
        <pt x="704" y="1405" on="0"/>
        <pt x="901" y="1319" on="0"/>
        <pt x="1039" y="1148" on="0"/>
        <pt x="1112" y="893" on="0"/>
        <pt x="1112" y="723" on="1"/>
        <pt x="1112" y="543" on="0"/>
        <pt x="1039" y="272" on="0"/>
        <pt x="901" y="91" on="0"/>
        <pt x="704" y="0" on="0"/>
        <pt x="580" y="0" on="1"/>
        <pt x="143" y="0" on="1"/>
        <pt x="143" y="662" on="1"/>
        <pt x="10" y="662" on="1"/>
      </contour>
      <contour>
        <pt x="324" y="1241" on="1"/>
        <pt x="324" y="793" on="1"/>
        <pt x="645" y="793" on="1"/>
        <pt x="645" y="662" on="1"/>
        <pt x="324" y="662" on="1"/>
        <pt x="324" y="164" on="1"/>
        <pt x="563" y="164" on="1"/>
        <pt x="646" y="164" on="0"/>
        <pt x="779" y="227" on="0"/>
        <pt x="873" y="353" on="0"/>
        <pt x="924" y="544" on="0"/>
        <pt x="924" y="672" on="1"/>
        <pt x="924" y="774" on="1"/>
        <pt x="924" y="891" on="0"/>
        <pt x="873" y="1067" on="0"/>
        <pt x="779" y="1183" on="0"/>
        <pt x="646" y="1241" on="0"/>
        <pt x="563" y="1241" on="1"/>
      </contour>
    </TTGlyph>
    <TTGlyph name="Euro" xMin="39" yMin="-24" xMax="875" yMax="1430">
      <contour>
        <pt x="737" y="1430" on="1"/>
        <pt x="772" y="1430" on="0"/>
        <pt x="841" y="1420" on="0"/>
        <pt x="875" y="1409" on="1"/>
        <pt x="875" y="1264" on="1"/>
        <pt x="847" y="1272" on="0"/>
        <pt x="791" y="1280" on="0"/>
        <pt x="762" y="1280" on="1"/>
        <pt x="688" y="1280" on="0"/>
        <pt x="555" y="1235" on="0"/>
        <pt x="445" y="1144" on="0"/>
        <pt x="364" y="1003" on="0"/>
        <pt x="342" y="907" on="1"/>
        <pt x="756" y="907" on="1"/>
        <pt x="756" y="774" on="1"/>
        <pt x="323" y="774" on="1"/>
        <pt x="321" y="755" on="0"/>
        <pt x="321" y="738" on="1"/>
        <pt x="321" y="665" on="1"/>
        <pt x="321" y="647" on="0"/>
        <pt x="323" y="630" on="1"/>
        <pt x="756" y="630" on="1"/>
        <pt x="756" y="497" on="1"/>
        <pt x="342" y="497" on="1"/>
        <pt x="364" y="401" on="0"/>
        <pt x="445" y="261" on="0"/>
        <pt x="555" y="170" on="0"/>
        <pt x="688" y="125" on="0"/>
        <pt x="762" y="125" on="1"/>
        <pt x="791" y="125" on="0"/>
        <pt x="847" y="133" on="0"/>
        <pt x="875" y="141" on="1"/>
        <pt x="875" y="-4" on="1"/>
        <pt x="841" y="-13" on="0"/>
        <pt x="772" y="-24" on="0"/>
        <pt x="737" y="-24" on="1"/>
        <pt x="621" y="-24" on="0"/>
        <pt x="431" y="45" on="0"/>
        <pt x="286" y="178" on="0"/>
        <pt x="190" y="372" on="0"/>
        <pt x="168" y="497" on="1"/>
        <pt x="39" y="497" on="1"/>
        <pt x="39" y="630" on="1"/>
        <pt x="154" y="630" on="1"/>
        <pt x="152" y="647" on="0"/>
        <pt x="152" y="665" on="1"/>
        <pt x="152" y="738" on="1"/>
        <pt x="152" y="755" on="0"/>
        <pt x="154" y="774" on="1"/>
        <pt x="39" y="774" on="1"/>
        <pt x="39" y="907" on="1"/>
        <pt x="168" y="907" on="1"/>
        <pt x="190" y="1032" on="0"/>
        <pt x="286" y="1227" on="0"/>
        <pt x="431" y="1360" on="0"/>
        <pt x="621" y="1430" on="0"/>
      </contour>
    </TTGlyph>
    <TTGlyph name="F" xMin="143" yMin="0" xMax="954" yMax="1405">
      <contour>
        <pt x="143" y="0" on="1"/>
        <pt x="143" y="1405" on="1"/>
        <pt x="954" y="1405" on="1"/>
        <pt x="954" y="1241" on="1"/>
        <pt x="324" y="1241" on="1"/>
        <pt x="324" y="786" on="1"/>
        <pt x="881" y="786" on="1"/>
        <pt x="881" y="623" on="1"/>
        <pt x="324" y="623" on="1"/>
        <pt x="324" y="0" on="1"/>
      </contour>
    </TTGlyph>
    <TTGlyph name="G" xMin="100" yMin="-25" xMax="1174" yMax="1430">
      <contour>
        <pt x="1016" y="156" on="1"/>
        <pt x="951" y="60" on="0"/>
        <pt x="768" y="-25" on="0"/>
        <pt x="653" y="-25" on="1"/>
        <pt x="520" y="-25" on="0"/>
        <pt x="314" y="65" on="0"/>
        <pt x="173" y="247" on="0"/>
        <pt x="100" y="519" on="0"/>
        <pt x="100" y="702" on="1"/>
        <pt x="100" y="885" on="0"/>
        <pt x="178" y="1158" on="0"/>
        <pt x="323" y="1340" on="0"/>
        <pt x="532" y="1430" on="0"/>
        <pt x="664" y="1430" on="1"/>
        <pt x="773" y="1430" on="0"/>
        <pt x="960" y="1368" on="0"/>
        <pt x="1097" y="1243" on="0"/>
        <pt x="1174" y="1053" on="0"/>
        <pt x="1174" y="926" on="1"/>
        <pt x="989" y="926" on="1"/>
        <pt x="989" y="1013" on="0"/>
        <pt x="941" y="1141" on="0"/>
        <pt x="856" y="1224" on="0"/>
        <pt x="736" y="1264" on="0"/>
        <pt x="664" y="1264" on="1"/>
        <pt x="577" y="1264" on="0"/>
        <pt x="438" y="1201" on="0"/>
        <pt x="341" y="1074" on="0"/>
        <pt x="289" y="882" on="0"/>
        <pt x="289" y="754" on="1"/>
        <pt x="289" y="651" on="1"/>
        <pt x="289" y="394" on="0"/>
        <pt x="477" y="141" on="0"/>
        <pt x="653" y="141" on="1"/>
        <pt x="828" y="141" on="0"/>
        <pt x="989" y="339" on="0"/>
        <pt x="989" y="541" on="1"/>
        <pt x="989" y="573" on="1"/>
        <pt x="625" y="573" on="1"/>
        <pt x="625" y="731" on="1"/>
        <pt x="1174" y="731" on="1"/>
        <pt x="1174" y="0" on="1"/>
        <pt x="1055" y="0" on="1"/>
      </contour>
    </TTGlyph>
    <TTGlyph name="Gbreve" xMin="100" yMin="-25" xMax="1174" yMax="1808">
      <contour>
        <pt x="907" y="1808" on="1"/>
        <pt x="907" y="1773" on="0"/>
        <pt x="872" y="1703" on="0"/>
        <pt x="806" y="1646" on="0"/>
        <pt x="712" y="1610" on="0"/>
        <pt x="653" y="1610" on="1"/>
        <pt x="595" y="1610" on="0"/>
        <pt x="502" y="1646" on="0"/>
        <pt x="436" y="1703" on="0"/>
        <pt x="401" y="1773" on="0"/>
        <pt x="401" y="1808" on="1"/>
        <pt x="532" y="1808" on="1"/>
        <pt x="535" y="1797" on="0"/>
        <pt x="554" y="1774" on="0"/>
        <pt x="586" y="1754" on="0"/>
        <pt x="628" y="1741" on="0"/>
        <pt x="653" y="1741" on="1"/>
        <pt x="679" y="1741" on="0"/>
        <pt x="723" y="1754" on="0"/>
        <pt x="755" y="1774" on="0"/>
        <pt x="774" y="1797" on="0"/>
        <pt x="776" y="1808" on="1"/>
      </contour>
      <contour>
        <pt x="1016" y="156" on="1"/>
        <pt x="951" y="60" on="0"/>
        <pt x="768" y="-25" on="0"/>
        <pt x="653" y="-25" on="1"/>
        <pt x="520" y="-25" on="0"/>
        <pt x="314" y="65" on="0"/>
        <pt x="173" y="247" on="0"/>
        <pt x="100" y="519" on="0"/>
        <pt x="100" y="702" on="1"/>
        <pt x="100" y="885" on="0"/>
        <pt x="178" y="1158" on="0"/>
        <pt x="323" y="1340" on="0"/>
        <pt x="532" y="1430" on="0"/>
        <pt x="664" y="1430" on="1"/>
        <pt x="773" y="1430" on="0"/>
        <pt x="960" y="1368" on="0"/>
        <pt x="1097" y="1243" on="0"/>
        <pt x="1174" y="1053" on="0"/>
        <pt x="1174" y="926" on="1"/>
        <pt x="989" y="926" on="1"/>
        <pt x="989" y="1013" on="0"/>
        <pt x="941" y="1141" on="0"/>
        <pt x="856" y="1224" on="0"/>
        <pt x="736" y="1264" on="0"/>
        <pt x="664" y="1264" on="1"/>
        <pt x="577" y="1264" on="0"/>
        <pt x="438" y="1201" on="0"/>
        <pt x="341" y="1074" on="0"/>
        <pt x="289" y="882" on="0"/>
        <pt x="289" y="754" on="1"/>
        <pt x="289" y="651" on="1"/>
        <pt x="289" y="394" on="0"/>
        <pt x="477" y="141" on="0"/>
        <pt x="653" y="141" on="1"/>
        <pt x="828" y="141" on="0"/>
        <pt x="989" y="339" on="0"/>
        <pt x="989" y="541" on="1"/>
        <pt x="989" y="573" on="1"/>
        <pt x="625" y="573" on="1"/>
        <pt x="625" y="731" on="1"/>
        <pt x="1174" y="731" on="1"/>
        <pt x="1174" y="0" on="1"/>
        <pt x="1055" y="0" on="1"/>
      </contour>
    </TTGlyph>
    <TTGlyph name="Gcircumflex" xMin="100" yMin="-25" xMax="1174" yMax="1806">
      <contour>
        <pt x="909" y="1530" on="1"/>
        <pt x="745" y="1530" on="1"/>
        <pt x="655" y="1692" on="1"/>
        <pt x="563" y="1530" on="1"/>
        <pt x="399" y="1530" on="1"/>
        <pt x="575" y="1806" on="1"/>
        <pt x="735" y="1806" on="1"/>
      </contour>
      <contour>
        <pt x="1016" y="156" on="1"/>
        <pt x="951" y="60" on="0"/>
        <pt x="768" y="-25" on="0"/>
        <pt x="653" y="-25" on="1"/>
        <pt x="520" y="-25" on="0"/>
        <pt x="314" y="65" on="0"/>
        <pt x="173" y="247" on="0"/>
        <pt x="100" y="519" on="0"/>
        <pt x="100" y="702" on="1"/>
        <pt x="100" y="885" on="0"/>
        <pt x="178" y="1158" on="0"/>
        <pt x="323" y="1340" on="0"/>
        <pt x="532" y="1430" on="0"/>
        <pt x="664" y="1430" on="1"/>
        <pt x="773" y="1430" on="0"/>
        <pt x="960" y="1368" on="0"/>
        <pt x="1097" y="1243" on="0"/>
        <pt x="1174" y="1053" on="0"/>
        <pt x="1174" y="926" on="1"/>
        <pt x="989" y="926" on="1"/>
        <pt x="989" y="1013" on="0"/>
        <pt x="941" y="1141" on="0"/>
        <pt x="856" y="1224" on="0"/>
        <pt x="736" y="1264" on="0"/>
        <pt x="664" y="1264" on="1"/>
        <pt x="577" y="1264" on="0"/>
        <pt x="438" y="1201" on="0"/>
        <pt x="341" y="1074" on="0"/>
        <pt x="289" y="882" on="0"/>
        <pt x="289" y="754" on="1"/>
        <pt x="289" y="651" on="1"/>
        <pt x="289" y="394" on="0"/>
        <pt x="477" y="141" on="0"/>
        <pt x="653" y="141" on="1"/>
        <pt x="828" y="141" on="0"/>
        <pt x="989" y="339" on="0"/>
        <pt x="989" y="541" on="1"/>
        <pt x="989" y="573" on="1"/>
        <pt x="625" y="573" on="1"/>
        <pt x="625" y="731" on="1"/>
        <pt x="1174" y="731" on="1"/>
        <pt x="1174" y="0" on="1"/>
        <pt x="1055" y="0" on="1"/>
      </contour>
    </TTGlyph>
    <TTGlyph name="Gcommaaccent" xMin="100" yMin="-455" xMax="1174" yMax="1430">
      <contour>
        <pt x="741" y="-295" on="1"/>
        <pt x="682" y="-455" on="1"/>
        <pt x="592" y="-455" on="1"/>
        <pt x="637" y="-309" on="1"/>
        <pt x="567" y="-309" on="1"/>
        <pt x="567" y="-123" on="1"/>
        <pt x="741" y="-123" on="1"/>
      </contour>
      <contour>
        <pt x="1016" y="156" on="1"/>
        <pt x="951" y="60" on="0"/>
        <pt x="768" y="-25" on="0"/>
        <pt x="653" y="-25" on="1"/>
        <pt x="520" y="-25" on="0"/>
        <pt x="314" y="65" on="0"/>
        <pt x="173" y="247" on="0"/>
        <pt x="100" y="519" on="0"/>
        <pt x="100" y="702" on="1"/>
        <pt x="100" y="885" on="0"/>
        <pt x="178" y="1158" on="0"/>
        <pt x="323" y="1340" on="0"/>
        <pt x="532" y="1430" on="0"/>
        <pt x="664" y="1430" on="1"/>
        <pt x="773" y="1430" on="0"/>
        <pt x="960" y="1368" on="0"/>
        <pt x="1097" y="1243" on="0"/>
        <pt x="1174" y="1053" on="0"/>
        <pt x="1174" y="926" on="1"/>
        <pt x="989" y="926" on="1"/>
        <pt x="989" y="1013" on="0"/>
        <pt x="941" y="1141" on="0"/>
        <pt x="856" y="1224" on="0"/>
        <pt x="736" y="1264" on="0"/>
        <pt x="664" y="1264" on="1"/>
        <pt x="577" y="1264" on="0"/>
        <pt x="438" y="1201" on="0"/>
        <pt x="341" y="1074" on="0"/>
        <pt x="289" y="882" on="0"/>
        <pt x="289" y="754" on="1"/>
        <pt x="289" y="651" on="1"/>
        <pt x="289" y="394" on="0"/>
        <pt x="477" y="141" on="0"/>
        <pt x="653" y="141" on="1"/>
        <pt x="828" y="141" on="0"/>
        <pt x="989" y="339" on="0"/>
        <pt x="989" y="541" on="1"/>
        <pt x="989" y="573" on="1"/>
        <pt x="625" y="573" on="1"/>
        <pt x="625" y="731" on="1"/>
        <pt x="1174" y="731" on="1"/>
        <pt x="1174" y="0" on="1"/>
        <pt x="1055" y="0" on="1"/>
      </contour>
    </TTGlyph>
    <TTGlyph name="Gdotaccent" xMin="100" yMin="-25" xMax="1174" yMax="1808">
      <contour>
        <pt x="743" y="1614" on="1"/>
        <pt x="565" y="1614" on="1"/>
        <pt x="565" y="1808" on="1"/>
        <pt x="743" y="1808" on="1"/>
      </contour>
      <contour>
        <pt x="1016" y="156" on="1"/>
        <pt x="951" y="60" on="0"/>
        <pt x="768" y="-25" on="0"/>
        <pt x="653" y="-25" on="1"/>
        <pt x="520" y="-25" on="0"/>
        <pt x="314" y="65" on="0"/>
        <pt x="173" y="247" on="0"/>
        <pt x="100" y="519" on="0"/>
        <pt x="100" y="702" on="1"/>
        <pt x="100" y="885" on="0"/>
        <pt x="178" y="1158" on="0"/>
        <pt x="323" y="1340" on="0"/>
        <pt x="532" y="1430" on="0"/>
        <pt x="664" y="1430" on="1"/>
        <pt x="773" y="1430" on="0"/>
        <pt x="960" y="1368" on="0"/>
        <pt x="1097" y="1243" on="0"/>
        <pt x="1174" y="1053" on="0"/>
        <pt x="1174" y="926" on="1"/>
        <pt x="989" y="926" on="1"/>
        <pt x="989" y="1013" on="0"/>
        <pt x="941" y="1141" on="0"/>
        <pt x="856" y="1224" on="0"/>
        <pt x="736" y="1264" on="0"/>
        <pt x="664" y="1264" on="1"/>
        <pt x="577" y="1264" on="0"/>
        <pt x="438" y="1201" on="0"/>
        <pt x="341" y="1074" on="0"/>
        <pt x="289" y="882" on="0"/>
        <pt x="289" y="754" on="1"/>
        <pt x="289" y="651" on="1"/>
        <pt x="289" y="394" on="0"/>
        <pt x="477" y="141" on="0"/>
        <pt x="653" y="141" on="1"/>
        <pt x="828" y="141" on="0"/>
        <pt x="989" y="339" on="0"/>
        <pt x="989" y="541" on="1"/>
        <pt x="989" y="573" on="1"/>
        <pt x="625" y="573" on="1"/>
        <pt x="625" y="731" on="1"/>
        <pt x="1174" y="731" on="1"/>
        <pt x="1174" y="0" on="1"/>
        <pt x="1055" y="0" on="1"/>
      </contour>
    </TTGlyph>
    <TTGlyph name="H" xMin="143" yMin="0" xMax="1069" yMax="1405">
      <contour>
        <pt x="1069" y="0" on="1"/>
        <pt x="889" y="0" on="1"/>
        <pt x="889" y="637" on="1"/>
        <pt x="324" y="637" on="1"/>
        <pt x="324" y="0" on="1"/>
        <pt x="143" y="0" on="1"/>
        <pt x="143" y="1405" on="1"/>
        <pt x="324" y="1405" on="1"/>
        <pt x="324" y="801" on="1"/>
        <pt x="889" y="801" on="1"/>
        <pt x="889" y="1405" on="1"/>
        <pt x="1069" y="1405" on="1"/>
      </contour>
    </TTGlyph>
    <TTGlyph name="Hbar" xMin="41" yMin="0" xMax="1171" yMax="1405">
      <contour>
        <pt x="1171" y="1004" on="1"/>
        <pt x="1069" y="1004" on="1"/>
        <pt x="1069" y="0" on="1"/>
        <pt x="889" y="0" on="1"/>
        <pt x="889" y="627" on="1"/>
        <pt x="324" y="627" on="1"/>
        <pt x="324" y="0" on="1"/>
        <pt x="143" y="0" on="1"/>
        <pt x="143" y="1004" on="1"/>
        <pt x="41" y="1004" on="1"/>
        <pt x="41" y="1151" on="1"/>
        <pt x="143" y="1151" on="1"/>
        <pt x="143" y="1405" on="1"/>
        <pt x="324" y="1405" on="1"/>
        <pt x="324" y="1151" on="1"/>
        <pt x="889" y="1151" on="1"/>
        <pt x="889" y="1405" on="1"/>
        <pt x="1069" y="1405" on="1"/>
        <pt x="1069" y="1151" on="1"/>
        <pt x="1171" y="1151" on="1"/>
      </contour>
      <contour>
        <pt x="889" y="791" on="1"/>
        <pt x="889" y="1004" on="1"/>
        <pt x="324" y="1004" on="1"/>
        <pt x="324" y="791" on="1"/>
      </contour>
    </TTGlyph>
    <TTGlyph name="Hcircumflex" xMin="143" yMin="0" xMax="1069" yMax="1806">
      <contour>
        <pt x="862" y="1530" on="1"/>
        <pt x="698" y="1530" on="1"/>
        <pt x="608" y="1692" on="1"/>
        <pt x="514" y="1530" on="1"/>
        <pt x="350" y="1530" on="1"/>
        <pt x="526" y="1806" on="1"/>
        <pt x="686" y="1806" on="1"/>
      </contour>
      <contour>
        <pt x="1069" y="0" on="1"/>
        <pt x="889" y="0" on="1"/>
        <pt x="889" y="637" on="1"/>
        <pt x="324" y="637" on="1"/>
        <pt x="324" y="0" on="1"/>
        <pt x="143" y="0" on="1"/>
        <pt x="143" y="1405" on="1"/>
        <pt x="324" y="1405" on="1"/>
        <pt x="324" y="801" on="1"/>
        <pt x="889" y="801" on="1"/>
        <pt x="889" y="1405" on="1"/>
        <pt x="1069" y="1405" on="1"/>
      </contour>
    </TTGlyph>
    <TTGlyph name="I" xMin="143" yMin="0" xMax="323" yMax="1405">
      <contour>
        <pt x="323" y="0" on="1"/>
        <pt x="143" y="0" on="1"/>
        <pt x="143" y="1405" on="1"/>
        <pt x="323" y="1405" on="1"/>
      </contour>
    </TTGlyph>
    <TTGlyph name="IJ" xMin="143" yMin="-24" xMax="1174" yMax="1405">
      <contour>
        <pt x="323" y="0" on="1"/>
        <pt x="143" y="0" on="1"/>
        <pt x="143" y="1405" on="1"/>
        <pt x="323" y="1405" on="1"/>
      </contour>
      <contour>
        <pt x="1174" y="334" on="1"/>
        <pt x="1174" y="158" on="0"/>
        <pt x="996" y="-24" on="0"/>
        <pt x="834" y="-24" on="1"/>
        <pt x="672" y="-24" on="0"/>
        <pt x="493" y="158" on="0"/>
        <pt x="493" y="334" on="1"/>
        <pt x="493" y="426" on="1"/>
        <pt x="673" y="426" on="1"/>
        <pt x="673" y="323" on="1"/>
        <pt x="673" y="233" on="0"/>
        <pt x="756" y="141" on="0"/>
        <pt x="834" y="141" on="1"/>
        <pt x="911" y="141" on="0"/>
        <pt x="994" y="233" on="0"/>
        <pt x="994" y="323" on="1"/>
        <pt x="994" y="1405" on="1"/>
        <pt x="1174" y="1405" on="1"/>
      </contour>
    </TTGlyph>
    <TTGlyph name="Iacute" xMin="112" yMin="0" xMax="474" yMax="1809">
      <contour>
        <pt x="143" y="0" on="1"/>
        <pt x="143" y="1405" on="1"/>
        <pt x="323" y="1405" on="1"/>
        <pt x="323" y="0" on="1"/>
      </contour>
      <contour>
        <pt x="254" y="1538" on="1"/>
        <pt x="112" y="1538" on="1"/>
        <pt x="288" y="1809" on="1"/>
        <pt x="472" y="1809" on="1"/>
        <pt x="474" y="1802" on="1"/>
      </contour>
    </TTGlyph>
    <TTGlyph name="Ibreve" xMin="-20" yMin="0" xMax="488" yMax="1809">
      <contour>
        <pt x="323" y="0" on="1"/>
        <pt x="143" y="0" on="1"/>
        <pt x="143" y="1405" on="1"/>
        <pt x="323" y="1405" on="1"/>
      </contour>
      <contour>
        <pt x="488" y="1809" on="1"/>
        <pt x="488" y="1774" on="0"/>
        <pt x="453" y="1703" on="0"/>
        <pt x="387" y="1646" on="0"/>
        <pt x="293" y="1610" on="0"/>
        <pt x="234" y="1610" on="1"/>
        <pt x="175" y="1610" on="0"/>
        <pt x="81" y="1646" on="0"/>
        <pt x="15" y="1703" on="0"/>
        <pt x="-20" y="1774" on="0"/>
        <pt x="-20" y="1809" on="1"/>
        <pt x="113" y="1809" on="1"/>
        <pt x="115" y="1798" on="0"/>
        <pt x="134" y="1774" on="0"/>
        <pt x="166" y="1754" on="0"/>
        <pt x="208" y="1741" on="0"/>
        <pt x="234" y="1741" on="1"/>
        <pt x="260" y="1741" on="0"/>
        <pt x="304" y="1754" on="0"/>
        <pt x="336" y="1774" on="0"/>
        <pt x="355" y="1798" on="0"/>
        <pt x="357" y="1809" on="1"/>
      </contour>
    </TTGlyph>
    <TTGlyph name="Icircumflex" xMin="-22" yMin="0" xMax="490" yMax="1807">
      <contour>
        <pt x="323" y="0" on="1"/>
        <pt x="143" y="0" on="1"/>
        <pt x="143" y="1405" on="1"/>
        <pt x="323" y="1405" on="1"/>
      </contour>
      <contour>
        <pt x="490" y="1530" on="1"/>
        <pt x="326" y="1530" on="1"/>
        <pt x="236" y="1692" on="1"/>
        <pt x="143" y="1530" on="1"/>
        <pt x="-22" y="1530" on="1"/>
        <pt x="155" y="1807" on="1"/>
        <pt x="315" y="1807" on="1"/>
      </contour>
    </TTGlyph>
    <TTGlyph name="Idieresis" xMin="-9" yMin="0" xMax="477" yMax="1809">
      <contour>
        <pt x="323" y="0" on="1"/>
        <pt x="143" y="0" on="1"/>
        <pt x="143" y="1405" on="1"/>
        <pt x="323" y="1405" on="1"/>
      </contour>
      <contour>
        <pt x="477" y="1614" on="1"/>
        <pt x="298" y="1614" on="1"/>
        <pt x="298" y="1809" on="1"/>
        <pt x="477" y="1809" on="1"/>
      </contour>
      <contour>
        <pt x="169" y="1614" on="1"/>
        <pt x="-9" y="1614" on="1"/>
        <pt x="-9" y="1809" on="1"/>
        <pt x="169" y="1809" on="1"/>
      </contour>
    </TTGlyph>
    <TTGlyph name="Idotaccent" xMin="143" yMin="0" xMax="324" yMax="1809">
      <contour>
        <pt x="323" y="0" on="1"/>
        <pt x="143" y="0" on="1"/>
        <pt x="143" y="1405" on="1"/>
        <pt x="323" y="1405" on="1"/>
      </contour>
      <contour>
        <pt x="324" y="1614" on="1"/>
        <pt x="145" y="1614" on="1"/>
        <pt x="145" y="1809" on="1"/>
        <pt x="324" y="1809" on="1"/>
      </contour>
    </TTGlyph>
    <TTGlyph name="Igrave" xMin="-7" yMin="0" xMax="356" yMax="1809">
      <contour>
        <pt x="143" y="0" on="1"/>
        <pt x="143" y="1405" on="1"/>
        <pt x="323" y="1405" on="1"/>
        <pt x="323" y="0" on="1"/>
      </contour>
      <contour>
        <pt x="215" y="1538" on="1"/>
        <pt x="-7" y="1802" on="1"/>
        <pt x="-5" y="1809" on="1"/>
        <pt x="180" y="1809" on="1"/>
        <pt x="356" y="1538" on="1"/>
      </contour>
    </TTGlyph>
    <TTGlyph name="Imacron" xMin="-23" yMin="0" xMax="491" yMax="1702">
      <contour>
        <pt x="323" y="0" on="1"/>
        <pt x="143" y="0" on="1"/>
        <pt x="143" y="1405" on="1"/>
        <pt x="323" y="1405" on="1"/>
      </contour>
      <contour>
        <pt x="491" y="1554" on="1"/>
        <pt x="-23" y="1554" on="1"/>
        <pt x="-23" y="1702" on="1"/>
        <pt x="491" y="1702" on="1"/>
      </contour>
    </TTGlyph>
    <TTGlyph name="Iogonek" xMin="101" yMin="-373" xMax="419" yMax="1405">
      <contour>
        <pt x="323" y="0" on="1"/>
        <pt x="309" y="0" on="1"/>
        <pt x="292" y="-23" on="0"/>
        <pt x="261" y="-90" on="0"/>
        <pt x="261" y="-127" on="1"/>
        <pt x="261" y="-148" on="0"/>
        <pt x="271" y="-189" on="0"/>
        <pt x="293" y="-221" on="0"/>
        <pt x="328" y="-240" on="0"/>
        <pt x="354" y="-240" on="1"/>
        <pt x="419" y="-240" on="1"/>
        <pt x="419" y="-344" on="1"/>
        <pt x="387" y="-358" on="0"/>
        <pt x="325" y="-373" on="0"/>
        <pt x="294" y="-373" on="1"/>
        <pt x="261" y="-373" on="0"/>
        <pt x="192" y="-355" on="0"/>
        <pt x="137" y="-312" on="0"/>
        <pt x="101" y="-241" on="0"/>
        <pt x="101" y="-188" on="1"/>
        <pt x="101" y="-124" on="0"/>
        <pt x="145" y="-35" on="0"/>
        <pt x="177" y="0" on="1"/>
        <pt x="143" y="0" on="1"/>
        <pt x="143" y="1405" on="1"/>
        <pt x="323" y="1405" on="1"/>
      </contour>
    </TTGlyph>
    <TTGlyph name="Itilde" xMin="-65" yMin="0" xMax="533" yMax="1809">
      <contour>
        <pt x="323" y="0" on="1"/>
        <pt x="143" y="0" on="1"/>
        <pt x="143" y="1405" on="1"/>
        <pt x="323" y="1405" on="1"/>
      </contour>
      <contour>
        <pt x="533" y="1809" on="1"/>
        <pt x="533" y="1773" on="0"/>
        <pt x="513" y="1698" on="0"/>
        <pt x="471" y="1636" on="0"/>
        <pt x="405" y="1596" on="0"/>
        <pt x="359" y="1596" on="1"/>
        <pt x="326" y="1596" on="0"/>
        <pt x="266" y="1616" on="0"/>
        <pt x="209" y="1639" on="0"/>
        <pt x="153" y="1659" on="0"/>
        <pt x="123" y="1659" on="1"/>
        <pt x="95" y="1659" on="0"/>
        <pt x="59" y="1631" on="0"/>
        <pt x="54" y="1596" on="1"/>
        <pt x="-65" y="1596" on="1"/>
        <pt x="-65" y="1631" on="0"/>
        <pt x="-45" y="1707" on="0"/>
        <pt x="-3" y="1769" on="0"/>
        <pt x="63" y="1809" on="0"/>
        <pt x="109" y="1809" on="1"/>
        <pt x="142" y="1809" on="0"/>
        <pt x="201" y="1789" on="0"/>
        <pt x="258" y="1766" on="0"/>
        <pt x="314" y="1746" on="0"/>
        <pt x="344" y="1746" on="1"/>
        <pt x="372" y="1746" on="0"/>
        <pt x="409" y="1774" on="0"/>
        <pt x="414" y="1809" on="1"/>
      </contour>
    </TTGlyph>
    <TTGlyph name="J" xMin="26" yMin="-24" xMax="707" yMax="1405">
      <contour>
        <pt x="707" y="334" on="1"/>
        <pt x="707" y="158" on="0"/>
        <pt x="529" y="-24" on="0"/>
        <pt x="367" y="-24" on="1"/>
        <pt x="205" y="-24" on="0"/>
        <pt x="26" y="158" on="0"/>
        <pt x="26" y="334" on="1"/>
        <pt x="26" y="426" on="1"/>
        <pt x="206" y="426" on="1"/>
        <pt x="206" y="323" on="1"/>
        <pt x="206" y="233" on="0"/>
        <pt x="289" y="141" on="0"/>
        <pt x="367" y="141" on="1"/>
        <pt x="444" y="141" on="0"/>
        <pt x="527" y="233" on="0"/>
        <pt x="527" y="323" on="1"/>
        <pt x="527" y="1405" on="1"/>
        <pt x="707" y="1405" on="1"/>
      </contour>
    </TTGlyph>
    <TTGlyph name="Jcircumflex" xMin="26" yMin="-24" xMax="874" yMax="1807">
      <contour>
        <pt x="707" y="334" on="1"/>
        <pt x="707" y="158" on="0"/>
        <pt x="529" y="-24" on="0"/>
        <pt x="367" y="-24" on="1"/>
        <pt x="205" y="-24" on="0"/>
        <pt x="26" y="158" on="0"/>
        <pt x="26" y="334" on="1"/>
        <pt x="26" y="426" on="1"/>
        <pt x="206" y="426" on="1"/>
        <pt x="206" y="323" on="1"/>
        <pt x="206" y="233" on="0"/>
        <pt x="289" y="141" on="0"/>
        <pt x="367" y="141" on="1"/>
        <pt x="444" y="141" on="0"/>
        <pt x="527" y="233" on="0"/>
        <pt x="527" y="323" on="1"/>
        <pt x="527" y="1405" on="1"/>
        <pt x="707" y="1405" on="1"/>
      </contour>
      <contour>
        <pt x="874" y="1530" on="1"/>
        <pt x="710" y="1530" on="1"/>
        <pt x="620" y="1692" on="1"/>
        <pt x="527" y="1530" on="1"/>
        <pt x="363" y="1530" on="1"/>
        <pt x="539" y="1807" on="1"/>
        <pt x="699" y="1807" on="1"/>
      </contour>
    </TTGlyph>
    <TTGlyph name="K" xMin="143" yMin="0" xMax="1096" yMax="1405">
      <contour>
        <pt x="324" y="662" on="1"/>
        <pt x="881" y="1405" on="1"/>
        <pt x="1081" y="1405" on="1"/>
        <pt x="659" y="838" on="1"/>
        <pt x="1096" y="0" on="1"/>
        <pt x="891" y="0" on="1"/>
        <pt x="549" y="686" on="1"/>
        <pt x="324" y="436" on="1"/>
        <pt x="324" y="0" on="1"/>
        <pt x="143" y="0" on="1"/>
        <pt x="143" y="1405" on="1"/>
        <pt x="324" y="1405" on="1"/>
      </contour>
    </TTGlyph>
    <TTGlyph name="Kcommaaccent" xMin="143" yMin="-455" xMax="1096" yMax="1405">
      <contour>
        <pt x="647" y="-295" on="1"/>
        <pt x="588" y="-455" on="1"/>
        <pt x="498" y="-455" on="1"/>
        <pt x="543" y="-309" on="1"/>
        <pt x="473" y="-309" on="1"/>
        <pt x="473" y="-123" on="1"/>
        <pt x="647" y="-123" on="1"/>
      </contour>
      <contour>
        <pt x="324" y="662" on="1"/>
        <pt x="881" y="1405" on="1"/>
        <pt x="1081" y="1405" on="1"/>
        <pt x="659" y="838" on="1"/>
        <pt x="1096" y="0" on="1"/>
        <pt x="891" y="0" on="1"/>
        <pt x="549" y="686" on="1"/>
        <pt x="324" y="436" on="1"/>
        <pt x="324" y="0" on="1"/>
        <pt x="143" y="0" on="1"/>
        <pt x="143" y="1405" on="1"/>
        <pt x="324" y="1405" on="1"/>
      </contour>
    </TTGlyph>
    <TTGlyph name="L" xMin="143" yMin="0" xMax="897" yMax="1405">
      <contour>
        <pt x="143" y="0" on="1"/>
        <pt x="143" y="1405" on="1"/>
        <pt x="324" y="1405" on="1"/>
        <pt x="324" y="164" on="1"/>
        <pt x="897" y="164" on="1"/>
        <pt x="897" y="0" on="1"/>
      </contour>
    </TTGlyph>
    <TTGlyph name="Lacute" xMin="104" yMin="0" xMax="897" yMax="1808">
      <contour>
        <pt x="248" y="1538" on="1"/>
        <pt x="104" y="1538" on="1"/>
        <pt x="281" y="1808" on="1"/>
        <pt x="465" y="1808" on="1"/>
        <pt x="467" y="1802" on="1"/>
      </contour>
      <contour>
        <pt x="143" y="0" on="1"/>
        <pt x="143" y="1405" on="1"/>
        <pt x="324" y="1405" on="1"/>
        <pt x="324" y="164" on="1"/>
        <pt x="897" y="164" on="1"/>
        <pt x="897" y="0" on="1"/>
      </contour>
    </TTGlyph>
    <TTGlyph name="Lcaron" xMin="143" yMin="0" xMax="897" yMax="1405">
      <contour>
        <pt x="858" y="1202" on="1"/>
        <pt x="760" y="930" on="1"/>
        <pt x="653" y="930" on="1"/>
        <pt x="735" y="1184" on="1"/>
        <pt x="653" y="1184" on="1"/>
        <pt x="653" y="1405" on="1"/>
        <pt x="858" y="1405" on="1"/>
      </contour>
      <contour>
        <pt x="143" y="0" on="1"/>
        <pt x="143" y="1405" on="1"/>
        <pt x="324" y="1405" on="1"/>
        <pt x="324" y="164" on="1"/>
        <pt x="897" y="164" on="1"/>
        <pt x="897" y="0" on="1"/>
      </contour>
    </TTGlyph>
    <TTGlyph name="Lcommaaccent" xMin="143" yMin="-455" xMax="897" yMax="1405">
      <contour>
        <pt x="555" y="-295" on="1"/>
        <pt x="496" y="-455" on="1"/>
        <pt x="403" y="-455" on="1"/>
        <pt x="451" y="-309" on="1"/>
        <pt x="381" y="-309" on="1"/>
        <pt x="381" y="-123" on="1"/>
        <pt x="555" y="-123" on="1"/>
      </contour>
      <contour>
        <pt x="143" y="0" on="1"/>
        <pt x="143" y="1405" on="1"/>
        <pt x="324" y="1405" on="1"/>
        <pt x="324" y="164" on="1"/>
        <pt x="897" y="164" on="1"/>
        <pt x="897" y="0" on="1"/>
      </contour>
    </TTGlyph>
    <TTGlyph name="Ldot" xMin="143" yMin="0" xMax="897" yMax="1405">
      <contour>
        <pt x="811" y="848" on="1"/>
        <pt x="604" y="848" on="1"/>
        <pt x="604" y="1075" on="1"/>
        <pt x="811" y="1075" on="1"/>
      </contour>
      <contour>
        <pt x="143" y="0" on="1"/>
        <pt x="143" y="1405" on="1"/>
        <pt x="324" y="1405" on="1"/>
        <pt x="324" y="164" on="1"/>
        <pt x="897" y="164" on="1"/>
        <pt x="897" y="0" on="1"/>
      </contour>
    </TTGlyph>
    <TTGlyph name="Lslash" xMin="0" yMin="0" xMax="897" yMax="1405">
      <contour>
        <pt x="324" y="809" on="1"/>
        <pt x="604" y="1059" on="1"/>
        <pt x="604" y="909" on="1"/>
        <pt x="324" y="662" on="1"/>
        <pt x="324" y="164" on="1"/>
        <pt x="897" y="164" on="1"/>
        <pt x="897" y="0" on="1"/>
        <pt x="143" y="0" on="1"/>
        <pt x="143" y="502" on="1"/>
        <pt x="0" y="377" on="1"/>
        <pt x="0" y="522" on="1"/>
        <pt x="143" y="649" on="1"/>
        <pt x="143" y="1405" on="1"/>
        <pt x="324" y="1405" on="1"/>
      </contour>
    </TTGlyph>
    <TTGlyph name="M" xMin="127" yMin="0" xMax="1272" yMax="1405">
      <contour>
        <pt x="1092" y="0" on="1"/>
        <pt x="1092" y="1020" on="1"/>
        <pt x="1092" y="1038" on="0"/>
        <pt x="1096" y="1111" on="0"/>
        <pt x="1099" y="1147" on="1"/>
        <pt x="1102" y="1189" on="0"/>
        <pt x="1106" y="1237" on="1"/>
        <pt x="1098" y="1237" on="1"/>
        <pt x="1089" y="1189" on="0"/>
        <pt x="1080" y="1147" on="1"/>
        <pt x="1072" y="1111" on="0"/>
        <pt x="1056" y="1038" on="0"/>
        <pt x="1051" y="1020" on="1"/>
        <pt x="770" y="0" on="1"/>
        <pt x="608" y="0" on="1"/>
        <pt x="328" y="1020" on="1"/>
        <pt x="326" y="1027" on="0"/>
        <pt x="320" y="1054" on="0"/>
        <pt x="313" y="1087" on="0"/>
        <pt x="305" y="1125" on="0"/>
        <pt x="302" y="1143" on="1"/>
        <pt x="294" y="1186" on="0"/>
        <pt x="285" y="1237" on="1"/>
        <pt x="276" y="1237" on="1"/>
        <pt x="279" y="1187" on="0"/>
        <pt x="282" y="1144" on="1"/>
        <pt x="284" y="1107" on="0"/>
        <pt x="289" y="1035" on="0"/>
        <pt x="289" y="1020" on="1"/>
        <pt x="289" y="0" on="1"/>
        <pt x="127" y="0" on="1"/>
        <pt x="127" y="1405" on="1"/>
        <pt x="401" y="1405" on="1"/>
        <pt x="649" y="483" on="1"/>
        <pt x="654" y="464" on="0"/>
        <pt x="663" y="416" on="0"/>
        <pt x="672" y="365" on="0"/>
        <pt x="680" y="312" on="0"/>
        <pt x="683" y="287" on="1"/>
        <pt x="690" y="229" on="0"/>
        <pt x="696" y="168" on="1"/>
        <pt x="705" y="168" on="1"/>
        <pt x="710" y="230" on="0"/>
        <pt x="717" y="289" on="1"/>
        <pt x="723" y="339" on="0"/>
        <pt x="739" y="446" on="0"/>
        <pt x="750" y="483" on="1"/>
        <pt x="999" y="1405" on="1"/>
        <pt x="1272" y="1405" on="1"/>
        <pt x="1272" y="0" on="1"/>
      </contour>
    </TTGlyph>
    <TTGlyph name="N" xMin="143" yMin="0" xMax="1069" yMax="1405">
      <contour>
        <pt x="1069" y="0" on="1"/>
        <pt x="919" y="0" on="1"/>
        <pt x="394" y="895" on="1"/>
        <pt x="380" y="918" on="0"/>
        <pt x="349" y="981" on="0"/>
        <pt x="335" y="1011" on="1"/>
        <pt x="319" y="1045" on="0"/>
        <pt x="303" y="1083" on="1"/>
        <pt x="297" y="1081" on="1"/>
        <pt x="299" y="1044" on="0"/>
        <pt x="301" y="1010" on="1"/>
        <pt x="303" y="981" on="0"/>
        <pt x="305" y="917" on="0"/>
        <pt x="305" y="895" on="1"/>
        <pt x="305" y="0" on="1"/>
        <pt x="143" y="0" on="1"/>
        <pt x="143" y="1405" on="1"/>
        <pt x="299" y="1405" on="1"/>
        <pt x="822" y="523" on="1"/>
        <pt x="833" y="503" on="0"/>
        <pt x="862" y="438" on="0"/>
        <pt x="876" y="408" on="1"/>
        <pt x="891" y="372" on="0"/>
        <pt x="907" y="334" on="1"/>
        <pt x="913" y="336" on="1"/>
        <pt x="911" y="376" on="0"/>
        <pt x="910" y="412" on="1"/>
        <pt x="908" y="443" on="0"/>
        <pt x="907" y="506" on="0"/>
        <pt x="907" y="523" on="1"/>
        <pt x="907" y="1405" on="1"/>
        <pt x="1069" y="1405" on="1"/>
      </contour>
    </TTGlyph>
    <TTGlyph name="Nacute" xMin="143" yMin="0" xMax="1069" yMax="1809">
      <contour>
        <pt x="919" y="0" on="1"/>
        <pt x="394" y="895" on="1"/>
        <pt x="380" y="918" on="0"/>
        <pt x="349" y="981" on="0"/>
        <pt x="335" y="1011" on="1"/>
        <pt x="319" y="1045" on="0"/>
        <pt x="303" y="1083" on="1"/>
        <pt x="297" y="1081" on="1"/>
        <pt x="299" y="1044" on="0"/>
        <pt x="301" y="1010" on="1"/>
        <pt x="303" y="981" on="0"/>
        <pt x="305" y="917" on="0"/>
        <pt x="305" y="895" on="1"/>
        <pt x="305" y="0" on="1"/>
        <pt x="143" y="0" on="1"/>
        <pt x="143" y="1405" on="1"/>
        <pt x="299" y="1405" on="1"/>
        <pt x="822" y="523" on="1"/>
        <pt x="833" y="503" on="0"/>
        <pt x="862" y="438" on="0"/>
        <pt x="876" y="408" on="1"/>
        <pt x="891" y="372" on="0"/>
        <pt x="907" y="334" on="1"/>
        <pt x="913" y="336" on="1"/>
        <pt x="911" y="376" on="0"/>
        <pt x="910" y="412" on="1"/>
        <pt x="908" y="443" on="0"/>
        <pt x="907" y="506" on="0"/>
        <pt x="907" y="523" on="1"/>
        <pt x="907" y="1405" on="1"/>
        <pt x="1069" y="1405" on="1"/>
        <pt x="1069" y="0" on="1"/>
      </contour>
      <contour>
        <pt x="626" y="1538" on="1"/>
        <pt x="484" y="1538" on="1"/>
        <pt x="660" y="1809" on="1"/>
        <pt x="844" y="1809" on="1"/>
        <pt x="846" y="1802" on="1"/>
      </contour>
    </TTGlyph>
    <TTGlyph name="Ncaron" xMin="143" yMin="0" xMax="1069" yMax="1809">
      <contour>
        <pt x="1069" y="0" on="1"/>
        <pt x="919" y="0" on="1"/>
        <pt x="394" y="895" on="1"/>
        <pt x="380" y="918" on="0"/>
        <pt x="349" y="981" on="0"/>
        <pt x="335" y="1011" on="1"/>
        <pt x="319" y="1045" on="0"/>
        <pt x="303" y="1083" on="1"/>
        <pt x="297" y="1081" on="1"/>
        <pt x="299" y="1044" on="0"/>
        <pt x="301" y="1010" on="1"/>
        <pt x="303" y="981" on="0"/>
        <pt x="305" y="917" on="0"/>
        <pt x="305" y="895" on="1"/>
        <pt x="305" y="0" on="1"/>
        <pt x="143" y="0" on="1"/>
        <pt x="143" y="1405" on="1"/>
        <pt x="299" y="1405" on="1"/>
        <pt x="822" y="523" on="1"/>
        <pt x="833" y="503" on="0"/>
        <pt x="862" y="438" on="0"/>
        <pt x="876" y="408" on="1"/>
        <pt x="891" y="372" on="0"/>
        <pt x="907" y="334" on="1"/>
        <pt x="913" y="336" on="1"/>
        <pt x="911" y="376" on="0"/>
        <pt x="910" y="412" on="1"/>
        <pt x="908" y="443" on="0"/>
        <pt x="907" y="506" on="0"/>
        <pt x="907" y="523" on="1"/>
        <pt x="907" y="1405" on="1"/>
        <pt x="1069" y="1405" on="1"/>
      </contour>
      <contour>
        <pt x="685" y="1532" on="1"/>
        <pt x="525" y="1532" on="1"/>
        <pt x="351" y="1809" on="1"/>
        <pt x="515" y="1809" on="1"/>
        <pt x="606" y="1647" on="1"/>
        <pt x="698" y="1809" on="1"/>
        <pt x="862" y="1809" on="1"/>
      </contour>
    </TTGlyph>
    <TTGlyph name="Ncommaaccent" xMin="143" yMin="-454" xMax="1069" yMax="1405">
      <contour>
        <pt x="1069" y="0" on="1"/>
        <pt x="919" y="0" on="1"/>
        <pt x="394" y="895" on="1"/>
        <pt x="380" y="918" on="0"/>
        <pt x="349" y="981" on="0"/>
        <pt x="335" y="1011" on="1"/>
        <pt x="319" y="1045" on="0"/>
        <pt x="303" y="1083" on="1"/>
        <pt x="297" y="1081" on="1"/>
        <pt x="299" y="1044" on="0"/>
        <pt x="301" y="1010" on="1"/>
        <pt x="303" y="981" on="0"/>
        <pt x="305" y="917" on="0"/>
        <pt x="305" y="895" on="1"/>
        <pt x="305" y="0" on="1"/>
        <pt x="143" y="0" on="1"/>
        <pt x="143" y="1405" on="1"/>
        <pt x="299" y="1405" on="1"/>
        <pt x="822" y="523" on="1"/>
        <pt x="833" y="503" on="0"/>
        <pt x="862" y="438" on="0"/>
        <pt x="876" y="408" on="1"/>
        <pt x="891" y="372" on="0"/>
        <pt x="907" y="334" on="1"/>
        <pt x="913" y="336" on="1"/>
        <pt x="911" y="376" on="0"/>
        <pt x="910" y="412" on="1"/>
        <pt x="908" y="443" on="0"/>
        <pt x="907" y="506" on="0"/>
        <pt x="907" y="523" on="1"/>
        <pt x="907" y="1405" on="1"/>
        <pt x="1069" y="1405" on="1"/>
      </contour>
      <contour>
        <pt x="694" y="-295" on="1"/>
        <pt x="634" y="-454" on="1"/>
        <pt x="543" y="-454" on="1"/>
        <pt x="589" y="-309" on="1"/>
        <pt x="519" y="-309" on="1"/>
        <pt x="519" y="-123" on="1"/>
        <pt x="694" y="-123" on="1"/>
      </contour>
    </TTGlyph>
    <TTGlyph name="Ntilde" xMin="143" yMin="0" xMax="1069" yMax="1809">
      <contour>
        <pt x="1069" y="0" on="1"/>
        <pt x="919" y="0" on="1"/>
        <pt x="394" y="895" on="1"/>
        <pt x="380" y="918" on="0"/>
        <pt x="349" y="981" on="0"/>
        <pt x="335" y="1011" on="1"/>
        <pt x="319" y="1045" on="0"/>
        <pt x="303" y="1083" on="1"/>
        <pt x="297" y="1081" on="1"/>
        <pt x="299" y="1044" on="0"/>
        <pt x="301" y="1010" on="1"/>
        <pt x="303" y="981" on="0"/>
        <pt x="305" y="917" on="0"/>
        <pt x="305" y="895" on="1"/>
        <pt x="305" y="0" on="1"/>
        <pt x="143" y="0" on="1"/>
        <pt x="143" y="1405" on="1"/>
        <pt x="299" y="1405" on="1"/>
        <pt x="822" y="523" on="1"/>
        <pt x="833" y="503" on="0"/>
        <pt x="862" y="438" on="0"/>
        <pt x="876" y="408" on="1"/>
        <pt x="891" y="372" on="0"/>
        <pt x="907" y="334" on="1"/>
        <pt x="913" y="336" on="1"/>
        <pt x="911" y="376" on="0"/>
        <pt x="910" y="412" on="1"/>
        <pt x="908" y="443" on="0"/>
        <pt x="907" y="506" on="0"/>
        <pt x="907" y="523" on="1"/>
        <pt x="907" y="1405" on="1"/>
        <pt x="1069" y="1405" on="1"/>
      </contour>
      <contour>
        <pt x="905" y="1809" on="1"/>
        <pt x="905" y="1773" on="0"/>
        <pt x="885" y="1698" on="0"/>
        <pt x="843" y="1636" on="0"/>
        <pt x="777" y="1596" on="0"/>
        <pt x="731" y="1596" on="1"/>
        <pt x="698" y="1596" on="0"/>
        <pt x="638" y="1616" on="0"/>
        <pt x="581" y="1639" on="0"/>
        <pt x="525" y="1659" on="0"/>
        <pt x="495" y="1659" on="1"/>
        <pt x="467" y="1659" on="0"/>
        <pt x="431" y="1631" on="0"/>
        <pt x="426" y="1596" on="1"/>
        <pt x="307" y="1596" on="1"/>
        <pt x="307" y="1631" on="0"/>
        <pt x="327" y="1707" on="0"/>
        <pt x="369" y="1769" on="0"/>
        <pt x="435" y="1809" on="0"/>
        <pt x="481" y="1809" on="1"/>
        <pt x="514" y="1809" on="0"/>
        <pt x="573" y="1789" on="0"/>
        <pt x="630" y="1766" on="0"/>
        <pt x="686" y="1746" on="0"/>
        <pt x="716" y="1746" on="1"/>
        <pt x="744" y="1746" on="0"/>
        <pt x="781" y="1774" on="0"/>
        <pt x="786" y="1809" on="1"/>
      </contour>
    </TTGlyph>
    <TTGlyph name="O" xMin="101" yMin="-24" xMax="1206" yMax="1430">
      <contour>
        <pt x="653" y="1430" on="1"/>
        <pt x="782" y="1430" on="0"/>
        <pt x="988" y="1340" on="0"/>
        <pt x="1130" y="1158" on="0"/>
        <pt x="1206" y="886" on="0"/>
        <pt x="1206" y="703" on="1"/>
        <pt x="1206" y="520" on="0"/>
        <pt x="1130" y="247" on="0"/>
        <pt x="988" y="66" on="0"/>
        <pt x="782" y="-24" on="0"/>
        <pt x="653" y="-24" on="1"/>
        <pt x="524" y="-24" on="0"/>
        <pt x="319" y="66" on="0"/>
        <pt x="177" y="247" on="0"/>
        <pt x="101" y="520" on="0"/>
        <pt x="101" y="703" on="1"/>
        <pt x="101" y="886" on="0"/>
        <pt x="177" y="1158" on="0"/>
        <pt x="319" y="1340" on="0"/>
        <pt x="524" y="1430" on="0"/>
      </contour>
      <contour>
        <pt x="653" y="1264" on="1"/>
        <pt x="569" y="1264" on="0"/>
        <pt x="434" y="1201" on="0"/>
        <pt x="339" y="1073" on="0"/>
        <pt x="289" y="882" on="0"/>
        <pt x="289" y="754" on="1"/>
        <pt x="289" y="651" on="1"/>
        <pt x="289" y="523" on="0"/>
        <pt x="339" y="331" on="0"/>
        <pt x="434" y="204" on="0"/>
        <pt x="569" y="141" on="0"/>
        <pt x="653" y="141" on="1"/>
        <pt x="738" y="141" on="0"/>
        <pt x="873" y="204" on="0"/>
        <pt x="967" y="331" on="0"/>
        <pt x="1018" y="523" on="0"/>
        <pt x="1018" y="651" on="1"/>
        <pt x="1018" y="754" on="1"/>
        <pt x="1018" y="882" on="0"/>
        <pt x="967" y="1073" on="0"/>
        <pt x="873" y="1201" on="0"/>
        <pt x="738" y="1264" on="0"/>
      </contour>
    </TTGlyph>
    <TTGlyph name="OE" xMin="100" yMin="-25" xMax="1606" yMax="1430">
      <contour>
        <pt x="870" y="0" on="1"/>
        <pt x="870" y="139" on="1"/>
        <pt x="758" y="-25" on="0"/>
        <pt x="559" y="-25" on="1"/>
        <pt x="451" y="-25" on="0"/>
        <pt x="280" y="65" on="0"/>
        <pt x="162" y="247" on="0"/>
        <pt x="100" y="519" on="0"/>
        <pt x="100" y="702" on="1"/>
        <pt x="100" y="885" on="0"/>
        <pt x="162" y="1158" on="0"/>
        <pt x="280" y="1340" on="0"/>
        <pt x="451" y="1430" on="0"/>
        <pt x="559" y="1430" on="1"/>
        <pt x="756" y="1430" on="0"/>
        <pt x="870" y="1266" on="1"/>
        <pt x="870" y="1405" on="1"/>
        <pt x="1593" y="1405" on="1"/>
        <pt x="1593" y="1241" on="1"/>
        <pt x="1051" y="1241" on="1"/>
        <pt x="1051" y="801" on="1"/>
        <pt x="1501" y="801" on="1"/>
        <pt x="1501" y="637" on="1"/>
        <pt x="1051" y="637" on="1"/>
        <pt x="1051" y="164" on="1"/>
        <pt x="1606" y="164" on="1"/>
        <pt x="1606" y="0" on="1"/>
      </contour>
      <contour>
        <pt x="289" y="651" on="1"/>
        <pt x="289" y="394" on="0"/>
        <pt x="444" y="141" on="0"/>
        <pt x="580" y="141" on="1"/>
        <pt x="715" y="141" on="0"/>
        <pt x="870" y="394" on="0"/>
        <pt x="870" y="651" on="1"/>
        <pt x="870" y="754" on="1"/>
        <pt x="870" y="1010" on="0"/>
        <pt x="715" y="1264" on="0"/>
        <pt x="580" y="1264" on="1"/>
        <pt x="444" y="1264" on="0"/>
        <pt x="289" y="1010" on="0"/>
        <pt x="289" y="754" on="1"/>
      </contour>
    </TTGlyph>
    <TTGlyph name="Oacute" xMin="101" yMin="-24" xMax="1206" yMax="1809">
      <contour>
        <pt x="653" y="1430" on="1"/>
        <pt x="782" y="1430" on="0"/>
        <pt x="988" y="1340" on="0"/>
        <pt x="1130" y="1158" on="0"/>
        <pt x="1206" y="886" on="0"/>
        <pt x="1206" y="703" on="1"/>
        <pt x="1206" y="520" on="0"/>
        <pt x="1130" y="247" on="0"/>
        <pt x="988" y="66" on="0"/>
        <pt x="782" y="-24" on="0"/>
        <pt x="653" y="-24" on="1"/>
        <pt x="524" y="-24" on="0"/>
        <pt x="319" y="66" on="0"/>
        <pt x="177" y="247" on="0"/>
        <pt x="101" y="520" on="0"/>
        <pt x="101" y="703" on="1"/>
        <pt x="101" y="886" on="0"/>
        <pt x="177" y="1158" on="0"/>
        <pt x="319" y="1340" on="0"/>
        <pt x="524" y="1430" on="0"/>
      </contour>
      <contour>
        <pt x="653" y="1264" on="1"/>
        <pt x="569" y="1264" on="0"/>
        <pt x="434" y="1201" on="0"/>
        <pt x="339" y="1073" on="0"/>
        <pt x="289" y="882" on="0"/>
        <pt x="289" y="754" on="1"/>
        <pt x="289" y="651" on="1"/>
        <pt x="289" y="523" on="0"/>
        <pt x="339" y="331" on="0"/>
        <pt x="434" y="204" on="0"/>
        <pt x="569" y="141" on="0"/>
        <pt x="653" y="141" on="1"/>
        <pt x="738" y="141" on="0"/>
        <pt x="873" y="204" on="0"/>
        <pt x="967" y="331" on="0"/>
        <pt x="1018" y="523" on="0"/>
        <pt x="1018" y="651" on="1"/>
        <pt x="1018" y="754" on="1"/>
        <pt x="1018" y="882" on="0"/>
        <pt x="967" y="1073" on="0"/>
        <pt x="873" y="1201" on="0"/>
        <pt x="738" y="1264" on="0"/>
      </contour>
      <contour>
        <pt x="674" y="1538" on="1"/>
        <pt x="532" y="1538" on="1"/>
        <pt x="708" y="1809" on="1"/>
        <pt x="892" y="1809" on="1"/>
        <pt x="894" y="1802" on="1"/>
      </contour>
    </TTGlyph>
    <TTGlyph name="Obreve" xMin="101" yMin="-24" xMax="1206" yMax="1809">
      <contour>
        <pt x="653" y="1430" on="1"/>
        <pt x="782" y="1430" on="0"/>
        <pt x="988" y="1340" on="0"/>
        <pt x="1130" y="1158" on="0"/>
        <pt x="1206" y="886" on="0"/>
        <pt x="1206" y="703" on="1"/>
        <pt x="1206" y="520" on="0"/>
        <pt x="1130" y="247" on="0"/>
        <pt x="988" y="66" on="0"/>
        <pt x="782" y="-24" on="0"/>
        <pt x="653" y="-24" on="1"/>
        <pt x="524" y="-24" on="0"/>
        <pt x="319" y="66" on="0"/>
        <pt x="177" y="247" on="0"/>
        <pt x="101" y="520" on="0"/>
        <pt x="101" y="703" on="1"/>
        <pt x="101" y="886" on="0"/>
        <pt x="177" y="1158" on="0"/>
        <pt x="319" y="1340" on="0"/>
        <pt x="524" y="1430" on="0"/>
      </contour>
      <contour>
        <pt x="653" y="1264" on="1"/>
        <pt x="569" y="1264" on="0"/>
        <pt x="434" y="1201" on="0"/>
        <pt x="339" y="1073" on="0"/>
        <pt x="289" y="882" on="0"/>
        <pt x="289" y="754" on="1"/>
        <pt x="289" y="651" on="1"/>
        <pt x="289" y="523" on="0"/>
        <pt x="339" y="331" on="0"/>
        <pt x="434" y="204" on="0"/>
        <pt x="569" y="141" on="0"/>
        <pt x="653" y="141" on="1"/>
        <pt x="738" y="141" on="0"/>
        <pt x="873" y="204" on="0"/>
        <pt x="967" y="331" on="0"/>
        <pt x="1018" y="523" on="0"/>
        <pt x="1018" y="651" on="1"/>
        <pt x="1018" y="754" on="1"/>
        <pt x="1018" y="882" on="0"/>
        <pt x="967" y="1073" on="0"/>
        <pt x="873" y="1201" on="0"/>
        <pt x="738" y="1264" on="0"/>
      </contour>
      <contour>
        <pt x="908" y="1809" on="1"/>
        <pt x="908" y="1774" on="0"/>
        <pt x="873" y="1703" on="0"/>
        <pt x="807" y="1646" on="0"/>
        <pt x="713" y="1610" on="0"/>
        <pt x="654" y="1610" on="1"/>
        <pt x="595" y="1610" on="0"/>
        <pt x="502" y="1646" on="0"/>
        <pt x="436" y="1703" on="0"/>
        <pt x="401" y="1774" on="0"/>
        <pt x="401" y="1809" on="1"/>
        <pt x="533" y="1809" on="1"/>
        <pt x="535" y="1798" on="0"/>
        <pt x="554" y="1774" on="0"/>
        <pt x="586" y="1754" on="0"/>
        <pt x="628" y="1741" on="0"/>
        <pt x="654" y="1741" on="1"/>
        <pt x="680" y="1741" on="0"/>
        <pt x="724" y="1754" on="0"/>
        <pt x="756" y="1774" on="0"/>
        <pt x="775" y="1798" on="0"/>
        <pt x="777" y="1809" on="1"/>
      </contour>
    </TTGlyph>
    <TTGlyph name="Ocircumflex" xMin="101" yMin="-24" xMax="1206" yMax="1807">
      <contour>
        <pt x="653" y="1430" on="1"/>
        <pt x="782" y="1430" on="0"/>
        <pt x="988" y="1340" on="0"/>
        <pt x="1130" y="1158" on="0"/>
        <pt x="1206" y="886" on="0"/>
        <pt x="1206" y="703" on="1"/>
        <pt x="1206" y="520" on="0"/>
        <pt x="1130" y="247" on="0"/>
        <pt x="988" y="66" on="0"/>
        <pt x="782" y="-24" on="0"/>
        <pt x="653" y="-24" on="1"/>
        <pt x="524" y="-24" on="0"/>
        <pt x="319" y="66" on="0"/>
        <pt x="177" y="247" on="0"/>
        <pt x="101" y="520" on="0"/>
        <pt x="101" y="703" on="1"/>
        <pt x="101" y="886" on="0"/>
        <pt x="177" y="1158" on="0"/>
        <pt x="319" y="1340" on="0"/>
        <pt x="524" y="1430" on="0"/>
      </contour>
      <contour>
        <pt x="653" y="1264" on="1"/>
        <pt x="569" y="1264" on="0"/>
        <pt x="434" y="1201" on="0"/>
        <pt x="339" y="1073" on="0"/>
        <pt x="289" y="882" on="0"/>
        <pt x="289" y="754" on="1"/>
        <pt x="289" y="651" on="1"/>
        <pt x="289" y="523" on="0"/>
        <pt x="339" y="331" on="0"/>
        <pt x="434" y="204" on="0"/>
        <pt x="569" y="141" on="0"/>
        <pt x="653" y="141" on="1"/>
        <pt x="738" y="141" on="0"/>
        <pt x="873" y="204" on="0"/>
        <pt x="967" y="331" on="0"/>
        <pt x="1018" y="523" on="0"/>
        <pt x="1018" y="651" on="1"/>
        <pt x="1018" y="754" on="1"/>
        <pt x="1018" y="882" on="0"/>
        <pt x="967" y="1073" on="0"/>
        <pt x="873" y="1201" on="0"/>
        <pt x="738" y="1264" on="0"/>
      </contour>
      <contour>
        <pt x="910" y="1530" on="1"/>
        <pt x="746" y="1530" on="1"/>
        <pt x="656" y="1692" on="1"/>
        <pt x="563" y="1530" on="1"/>
        <pt x="399" y="1530" on="1"/>
        <pt x="575" y="1807" on="1"/>
        <pt x="735" y="1807" on="1"/>
      </contour>
    </TTGlyph>
    <TTGlyph name="Odieresis" xMin="101" yMin="-24" xMax="1206" yMax="1809">
      <contour>
        <pt x="653" y="1430" on="1"/>
        <pt x="782" y="1430" on="0"/>
        <pt x="988" y="1340" on="0"/>
        <pt x="1130" y="1158" on="0"/>
        <pt x="1206" y="886" on="0"/>
        <pt x="1206" y="703" on="1"/>
        <pt x="1206" y="520" on="0"/>
        <pt x="1130" y="247" on="0"/>
        <pt x="988" y="66" on="0"/>
        <pt x="782" y="-24" on="0"/>
        <pt x="653" y="-24" on="1"/>
        <pt x="524" y="-24" on="0"/>
        <pt x="319" y="66" on="0"/>
        <pt x="177" y="247" on="0"/>
        <pt x="101" y="520" on="0"/>
        <pt x="101" y="703" on="1"/>
        <pt x="101" y="886" on="0"/>
        <pt x="177" y="1158" on="0"/>
        <pt x="319" y="1340" on="0"/>
        <pt x="524" y="1430" on="0"/>
      </contour>
      <contour>
        <pt x="653" y="1264" on="1"/>
        <pt x="569" y="1264" on="0"/>
        <pt x="434" y="1201" on="0"/>
        <pt x="339" y="1073" on="0"/>
        <pt x="289" y="882" on="0"/>
        <pt x="289" y="754" on="1"/>
        <pt x="289" y="651" on="1"/>
        <pt x="289" y="523" on="0"/>
        <pt x="339" y="331" on="0"/>
        <pt x="434" y="204" on="0"/>
        <pt x="569" y="141" on="0"/>
        <pt x="653" y="141" on="1"/>
        <pt x="738" y="141" on="0"/>
        <pt x="873" y="204" on="0"/>
        <pt x="967" y="331" on="0"/>
        <pt x="1018" y="523" on="0"/>
        <pt x="1018" y="651" on="1"/>
        <pt x="1018" y="754" on="1"/>
        <pt x="1018" y="882" on="0"/>
        <pt x="967" y="1073" on="0"/>
        <pt x="873" y="1201" on="0"/>
        <pt x="738" y="1264" on="0"/>
      </contour>
      <contour>
        <pt x="897" y="1614" on="1"/>
        <pt x="718" y="1614" on="1"/>
        <pt x="718" y="1809" on="1"/>
        <pt x="897" y="1809" on="1"/>
      </contour>
      <contour>
        <pt x="589" y="1614" on="1"/>
        <pt x="411" y="1614" on="1"/>
        <pt x="411" y="1809" on="1"/>
        <pt x="589" y="1809" on="1"/>
      </contour>
    </TTGlyph>
    <TTGlyph name="Ograve" xMin="101" yMin="-24" xMax="1206" yMax="1809">
      <contour>
        <pt x="653" y="1430" on="1"/>
        <pt x="782" y="1430" on="0"/>
        <pt x="988" y="1340" on="0"/>
        <pt x="1130" y="1158" on="0"/>
        <pt x="1206" y="886" on="0"/>
        <pt x="1206" y="703" on="1"/>
        <pt x="1206" y="520" on="0"/>
        <pt x="1130" y="247" on="0"/>
        <pt x="988" y="66" on="0"/>
        <pt x="782" y="-24" on="0"/>
        <pt x="653" y="-24" on="1"/>
        <pt x="524" y="-24" on="0"/>
        <pt x="319" y="66" on="0"/>
        <pt x="177" y="247" on="0"/>
        <pt x="101" y="520" on="0"/>
        <pt x="101" y="703" on="1"/>
        <pt x="101" y="886" on="0"/>
        <pt x="177" y="1158" on="0"/>
        <pt x="319" y="1340" on="0"/>
        <pt x="524" y="1430" on="0"/>
      </contour>
      <contour>
        <pt x="653" y="1264" on="1"/>
        <pt x="569" y="1264" on="0"/>
        <pt x="434" y="1201" on="0"/>
        <pt x="339" y="1073" on="0"/>
        <pt x="289" y="882" on="0"/>
        <pt x="289" y="754" on="1"/>
        <pt x="289" y="651" on="1"/>
        <pt x="289" y="523" on="0"/>
        <pt x="339" y="331" on="0"/>
        <pt x="434" y="204" on="0"/>
        <pt x="569" y="141" on="0"/>
        <pt x="653" y="141" on="1"/>
        <pt x="738" y="141" on="0"/>
        <pt x="873" y="204" on="0"/>
        <pt x="967" y="331" on="0"/>
        <pt x="1018" y="523" on="0"/>
        <pt x="1018" y="651" on="1"/>
        <pt x="1018" y="754" on="1"/>
        <pt x="1018" y="882" on="0"/>
        <pt x="967" y="1073" on="0"/>
        <pt x="873" y="1201" on="0"/>
        <pt x="738" y="1264" on="0"/>
      </contour>
      <contour>
        <pt x="635" y="1538" on="1"/>
        <pt x="413" y="1802" on="1"/>
        <pt x="415" y="1809" on="1"/>
        <pt x="600" y="1809" on="1"/>
        <pt x="776" y="1538" on="1"/>
      </contour>
    </TTGlyph>
    <TTGlyph name="Ohungarumlaut" xMin="101" yMin="-24" xMax="1206" yMax="1809">
      <contour>
        <pt x="653" y="1430" on="1"/>
        <pt x="782" y="1430" on="0"/>
        <pt x="988" y="1340" on="0"/>
        <pt x="1130" y="1158" on="0"/>
        <pt x="1206" y="886" on="0"/>
        <pt x="1206" y="703" on="1"/>
        <pt x="1206" y="520" on="0"/>
        <pt x="1130" y="247" on="0"/>
        <pt x="988" y="66" on="0"/>
        <pt x="782" y="-24" on="0"/>
        <pt x="653" y="-24" on="1"/>
        <pt x="524" y="-24" on="0"/>
        <pt x="319" y="66" on="0"/>
        <pt x="177" y="247" on="0"/>
        <pt x="101" y="520" on="0"/>
        <pt x="101" y="703" on="1"/>
        <pt x="101" y="886" on="0"/>
        <pt x="177" y="1158" on="0"/>
        <pt x="319" y="1340" on="0"/>
        <pt x="524" y="1430" on="0"/>
      </contour>
      <contour>
        <pt x="653" y="1264" on="1"/>
        <pt x="569" y="1264" on="0"/>
        <pt x="434" y="1201" on="0"/>
        <pt x="339" y="1073" on="0"/>
        <pt x="289" y="882" on="0"/>
        <pt x="289" y="754" on="1"/>
        <pt x="289" y="651" on="1"/>
        <pt x="289" y="523" on="0"/>
        <pt x="339" y="331" on="0"/>
        <pt x="434" y="204" on="0"/>
        <pt x="569" y="141" on="0"/>
        <pt x="653" y="141" on="1"/>
        <pt x="738" y="141" on="0"/>
        <pt x="873" y="204" on="0"/>
        <pt x="967" y="331" on="0"/>
        <pt x="1018" y="523" on="0"/>
        <pt x="1018" y="651" on="1"/>
        <pt x="1018" y="754" on="1"/>
        <pt x="1018" y="882" on="0"/>
        <pt x="967" y="1073" on="0"/>
        <pt x="873" y="1201" on="0"/>
        <pt x="738" y="1264" on="0"/>
      </contour>
      <contour>
        <pt x="1038" y="1802" on="1"/>
        <pt x="866" y="1538" on="1"/>
        <pt x="725" y="1538" on="1"/>
        <pt x="852" y="1809" on="1"/>
        <pt x="1036" y="1809" on="1"/>
      </contour>
      <contour>
        <pt x="771" y="1802" on="1"/>
        <pt x="599" y="1538" on="1"/>
        <pt x="458" y="1538" on="1"/>
        <pt x="585" y="1809" on="1"/>
        <pt x="769" y="1809" on="1"/>
      </contour>
    </TTGlyph>
    <TTGlyph name="Omacron" xMin="101" yMin="-24" xMax="1206" yMax="1702">
      <contour>
        <pt x="653" y="1430" on="1"/>
        <pt x="782" y="1430" on="0"/>
        <pt x="988" y="1340" on="0"/>
        <pt x="1130" y="1158" on="0"/>
        <pt x="1206" y="886" on="0"/>
        <pt x="1206" y="703" on="1"/>
        <pt x="1206" y="520" on="0"/>
        <pt x="1130" y="247" on="0"/>
        <pt x="988" y="66" on="0"/>
        <pt x="782" y="-24" on="0"/>
        <pt x="653" y="-24" on="1"/>
        <pt x="524" y="-24" on="0"/>
        <pt x="319" y="66" on="0"/>
        <pt x="177" y="247" on="0"/>
        <pt x="101" y="520" on="0"/>
        <pt x="101" y="703" on="1"/>
        <pt x="101" y="886" on="0"/>
        <pt x="177" y="1158" on="0"/>
        <pt x="319" y="1340" on="0"/>
        <pt x="524" y="1430" on="0"/>
      </contour>
      <contour>
        <pt x="653" y="1264" on="1"/>
        <pt x="569" y="1264" on="0"/>
        <pt x="434" y="1201" on="0"/>
        <pt x="339" y="1073" on="0"/>
        <pt x="289" y="882" on="0"/>
        <pt x="289" y="754" on="1"/>
        <pt x="289" y="651" on="1"/>
        <pt x="289" y="523" on="0"/>
        <pt x="339" y="331" on="0"/>
        <pt x="434" y="204" on="0"/>
        <pt x="569" y="141" on="0"/>
        <pt x="653" y="141" on="1"/>
        <pt x="738" y="141" on="0"/>
        <pt x="873" y="204" on="0"/>
        <pt x="967" y="331" on="0"/>
        <pt x="1018" y="523" on="0"/>
        <pt x="1018" y="651" on="1"/>
        <pt x="1018" y="754" on="1"/>
        <pt x="1018" y="882" on="0"/>
        <pt x="967" y="1073" on="0"/>
        <pt x="873" y="1201" on="0"/>
        <pt x="738" y="1264" on="0"/>
      </contour>
      <contour>
        <pt x="911" y="1554" on="1"/>
        <pt x="398" y="1554" on="1"/>
        <pt x="398" y="1702" on="1"/>
        <pt x="911" y="1702" on="1"/>
      </contour>
    </TTGlyph>
    <TTGlyph name="Omega" xMin="234" yMin="0" xMax="1339" yMax="1430">
      <contour>
        <pt x="786" y="1430" on="1"/>
        <pt x="915" y="1430" on="0"/>
        <pt x="1121" y="1340" on="0"/>
        <pt x="1263" y="1158" on="0"/>
        <pt x="1339" y="886" on="0"/>
        <pt x="1339" y="703" on="1"/>
        <pt x="1339" y="522" on="0"/>
        <pt x="1240" y="255" on="0"/>
        <pt x="1149" y="164" on="1"/>
        <pt x="1183" y="166" on="0"/>
        <pt x="1250" y="172" on="0"/>
        <pt x="1288" y="172" on="1"/>
        <pt x="1339" y="172" on="1"/>
        <pt x="1339" y="0" on="1"/>
        <pt x="852" y="0" on="1"/>
        <pt x="852" y="125" on="1"/>
        <pt x="922" y="140" on="0"/>
        <pt x="1033" y="215" on="0"/>
        <pt x="1110" y="337" on="0"/>
        <pt x="1151" y="507" on="0"/>
        <pt x="1151" y="616" on="1"/>
        <pt x="1151" y="754" on="1"/>
        <pt x="1151" y="882" on="0"/>
        <pt x="1100" y="1073" on="0"/>
        <pt x="1006" y="1201" on="0"/>
        <pt x="871" y="1264" on="0"/>
        <pt x="786" y="1264" on="1"/>
        <pt x="702" y="1264" on="0"/>
        <pt x="567" y="1201" on="0"/>
        <pt x="472" y="1073" on="0"/>
        <pt x="422" y="882" on="0"/>
        <pt x="422" y="754" on="1"/>
        <pt x="422" y="624" on="1"/>
        <pt x="422" y="405" on="0"/>
        <pt x="581" y="156" on="0"/>
        <pt x="719" y="125" on="1"/>
        <pt x="719" y="0" on="1"/>
        <pt x="234" y="0" on="1"/>
        <pt x="234" y="172" on="1"/>
        <pt x="285" y="172" on="1"/>
        <pt x="309" y="172" on="0"/>
        <pt x="378" y="166" on="0"/>
        <pt x="422" y="164" on="1"/>
        <pt x="331" y="255" on="0"/>
        <pt x="234" y="522" on="0"/>
        <pt x="234" y="703" on="1"/>
        <pt x="234" y="886" on="0"/>
        <pt x="310" y="1158" on="0"/>
        <pt x="452" y="1340" on="0"/>
        <pt x="657" y="1430" on="0"/>
      </contour>
    </TTGlyph>
    <TTGlyph name="Oslash" xMin="101" yMin="-76" xMax="1206" yMax="1481">
      <contour>
        <pt x="1059" y="1248" on="1"/>
        <pt x="1130" y="1157" on="0"/>
        <pt x="1206" y="885" on="0"/>
        <pt x="1206" y="703" on="1"/>
        <pt x="1206" y="520" on="0"/>
        <pt x="1130" y="247" on="0"/>
        <pt x="988" y="66" on="0"/>
        <pt x="782" y="-24" on="0"/>
        <pt x="653" y="-24" on="1"/>
        <pt x="556" y="-24" on="0"/>
        <pt x="393" y="25" on="0"/>
        <pt x="327" y="76" on="1"/>
        <pt x="234" y="-76" on="1"/>
        <pt x="103" y="-76" on="1"/>
        <pt x="248" y="156" on="1"/>
        <pt x="176" y="247" on="0"/>
        <pt x="101" y="519" on="0"/>
        <pt x="101" y="703" on="1"/>
        <pt x="101" y="886" on="0"/>
        <pt x="177" y="1158" on="0"/>
        <pt x="319" y="1340" on="0"/>
        <pt x="524" y="1430" on="0"/>
        <pt x="653" y="1430" on="1"/>
        <pt x="849" y="1430" on="0"/>
        <pt x="979" y="1327" on="1"/>
        <pt x="1075" y="1481" on="1"/>
        <pt x="1206" y="1481" on="1"/>
      </contour>
      <contour>
        <pt x="422" y="228" on="1"/>
        <pt x="510" y="141" on="0"/>
        <pt x="653" y="141" on="1"/>
        <pt x="738" y="141" on="0"/>
        <pt x="873" y="204" on="0"/>
        <pt x="967" y="331" on="0"/>
        <pt x="1018" y="523" on="0"/>
        <pt x="1018" y="651" on="1"/>
        <pt x="1018" y="754" on="1"/>
        <pt x="1018" y="856" on="0"/>
        <pt x="986" y="1018" on="0"/>
        <pt x="955" y="1079" on="1"/>
      </contour>
      <contour>
        <pt x="653" y="1264" on="1"/>
        <pt x="569" y="1264" on="0"/>
        <pt x="434" y="1201" on="0"/>
        <pt x="339" y="1073" on="0"/>
        <pt x="289" y="882" on="0"/>
        <pt x="289" y="754" on="1"/>
        <pt x="289" y="651" on="1"/>
        <pt x="289" y="548" on="0"/>
        <pt x="321" y="386" on="0"/>
        <pt x="352" y="323" on="1"/>
        <pt x="885" y="1176" on="1"/>
        <pt x="792" y="1264" on="0"/>
      </contour>
    </TTGlyph>
    <TTGlyph name="Oslashacute" xMin="101" yMin="-76" xMax="1206" yMax="1809">
      <contour>
        <pt x="1059" y="1248" on="1"/>
        <pt x="1130" y="1157" on="0"/>
        <pt x="1206" y="885" on="0"/>
        <pt x="1206" y="703" on="1"/>
        <pt x="1206" y="520" on="0"/>
        <pt x="1130" y="247" on="0"/>
        <pt x="988" y="66" on="0"/>
        <pt x="782" y="-24" on="0"/>
        <pt x="653" y="-24" on="1"/>
        <pt x="556" y="-24" on="0"/>
        <pt x="393" y="25" on="0"/>
        <pt x="327" y="76" on="1"/>
        <pt x="234" y="-76" on="1"/>
        <pt x="103" y="-76" on="1"/>
        <pt x="248" y="156" on="1"/>
        <pt x="176" y="247" on="0"/>
        <pt x="101" y="519" on="0"/>
        <pt x="101" y="703" on="1"/>
        <pt x="101" y="886" on="0"/>
        <pt x="177" y="1158" on="0"/>
        <pt x="319" y="1340" on="0"/>
        <pt x="524" y="1430" on="0"/>
        <pt x="653" y="1430" on="1"/>
        <pt x="849" y="1430" on="0"/>
        <pt x="979" y="1327" on="1"/>
        <pt x="1075" y="1481" on="1"/>
        <pt x="1206" y="1481" on="1"/>
      </contour>
      <contour>
        <pt x="422" y="228" on="1"/>
        <pt x="510" y="141" on="0"/>
        <pt x="653" y="141" on="1"/>
        <pt x="738" y="141" on="0"/>
        <pt x="873" y="204" on="0"/>
        <pt x="967" y="331" on="0"/>
        <pt x="1018" y="523" on="0"/>
        <pt x="1018" y="651" on="1"/>
        <pt x="1018" y="754" on="1"/>
        <pt x="1018" y="856" on="0"/>
        <pt x="986" y="1018" on="0"/>
        <pt x="955" y="1079" on="1"/>
      </contour>
      <contour>
        <pt x="653" y="1264" on="1"/>
        <pt x="569" y="1264" on="0"/>
        <pt x="434" y="1201" on="0"/>
        <pt x="339" y="1073" on="0"/>
        <pt x="289" y="882" on="0"/>
        <pt x="289" y="754" on="1"/>
        <pt x="289" y="651" on="1"/>
        <pt x="289" y="548" on="0"/>
        <pt x="321" y="386" on="0"/>
        <pt x="352" y="323" on="1"/>
        <pt x="885" y="1176" on="1"/>
        <pt x="792" y="1264" on="0"/>
      </contour>
      <contour>
        <pt x="674" y="1538" on="1"/>
        <pt x="532" y="1538" on="1"/>
        <pt x="708" y="1809" on="1"/>
        <pt x="892" y="1809" on="1"/>
        <pt x="894" y="1802" on="1"/>
      </contour>
    </TTGlyph>
    <TTGlyph name="Otilde" xMin="101" yMin="-24" xMax="1206" yMax="1809">
      <contour>
        <pt x="653" y="1430" on="1"/>
        <pt x="782" y="1430" on="0"/>
        <pt x="988" y="1340" on="0"/>
        <pt x="1130" y="1158" on="0"/>
        <pt x="1206" y="886" on="0"/>
        <pt x="1206" y="703" on="1"/>
        <pt x="1206" y="520" on="0"/>
        <pt x="1130" y="247" on="0"/>
        <pt x="988" y="66" on="0"/>
        <pt x="782" y="-24" on="0"/>
        <pt x="653" y="-24" on="1"/>
        <pt x="524" y="-24" on="0"/>
        <pt x="319" y="66" on="0"/>
        <pt x="177" y="247" on="0"/>
        <pt x="101" y="520" on="0"/>
        <pt x="101" y="703" on="1"/>
        <pt x="101" y="886" on="0"/>
        <pt x="177" y="1158" on="0"/>
        <pt x="319" y="1340" on="0"/>
        <pt x="524" y="1430" on="0"/>
      </contour>
      <contour>
        <pt x="653" y="1264" on="1"/>
        <pt x="569" y="1264" on="0"/>
        <pt x="434" y="1201" on="0"/>
        <pt x="339" y="1073" on="0"/>
        <pt x="289" y="882" on="0"/>
        <pt x="289" y="754" on="1"/>
        <pt x="289" y="651" on="1"/>
        <pt x="289" y="523" on="0"/>
        <pt x="339" y="331" on="0"/>
        <pt x="434" y="204" on="0"/>
        <pt x="569" y="141" on="0"/>
        <pt x="653" y="141" on="1"/>
        <pt x="738" y="141" on="0"/>
        <pt x="873" y="204" on="0"/>
        <pt x="967" y="331" on="0"/>
        <pt x="1018" y="523" on="0"/>
        <pt x="1018" y="651" on="1"/>
        <pt x="1018" y="754" on="1"/>
        <pt x="1018" y="882" on="0"/>
        <pt x="967" y="1073" on="0"/>
        <pt x="873" y="1201" on="0"/>
        <pt x="738" y="1264" on="0"/>
      </contour>
      <contour>
        <pt x="953" y="1809" on="1"/>
        <pt x="953" y="1773" on="0"/>
        <pt x="933" y="1698" on="0"/>
        <pt x="891" y="1636" on="0"/>
        <pt x="825" y="1596" on="0"/>
        <pt x="779" y="1596" on="1"/>
        <pt x="746" y="1596" on="0"/>
        <pt x="686" y="1616" on="0"/>
        <pt x="629" y="1639" on="0"/>
        <pt x="573" y="1659" on="0"/>
        <pt x="543" y="1659" on="1"/>
        <pt x="515" y="1659" on="0"/>
        <pt x="479" y="1631" on="0"/>
        <pt x="474" y="1596" on="1"/>
        <pt x="355" y="1596" on="1"/>
        <pt x="355" y="1631" on="0"/>
        <pt x="375" y="1707" on="0"/>
        <pt x="417" y="1769" on="0"/>
        <pt x="483" y="1809" on="0"/>
        <pt x="529" y="1809" on="1"/>
        <pt x="562" y="1809" on="0"/>
        <pt x="621" y="1789" on="0"/>
        <pt x="678" y="1766" on="0"/>
        <pt x="734" y="1746" on="0"/>
        <pt x="764" y="1746" on="1"/>
        <pt x="792" y="1746" on="0"/>
        <pt x="829" y="1774" on="0"/>
        <pt x="834" y="1809" on="1"/>
      </contour>
    </TTGlyph>
    <TTGlyph name="P" xMin="143" yMin="0" xMax="1065" yMax="1405">
      <contour>
        <pt x="324" y="580" on="1"/>
        <pt x="324" y="0" on="1"/>
        <pt x="143" y="0" on="1"/>
        <pt x="143" y="1405" on="1"/>
        <pt x="645" y="1405" on="1"/>
        <pt x="749" y="1405" on="0"/>
        <pt x="906" y="1345" on="0"/>
        <pt x="1012" y="1237" on="0"/>
        <pt x="1065" y="1086" on="0"/>
        <pt x="1065" y="995" on="1"/>
        <pt x="1065" y="902" on="0"/>
        <pt x="1007" y="750" on="0"/>
        <pt x="898" y="640" on="0"/>
        <pt x="742" y="580" on="0"/>
        <pt x="645" y="580" on="1"/>
      </contour>
      <contour>
        <pt x="324" y="1241" on="1"/>
        <pt x="324" y="743" on="1"/>
        <pt x="639" y="743" on="1"/>
        <pt x="693" y="743" on="0"/>
        <pt x="780" y="779" on="0"/>
        <pt x="843" y="845" on="0"/>
        <pt x="877" y="938" on="0"/>
        <pt x="877" y="995" on="1"/>
        <pt x="877" y="1110" on="0"/>
        <pt x="755" y="1241" on="0"/>
        <pt x="639" y="1241" on="1"/>
      </contour>
    </TTGlyph>
    <TTGlyph name="Q" xMin="100" yMin="-254" xMax="1206" yMax="1430">
      <contour>
        <pt x="100" y="702" on="1"/>
        <pt x="100" y="885" on="0"/>
        <pt x="176" y="1158" on="0"/>
        <pt x="319" y="1340" on="0"/>
        <pt x="524" y="1430" on="0"/>
        <pt x="653" y="1430" on="1"/>
        <pt x="782" y="1430" on="0"/>
        <pt x="987" y="1340" on="0"/>
        <pt x="1130" y="1158" on="0"/>
        <pt x="1206" y="885" on="0"/>
        <pt x="1206" y="702" on="1"/>
        <pt x="1206" y="423" on="0"/>
        <pt x="1030" y="78" on="0"/>
        <pt x="872" y="14" on="1"/>
        <pt x="1163" y="-254" on="1"/>
        <pt x="922" y="-254" on="1"/>
        <pt x="678" y="-25" on="1"/>
        <pt x="653" y="-25" on="1"/>
        <pt x="524" y="-25" on="0"/>
        <pt x="319" y="65" on="0"/>
        <pt x="176" y="247" on="0"/>
        <pt x="100" y="519" on="0"/>
      </contour>
      <contour>
        <pt x="289" y="651" on="1"/>
        <pt x="289" y="523" on="0"/>
        <pt x="339" y="331" on="0"/>
        <pt x="434" y="204" on="0"/>
        <pt x="569" y="141" on="0"/>
        <pt x="653" y="141" on="1"/>
        <pt x="738" y="141" on="0"/>
        <pt x="873" y="204" on="0"/>
        <pt x="967" y="331" on="0"/>
        <pt x="1018" y="523" on="0"/>
        <pt x="1018" y="651" on="1"/>
        <pt x="1018" y="754" on="1"/>
        <pt x="1018" y="882" on="0"/>
        <pt x="967" y="1074" on="0"/>
        <pt x="873" y="1201" on="0"/>
        <pt x="738" y="1264" on="0"/>
        <pt x="653" y="1264" on="1"/>
        <pt x="569" y="1264" on="0"/>
        <pt x="434" y="1201" on="0"/>
        <pt x="339" y="1074" on="0"/>
        <pt x="289" y="882" on="0"/>
        <pt x="289" y="754" on="1"/>
      </contour>
    </TTGlyph>
    <TTGlyph name="R" xMin="143" yMin="0" xMax="1161" yMax="1405">
      <contour>
        <pt x="1128" y="1016" on="1"/>
        <pt x="1128" y="885" on="0"/>
        <pt x="997" y="694" on="0"/>
        <pt x="879" y="653" on="1"/>
        <pt x="1161" y="0" on="1"/>
        <pt x="961" y="0" on="1"/>
        <pt x="700" y="621" on="1"/>
        <pt x="324" y="621" on="1"/>
        <pt x="324" y="0" on="1"/>
        <pt x="143" y="0" on="1"/>
        <pt x="143" y="1405" on="1"/>
        <pt x="709" y="1405" on="1"/>
        <pt x="812" y="1405" on="0"/>
        <pt x="969" y="1348" on="0"/>
        <pt x="1075" y="1246" on="0"/>
        <pt x="1128" y="1103" on="0"/>
      </contour>
      <contour>
        <pt x="324" y="1241" on="1"/>
        <pt x="324" y="784" on="1"/>
        <pt x="702" y="784" on="1"/>
        <pt x="756" y="784" on="0"/>
        <pt x="844" y="817" on="0"/>
        <pt x="906" y="878" on="0"/>
        <pt x="940" y="964" on="0"/>
        <pt x="940" y="1016" on="1"/>
        <pt x="940" y="1121" on="0"/>
        <pt x="818" y="1241" on="0"/>
        <pt x="702" y="1241" on="1"/>
      </contour>
    </TTGlyph>
    <TTGlyph name="Racute" xMin="143" yMin="0" xMax="1161" yMax="1808">
      <contour>
        <pt x="582" y="1538" on="1"/>
        <pt x="438" y="1538" on="1"/>
        <pt x="614" y="1808" on="1"/>
        <pt x="799" y="1808" on="1"/>
        <pt x="801" y="1802" on="1"/>
      </contour>
      <contour>
        <pt x="1128" y="1016" on="1"/>
        <pt x="1128" y="885" on="0"/>
        <pt x="997" y="694" on="0"/>
        <pt x="879" y="653" on="1"/>
        <pt x="1161" y="0" on="1"/>
        <pt x="961" y="0" on="1"/>
        <pt x="700" y="621" on="1"/>
        <pt x="324" y="621" on="1"/>
        <pt x="324" y="0" on="1"/>
        <pt x="143" y="0" on="1"/>
        <pt x="143" y="1405" on="1"/>
        <pt x="709" y="1405" on="1"/>
        <pt x="812" y="1405" on="0"/>
        <pt x="969" y="1348" on="0"/>
        <pt x="1075" y="1246" on="0"/>
        <pt x="1128" y="1103" on="0"/>
      </contour>
      <contour>
        <pt x="324" y="1241" on="1"/>
        <pt x="324" y="784" on="1"/>
        <pt x="702" y="784" on="1"/>
        <pt x="756" y="784" on="0"/>
        <pt x="844" y="817" on="0"/>
        <pt x="906" y="878" on="0"/>
        <pt x="940" y="964" on="0"/>
        <pt x="940" y="1016" on="1"/>
        <pt x="940" y="1121" on="0"/>
        <pt x="818" y="1241" on="0"/>
        <pt x="702" y="1241" on="1"/>
      </contour>
    </TTGlyph>
    <TTGlyph name="Rcaron" xMin="143" yMin="0" xMax="1161" yMax="1808">
      <contour>
        <pt x="684" y="1532" on="1"/>
        <pt x="524" y="1532" on="1"/>
        <pt x="350" y="1808" on="1"/>
        <pt x="514" y="1808" on="1"/>
        <pt x="606" y="1647" on="1"/>
        <pt x="698" y="1808" on="1"/>
        <pt x="862" y="1808" on="1"/>
      </contour>
      <contour>
        <pt x="1128" y="1016" on="1"/>
        <pt x="1128" y="885" on="0"/>
        <pt x="997" y="694" on="0"/>
        <pt x="879" y="653" on="1"/>
        <pt x="1161" y="0" on="1"/>
        <pt x="961" y="0" on="1"/>
        <pt x="700" y="621" on="1"/>
        <pt x="324" y="621" on="1"/>
        <pt x="324" y="0" on="1"/>
        <pt x="143" y="0" on="1"/>
        <pt x="143" y="1405" on="1"/>
        <pt x="709" y="1405" on="1"/>
        <pt x="812" y="1405" on="0"/>
        <pt x="969" y="1348" on="0"/>
        <pt x="1075" y="1246" on="0"/>
        <pt x="1128" y="1103" on="0"/>
      </contour>
      <contour>
        <pt x="324" y="1241" on="1"/>
        <pt x="324" y="784" on="1"/>
        <pt x="702" y="784" on="1"/>
        <pt x="756" y="784" on="0"/>
        <pt x="844" y="817" on="0"/>
        <pt x="906" y="878" on="0"/>
        <pt x="940" y="964" on="0"/>
        <pt x="940" y="1016" on="1"/>
        <pt x="940" y="1121" on="0"/>
        <pt x="818" y="1241" on="0"/>
        <pt x="702" y="1241" on="1"/>
      </contour>
    </TTGlyph>
    <TTGlyph name="Rcommaaccent" xMin="143" yMin="-455" xMax="1161" yMax="1405">
      <contour>
        <pt x="694" y="-295" on="1"/>
        <pt x="635" y="-455" on="1"/>
        <pt x="543" y="-455" on="1"/>
        <pt x="590" y="-309" on="1"/>
        <pt x="518" y="-309" on="1"/>
        <pt x="518" y="-123" on="1"/>
        <pt x="694" y="-123" on="1"/>
      </contour>
      <contour>
        <pt x="1128" y="1016" on="1"/>
        <pt x="1128" y="885" on="0"/>
        <pt x="997" y="694" on="0"/>
        <pt x="879" y="653" on="1"/>
        <pt x="1161" y="0" on="1"/>
        <pt x="961" y="0" on="1"/>
        <pt x="700" y="621" on="1"/>
        <pt x="324" y="621" on="1"/>
        <pt x="324" y="0" on="1"/>
        <pt x="143" y="0" on="1"/>
        <pt x="143" y="1405" on="1"/>
        <pt x="709" y="1405" on="1"/>
        <pt x="812" y="1405" on="0"/>
        <pt x="969" y="1348" on="0"/>
        <pt x="1075" y="1246" on="0"/>
        <pt x="1128" y="1103" on="0"/>
      </contour>
      <contour>
        <pt x="324" y="1241" on="1"/>
        <pt x="324" y="784" on="1"/>
        <pt x="702" y="784" on="1"/>
        <pt x="756" y="784" on="0"/>
        <pt x="844" y="817" on="0"/>
        <pt x="906" y="878" on="0"/>
        <pt x="940" y="964" on="0"/>
        <pt x="940" y="1016" on="1"/>
        <pt x="940" y="1121" on="0"/>
        <pt x="818" y="1241" on="0"/>
        <pt x="702" y="1241" on="1"/>
      </contour>
    </TTGlyph>
    <TTGlyph name="S" xMin="84" yMin="-24" xMax="1032" yMax="1430">
      <contour>
        <pt x="559" y="1430" on="1"/>
        <pt x="650" y="1430" on="0"/>
        <pt x="811" y="1385" on="0"/>
        <pt x="931" y="1289" on="0"/>
        <pt x="1000" y="1139" on="0"/>
        <pt x="1000" y="1034" on="1"/>
        <pt x="1000" y="1010" on="1"/>
        <pt x="814" y="1010" on="1"/>
        <pt x="814" y="1040" on="1"/>
        <pt x="814" y="1094" on="0"/>
        <pt x="775" y="1177" on="0"/>
        <pt x="708" y="1234" on="0"/>
        <pt x="616" y="1264" on="0"/>
        <pt x="563" y="1264" on="1"/>
        <pt x="508" y="1264" on="0"/>
        <pt x="413" y="1240" on="0"/>
        <pt x="343" y="1192" on="0"/>
        <pt x="303" y="1118" on="0"/>
        <pt x="303" y="1067" on="1"/>
        <pt x="303" y="1004" on="0"/>
        <pt x="366" y="921" on="0"/>
        <pt x="468" y="862" on="0"/>
        <pt x="599" y="818" on="0"/>
        <pt x="736" y="772" on="0"/>
        <pt x="867" y="714" on="0"/>
        <pt x="969" y="626" on="0"/>
        <pt x="1032" y="498" on="0"/>
        <pt x="1032" y="406" on="1"/>
        <pt x="1032" y="288" on="0"/>
        <pt x="960" y="124" on="0"/>
        <pt x="833" y="22" on="0"/>
        <pt x="659" y="-24" on="0"/>
        <pt x="557" y="-24" on="1"/>
        <pt x="461" y="-24" on="0"/>
        <pt x="289" y="21" on="0"/>
        <pt x="160" y="121" on="0"/>
        <pt x="84" y="282" on="0"/>
        <pt x="84" y="398" on="1"/>
        <pt x="84" y="409" on="0"/>
        <pt x="86" y="433" on="0"/>
        <pt x="86" y="438" on="1"/>
        <pt x="273" y="438" on="1"/>
        <pt x="273" y="437" on="0"/>
        <pt x="272" y="427" on="0"/>
        <pt x="271" y="414" on="0"/>
        <pt x="270" y="400" on="0"/>
        <pt x="270" y="396" on="1"/>
        <pt x="270" y="331" on="0"/>
        <pt x="312" y="236" on="0"/>
        <pt x="387" y="172" on="0"/>
        <pt x="489" y="141" on="0"/>
        <pt x="549" y="141" on="1"/>
        <pt x="691" y="141" on="0"/>
        <pt x="844" y="261" on="0"/>
        <pt x="844" y="375" on="1"/>
        <pt x="844" y="441" on="0"/>
        <pt x="781" y="528" on="0"/>
        <pt x="678" y="589" on="0"/>
        <pt x="547" y="633" on="0"/>
        <pt x="410" y="679" on="0"/>
        <pt x="279" y="737" on="0"/>
        <pt x="176" y="827" on="0"/>
        <pt x="113" y="957" on="0"/>
        <pt x="113" y="1052" on="1"/>
        <pt x="113" y="1149" on="0"/>
        <pt x="183" y="1292" on="0"/>
        <pt x="304" y="1385" on="0"/>
        <pt x="467" y="1430" on="0"/>
      </contour>
    </TTGlyph>
    <TTGlyph name="Sacute" xMin="84" yMin="-24" xMax="1032" yMax="1809">
      <contour>
        <pt x="559" y="1430" on="1"/>
        <pt x="650" y="1430" on="0"/>
        <pt x="811" y="1385" on="0"/>
        <pt x="931" y="1289" on="0"/>
        <pt x="1000" y="1139" on="0"/>
        <pt x="1000" y="1034" on="1"/>
        <pt x="1000" y="1010" on="1"/>
        <pt x="814" y="1010" on="1"/>
        <pt x="814" y="1040" on="1"/>
        <pt x="814" y="1094" on="0"/>
        <pt x="775" y="1177" on="0"/>
        <pt x="708" y="1234" on="0"/>
        <pt x="616" y="1264" on="0"/>
        <pt x="563" y="1264" on="1"/>
        <pt x="508" y="1264" on="0"/>
        <pt x="413" y="1240" on="0"/>
        <pt x="343" y="1192" on="0"/>
        <pt x="303" y="1118" on="0"/>
        <pt x="303" y="1067" on="1"/>
        <pt x="303" y="1004" on="0"/>
        <pt x="366" y="921" on="0"/>
        <pt x="468" y="862" on="0"/>
        <pt x="599" y="818" on="0"/>
        <pt x="736" y="772" on="0"/>
        <pt x="867" y="714" on="0"/>
        <pt x="969" y="626" on="0"/>
        <pt x="1032" y="498" on="0"/>
        <pt x="1032" y="406" on="1"/>
        <pt x="1032" y="288" on="0"/>
        <pt x="960" y="124" on="0"/>
        <pt x="833" y="22" on="0"/>
        <pt x="659" y="-24" on="0"/>
        <pt x="557" y="-24" on="1"/>
        <pt x="461" y="-24" on="0"/>
        <pt x="289" y="21" on="0"/>
        <pt x="160" y="121" on="0"/>
        <pt x="84" y="282" on="0"/>
        <pt x="84" y="398" on="1"/>
        <pt x="84" y="409" on="0"/>
        <pt x="86" y="433" on="0"/>
        <pt x="86" y="438" on="1"/>
        <pt x="273" y="438" on="1"/>
        <pt x="273" y="437" on="0"/>
        <pt x="272" y="427" on="0"/>
        <pt x="271" y="414" on="0"/>
        <pt x="270" y="400" on="0"/>
        <pt x="270" y="396" on="1"/>
        <pt x="270" y="331" on="0"/>
        <pt x="312" y="236" on="0"/>
        <pt x="387" y="172" on="0"/>
        <pt x="489" y="141" on="0"/>
        <pt x="549" y="141" on="1"/>
        <pt x="691" y="141" on="0"/>
        <pt x="844" y="261" on="0"/>
        <pt x="844" y="375" on="1"/>
        <pt x="844" y="441" on="0"/>
        <pt x="781" y="528" on="0"/>
        <pt x="678" y="589" on="0"/>
        <pt x="547" y="633" on="0"/>
        <pt x="410" y="679" on="0"/>
        <pt x="279" y="737" on="0"/>
        <pt x="176" y="827" on="0"/>
        <pt x="113" y="957" on="0"/>
        <pt x="113" y="1052" on="1"/>
        <pt x="113" y="1149" on="0"/>
        <pt x="183" y="1292" on="0"/>
        <pt x="304" y="1385" on="0"/>
        <pt x="467" y="1430" on="0"/>
      </contour>
      <contour>
        <pt x="580" y="1538" on="1"/>
        <pt x="438" y="1538" on="1"/>
        <pt x="614" y="1809" on="1"/>
        <pt x="798" y="1809" on="1"/>
        <pt x="800" y="1802" on="1"/>
      </contour>
    </TTGlyph>
    <TTGlyph name="Scaron" xMin="84" yMin="-24" xMax="1032" yMax="1809">
      <contour>
        <pt x="559" y="1430" on="1"/>
        <pt x="650" y="1430" on="0"/>
        <pt x="811" y="1385" on="0"/>
        <pt x="931" y="1289" on="0"/>
        <pt x="1000" y="1139" on="0"/>
        <pt x="1000" y="1034" on="1"/>
        <pt x="1000" y="1010" on="1"/>
        <pt x="814" y="1010" on="1"/>
        <pt x="814" y="1040" on="1"/>
        <pt x="814" y="1094" on="0"/>
        <pt x="775" y="1177" on="0"/>
        <pt x="708" y="1234" on="0"/>
        <pt x="616" y="1264" on="0"/>
        <pt x="563" y="1264" on="1"/>
        <pt x="508" y="1264" on="0"/>
        <pt x="413" y="1240" on="0"/>
        <pt x="343" y="1192" on="0"/>
        <pt x="303" y="1118" on="0"/>
        <pt x="303" y="1067" on="1"/>
        <pt x="303" y="1004" on="0"/>
        <pt x="366" y="921" on="0"/>
        <pt x="468" y="862" on="0"/>
        <pt x="599" y="818" on="0"/>
        <pt x="736" y="772" on="0"/>
        <pt x="867" y="714" on="0"/>
        <pt x="969" y="626" on="0"/>
        <pt x="1032" y="498" on="0"/>
        <pt x="1032" y="406" on="1"/>
        <pt x="1032" y="288" on="0"/>
        <pt x="960" y="124" on="0"/>
        <pt x="833" y="22" on="0"/>
        <pt x="659" y="-24" on="0"/>
        <pt x="557" y="-24" on="1"/>
        <pt x="461" y="-24" on="0"/>
        <pt x="289" y="21" on="0"/>
        <pt x="160" y="121" on="0"/>
        <pt x="84" y="282" on="0"/>
        <pt x="84" y="398" on="1"/>
        <pt x="84" y="409" on="0"/>
        <pt x="86" y="433" on="0"/>
        <pt x="86" y="438" on="1"/>
        <pt x="273" y="438" on="1"/>
        <pt x="273" y="437" on="0"/>
        <pt x="272" y="427" on="0"/>
        <pt x="271" y="414" on="0"/>
        <pt x="270" y="400" on="0"/>
        <pt x="270" y="396" on="1"/>
        <pt x="270" y="331" on="0"/>
        <pt x="312" y="236" on="0"/>
        <pt x="387" y="172" on="0"/>
        <pt x="489" y="141" on="0"/>
        <pt x="549" y="141" on="1"/>
        <pt x="691" y="141" on="0"/>
        <pt x="844" y="261" on="0"/>
        <pt x="844" y="375" on="1"/>
        <pt x="844" y="441" on="0"/>
        <pt x="781" y="528" on="0"/>
        <pt x="678" y="589" on="0"/>
        <pt x="547" y="633" on="0"/>
        <pt x="410" y="679" on="0"/>
        <pt x="279" y="737" on="0"/>
        <pt x="176" y="827" on="0"/>
        <pt x="113" y="957" on="0"/>
        <pt x="113" y="1052" on="1"/>
        <pt x="113" y="1149" on="0"/>
        <pt x="183" y="1292" on="0"/>
        <pt x="304" y="1385" on="0"/>
        <pt x="467" y="1430" on="0"/>
      </contour>
      <contour>
        <pt x="639" y="1532" on="1"/>
        <pt x="479" y="1532" on="1"/>
        <pt x="305" y="1809" on="1"/>
        <pt x="469" y="1809" on="1"/>
        <pt x="560" y="1647" on="1"/>
        <pt x="652" y="1809" on="1"/>
        <pt x="816" y="1809" on="1"/>
      </contour>
    </TTGlyph>
    <TTGlyph name="Scedilla" xMin="84" yMin="-373" xMax="1032" yMax="1430">
      <contour>
        <pt x="559" y="1430" on="1"/>
        <pt x="650" y="1430" on="0"/>
        <pt x="811" y="1385" on="0"/>
        <pt x="931" y="1289" on="0"/>
        <pt x="1000" y="1139" on="0"/>
        <pt x="1000" y="1034" on="1"/>
        <pt x="1000" y="1010" on="1"/>
        <pt x="814" y="1010" on="1"/>
        <pt x="814" y="1040" on="1"/>
        <pt x="814" y="1094" on="0"/>
        <pt x="775" y="1177" on="0"/>
        <pt x="708" y="1234" on="0"/>
        <pt x="616" y="1264" on="0"/>
        <pt x="563" y="1264" on="1"/>
        <pt x="508" y="1264" on="0"/>
        <pt x="413" y="1240" on="0"/>
        <pt x="343" y="1192" on="0"/>
        <pt x="303" y="1118" on="0"/>
        <pt x="303" y="1067" on="1"/>
        <pt x="303" y="1004" on="0"/>
        <pt x="366" y="921" on="0"/>
        <pt x="468" y="862" on="0"/>
        <pt x="599" y="818" on="0"/>
        <pt x="736" y="772" on="0"/>
        <pt x="867" y="714" on="0"/>
        <pt x="969" y="626" on="0"/>
        <pt x="1032" y="498" on="0"/>
        <pt x="1032" y="406" on="1"/>
        <pt x="1032" y="293" on="0"/>
        <pt x="967" y="134" on="0"/>
        <pt x="850" y="32" on="0"/>
        <pt x="689" y="-19" on="0"/>
        <pt x="594" y="-23" on="1"/>
        <pt x="587" y="-74" on="1"/>
        <pt x="620" y="-76" on="0"/>
        <pt x="680" y="-92" on="0"/>
        <pt x="726" y="-123" on="0"/>
        <pt x="753" y="-171" on="0"/>
        <pt x="753" y="-206" on="1"/>
        <pt x="753" y="-258" on="0"/>
        <pt x="710" y="-323" on="0"/>
        <pt x="645" y="-360" on="0"/>
        <pt x="571" y="-373" on="0"/>
        <pt x="540" y="-373" on="1"/>
        <pt x="496" y="-373" on="0"/>
        <pt x="405" y="-364" on="0"/>
        <pt x="368" y="-356" on="1"/>
        <pt x="368" y="-256" on="1"/>
        <pt x="524" y="-256" on="1"/>
        <pt x="558" y="-256" on="0"/>
        <pt x="597" y="-236" on="0"/>
        <pt x="597" y="-206" on="1"/>
        <pt x="597" y="-182" on="0"/>
        <pt x="568" y="-158" on="0"/>
        <pt x="528" y="-158" on="1"/>
        <pt x="460" y="-158" on="1"/>
        <pt x="481" y="-20" on="1"/>
        <pt x="398" y="-13" on="0"/>
        <pt x="253" y="42" on="0"/>
        <pt x="146" y="142" on="0"/>
        <pt x="84" y="293" on="0"/>
        <pt x="84" y="398" on="1"/>
        <pt x="84" y="409" on="0"/>
        <pt x="86" y="433" on="0"/>
        <pt x="86" y="438" on="1"/>
        <pt x="273" y="438" on="1"/>
        <pt x="273" y="437" on="0"/>
        <pt x="272" y="427" on="0"/>
        <pt x="271" y="414" on="0"/>
        <pt x="270" y="400" on="0"/>
        <pt x="270" y="396" on="1"/>
        <pt x="270" y="331" on="0"/>
        <pt x="312" y="236" on="0"/>
        <pt x="387" y="172" on="0"/>
        <pt x="489" y="141" on="0"/>
        <pt x="549" y="141" on="1"/>
        <pt x="691" y="141" on="0"/>
        <pt x="844" y="261" on="0"/>
        <pt x="844" y="375" on="1"/>
        <pt x="844" y="441" on="0"/>
        <pt x="781" y="528" on="0"/>
        <pt x="678" y="589" on="0"/>
        <pt x="547" y="633" on="0"/>
        <pt x="410" y="679" on="0"/>
        <pt x="279" y="737" on="0"/>
        <pt x="176" y="827" on="0"/>
        <pt x="113" y="957" on="0"/>
        <pt x="113" y="1052" on="1"/>
        <pt x="113" y="1149" on="0"/>
        <pt x="183" y="1292" on="0"/>
        <pt x="304" y="1385" on="0"/>
        <pt x="467" y="1430" on="0"/>
      </contour>
    </TTGlyph>
    <TTGlyph name="Scircumflex" xMin="84" yMin="-24" xMax="1032" yMax="1807">
      <contour>
        <pt x="559" y="1430" on="1"/>
        <pt x="650" y="1430" on="0"/>
        <pt x="811" y="1385" on="0"/>
        <pt x="931" y="1289" on="0"/>
        <pt x="1000" y="1139" on="0"/>
        <pt x="1000" y="1034" on="1"/>
        <pt x="1000" y="1010" on="1"/>
        <pt x="814" y="1010" on="1"/>
        <pt x="814" y="1040" on="1"/>
        <pt x="814" y="1094" on="0"/>
        <pt x="775" y="1177" on="0"/>
        <pt x="708" y="1234" on="0"/>
        <pt x="616" y="1264" on="0"/>
        <pt x="563" y="1264" on="1"/>
        <pt x="508" y="1264" on="0"/>
        <pt x="413" y="1240" on="0"/>
        <pt x="343" y="1192" on="0"/>
        <pt x="303" y="1118" on="0"/>
        <pt x="303" y="1067" on="1"/>
        <pt x="303" y="1004" on="0"/>
        <pt x="366" y="921" on="0"/>
        <pt x="468" y="862" on="0"/>
        <pt x="599" y="818" on="0"/>
        <pt x="736" y="772" on="0"/>
        <pt x="867" y="714" on="0"/>
        <pt x="969" y="626" on="0"/>
        <pt x="1032" y="498" on="0"/>
        <pt x="1032" y="406" on="1"/>
        <pt x="1032" y="288" on="0"/>
        <pt x="960" y="124" on="0"/>
        <pt x="833" y="22" on="0"/>
        <pt x="659" y="-24" on="0"/>
        <pt x="557" y="-24" on="1"/>
        <pt x="461" y="-24" on="0"/>
        <pt x="289" y="21" on="0"/>
        <pt x="160" y="121" on="0"/>
        <pt x="84" y="282" on="0"/>
        <pt x="84" y="398" on="1"/>
        <pt x="84" y="409" on="0"/>
        <pt x="86" y="433" on="0"/>
        <pt x="86" y="438" on="1"/>
        <pt x="273" y="438" on="1"/>
        <pt x="273" y="437" on="0"/>
        <pt x="272" y="427" on="0"/>
        <pt x="271" y="414" on="0"/>
        <pt x="270" y="400" on="0"/>
        <pt x="270" y="396" on="1"/>
        <pt x="270" y="331" on="0"/>
        <pt x="312" y="236" on="0"/>
        <pt x="387" y="172" on="0"/>
        <pt x="489" y="141" on="0"/>
        <pt x="549" y="141" on="1"/>
        <pt x="691" y="141" on="0"/>
        <pt x="844" y="261" on="0"/>
        <pt x="844" y="375" on="1"/>
        <pt x="844" y="441" on="0"/>
        <pt x="781" y="528" on="0"/>
        <pt x="678" y="589" on="0"/>
        <pt x="547" y="633" on="0"/>
        <pt x="410" y="679" on="0"/>
        <pt x="279" y="737" on="0"/>
        <pt x="176" y="827" on="0"/>
        <pt x="113" y="957" on="0"/>
        <pt x="113" y="1052" on="1"/>
        <pt x="113" y="1149" on="0"/>
        <pt x="183" y="1292" on="0"/>
        <pt x="304" y="1385" on="0"/>
        <pt x="467" y="1430" on="0"/>
      </contour>
      <contour>
        <pt x="816" y="1530" on="1"/>
        <pt x="652" y="1530" on="1"/>
        <pt x="562" y="1692" on="1"/>
        <pt x="469" y="1530" on="1"/>
        <pt x="305" y="1530" on="1"/>
        <pt x="481" y="1807" on="1"/>
        <pt x="641" y="1807" on="1"/>
      </contour>
    </TTGlyph>
    <TTGlyph name="T" xMin="39" yMin="0" xMax="985" yMax="1405">
      <contour>
        <pt x="39" y="1405" on="1"/>
        <pt x="985" y="1405" on="1"/>
        <pt x="985" y="1241" on="1"/>
        <pt x="602" y="1241" on="1"/>
        <pt x="602" y="0" on="1"/>
        <pt x="422" y="0" on="1"/>
        <pt x="422" y="1241" on="1"/>
        <pt x="39" y="1241" on="1"/>
      </contour>
    </TTGlyph>
    <TTGlyph name="Tbar" xMin="39" yMin="0" xMax="985" yMax="1405">
      <contour>
        <pt x="985" y="1241" on="1"/>
        <pt x="602" y="1241" on="1"/>
        <pt x="602" y="805" on="1"/>
        <pt x="870" y="805" on="1"/>
        <pt x="870" y="655" on="1"/>
        <pt x="602" y="655" on="1"/>
        <pt x="602" y="0" on="1"/>
        <pt x="422" y="0" on="1"/>
        <pt x="422" y="655" on="1"/>
        <pt x="158" y="655" on="1"/>
        <pt x="158" y="805" on="1"/>
        <pt x="422" y="805" on="1"/>
        <pt x="422" y="1241" on="1"/>
        <pt x="39" y="1241" on="1"/>
        <pt x="39" y="1405" on="1"/>
        <pt x="985" y="1405" on="1"/>
      </contour>
    </TTGlyph>
    <TTGlyph name="Tcaron" xMin="39" yMin="0" xMax="985" yMax="1808">
      <contour>
        <pt x="592" y="1532" on="1"/>
        <pt x="432" y="1532" on="1"/>
        <pt x="258" y="1808" on="1"/>
        <pt x="422" y="1808" on="1"/>
        <pt x="512" y="1647" on="1"/>
        <pt x="604" y="1808" on="1"/>
        <pt x="768" y="1808" on="1"/>
      </contour>
      <contour>
        <pt x="39" y="1405" on="1"/>
        <pt x="985" y="1405" on="1"/>
        <pt x="985" y="1241" on="1"/>
        <pt x="602" y="1241" on="1"/>
        <pt x="602" y="0" on="1"/>
        <pt x="422" y="0" on="1"/>
        <pt x="422" y="1241" on="1"/>
        <pt x="39" y="1241" on="1"/>
      </contour>
    </TTGlyph>
    <TTGlyph name="Tcommaaccent" xMin="39" yMin="-455" xMax="985" yMax="1405">
      <contour>
        <pt x="600" y="-295" on="1"/>
        <pt x="541" y="-455" on="1"/>
        <pt x="451" y="-455" on="1"/>
        <pt x="496" y="-309" on="1"/>
        <pt x="426" y="-309" on="1"/>
        <pt x="426" y="-123" on="1"/>
        <pt x="600" y="-123" on="1"/>
      </contour>
      <contour>
        <pt x="39" y="1405" on="1"/>
        <pt x="985" y="1405" on="1"/>
        <pt x="985" y="1241" on="1"/>
        <pt x="602" y="1241" on="1"/>
        <pt x="602" y="0" on="1"/>
        <pt x="422" y="0" on="1"/>
        <pt x="422" y="1241" on="1"/>
        <pt x="39" y="1241" on="1"/>
      </contour>
    </TTGlyph>
    <TTGlyph name="Thorn" xMin="143" yMin="0" xMax="1065" yMax="1405">
      <contour>
        <pt x="324" y="1126" on="1"/>
        <pt x="645" y="1126" on="1"/>
        <pt x="749" y="1126" on="0"/>
        <pt x="906" y="1067" on="0"/>
        <pt x="1012" y="959" on="0"/>
        <pt x="1065" y="808" on="0"/>
        <pt x="1065" y="717" on="1"/>
        <pt x="1065" y="624" on="0"/>
        <pt x="1007" y="471" on="0"/>
        <pt x="898" y="361" on="0"/>
        <pt x="742" y="301" on="0"/>
        <pt x="645" y="301" on="1"/>
        <pt x="324" y="301" on="1"/>
        <pt x="324" y="0" on="1"/>
        <pt x="143" y="0" on="1"/>
        <pt x="143" y="1405" on="1"/>
        <pt x="324" y="1405" on="1"/>
      </contour>
      <contour>
        <pt x="324" y="963" on="1"/>
        <pt x="324" y="465" on="1"/>
        <pt x="639" y="465" on="1"/>
        <pt x="693" y="465" on="0"/>
        <pt x="780" y="501" on="0"/>
        <pt x="843" y="567" on="0"/>
        <pt x="877" y="660" on="0"/>
        <pt x="877" y="717" on="1"/>
        <pt x="877" y="831" on="0"/>
        <pt x="755" y="963" on="0"/>
        <pt x="639" y="963" on="1"/>
      </contour>
    </TTGlyph>
    <TTGlyph name="U" xMin="143" yMin="-24" xMax="1069" yMax="1405">
      <contour>
        <pt x="1069" y="457" on="1"/>
        <pt x="1069" y="338" on="0"/>
        <pt x="1006" y="159" on="0"/>
        <pt x="886" y="37" on="0"/>
        <pt x="714" y="-24" on="0"/>
        <pt x="606" y="-24" on="1"/>
        <pt x="498" y="-24" on="0"/>
        <pt x="326" y="37" on="0"/>
        <pt x="206" y="159" on="0"/>
        <pt x="143" y="338" on="0"/>
        <pt x="143" y="457" on="1"/>
        <pt x="143" y="1405" on="1"/>
        <pt x="323" y="1405" on="1"/>
        <pt x="323" y="446" on="1"/>
        <pt x="323" y="297" on="0"/>
        <pt x="474" y="141" on="0"/>
        <pt x="606" y="141" on="1"/>
        <pt x="738" y="141" on="0"/>
        <pt x="889" y="297" on="0"/>
        <pt x="889" y="446" on="1"/>
        <pt x="889" y="1405" on="1"/>
        <pt x="1069" y="1405" on="1"/>
      </contour>
    </TTGlyph>
    <TTGlyph name="Uacute" xMin="143" yMin="-24" xMax="1069" yMax="1809">
      <contour>
        <pt x="1069" y="457" on="1"/>
        <pt x="1069" y="338" on="0"/>
        <pt x="1006" y="159" on="0"/>
        <pt x="886" y="37" on="0"/>
        <pt x="714" y="-24" on="0"/>
        <pt x="606" y="-24" on="1"/>
        <pt x="498" y="-24" on="0"/>
        <pt x="326" y="37" on="0"/>
        <pt x="206" y="159" on="0"/>
        <pt x="143" y="338" on="0"/>
        <pt x="143" y="457" on="1"/>
        <pt x="143" y="1405" on="1"/>
        <pt x="323" y="1405" on="1"/>
        <pt x="323" y="446" on="1"/>
        <pt x="323" y="297" on="0"/>
        <pt x="474" y="141" on="0"/>
        <pt x="606" y="141" on="1"/>
        <pt x="738" y="141" on="0"/>
        <pt x="889" y="297" on="0"/>
        <pt x="889" y="446" on="1"/>
        <pt x="889" y="1405" on="1"/>
        <pt x="1069" y="1405" on="1"/>
      </contour>
      <contour>
        <pt x="626" y="1538" on="1"/>
        <pt x="484" y="1538" on="1"/>
        <pt x="660" y="1809" on="1"/>
        <pt x="844" y="1809" on="1"/>
        <pt x="846" y="1802" on="1"/>
      </contour>
    </TTGlyph>
    <TTGlyph name="Ubreve" xMin="143" yMin="-24" xMax="1069" yMax="1809">
      <contour>
        <pt x="1069" y="457" on="1"/>
        <pt x="1069" y="338" on="0"/>
        <pt x="1006" y="159" on="0"/>
        <pt x="886" y="37" on="0"/>
        <pt x="714" y="-24" on="0"/>
        <pt x="606" y="-24" on="1"/>
        <pt x="498" y="-24" on="0"/>
        <pt x="326" y="37" on="0"/>
        <pt x="206" y="159" on="0"/>
        <pt x="143" y="338" on="0"/>
        <pt x="143" y="457" on="1"/>
        <pt x="143" y="1405" on="1"/>
        <pt x="323" y="1405" on="1"/>
        <pt x="323" y="446" on="1"/>
        <pt x="323" y="297" on="0"/>
        <pt x="474" y="141" on="0"/>
        <pt x="606" y="141" on="1"/>
        <pt x="738" y="141" on="0"/>
        <pt x="889" y="297" on="0"/>
        <pt x="889" y="446" on="1"/>
        <pt x="889" y="1405" on="1"/>
        <pt x="1069" y="1405" on="1"/>
      </contour>
      <contour>
        <pt x="860" y="1809" on="1"/>
        <pt x="860" y="1774" on="0"/>
        <pt x="825" y="1703" on="0"/>
        <pt x="759" y="1646" on="0"/>
        <pt x="665" y="1610" on="0"/>
        <pt x="606" y="1610" on="1"/>
        <pt x="547" y="1610" on="0"/>
        <pt x="454" y="1646" on="0"/>
        <pt x="388" y="1703" on="0"/>
        <pt x="353" y="1774" on="0"/>
        <pt x="353" y="1809" on="1"/>
        <pt x="485" y="1809" on="1"/>
        <pt x="487" y="1798" on="0"/>
        <pt x="506" y="1774" on="0"/>
        <pt x="538" y="1754" on="0"/>
        <pt x="580" y="1741" on="0"/>
        <pt x="606" y="1741" on="1"/>
        <pt x="632" y="1741" on="0"/>
        <pt x="676" y="1754" on="0"/>
        <pt x="708" y="1774" on="0"/>
        <pt x="727" y="1798" on="0"/>
        <pt x="729" y="1809" on="1"/>
      </contour>
    </TTGlyph>
    <TTGlyph name="Ucircumflex" xMin="143" yMin="-24" xMax="1069" yMax="1807">
      <contour>
        <pt x="1069" y="457" on="1"/>
        <pt x="1069" y="338" on="0"/>
        <pt x="1006" y="159" on="0"/>
        <pt x="886" y="37" on="0"/>
        <pt x="714" y="-24" on="0"/>
        <pt x="606" y="-24" on="1"/>
        <pt x="498" y="-24" on="0"/>
        <pt x="326" y="37" on="0"/>
        <pt x="206" y="159" on="0"/>
        <pt x="143" y="338" on="0"/>
        <pt x="143" y="457" on="1"/>
        <pt x="143" y="1405" on="1"/>
        <pt x="323" y="1405" on="1"/>
        <pt x="323" y="446" on="1"/>
        <pt x="323" y="297" on="0"/>
        <pt x="474" y="141" on="0"/>
        <pt x="606" y="141" on="1"/>
        <pt x="738" y="141" on="0"/>
        <pt x="889" y="297" on="0"/>
        <pt x="889" y="446" on="1"/>
        <pt x="889" y="1405" on="1"/>
        <pt x="1069" y="1405" on="1"/>
      </contour>
      <contour>
        <pt x="862" y="1530" on="1"/>
        <pt x="698" y="1530" on="1"/>
        <pt x="608" y="1692" on="1"/>
        <pt x="515" y="1530" on="1"/>
        <pt x="351" y="1530" on="1"/>
        <pt x="527" y="1807" on="1"/>
        <pt x="687" y="1807" on="1"/>
      </contour>
    </TTGlyph>
    <TTGlyph name="Udieresis" xMin="143" yMin="-24" xMax="1069" yMax="1809">
      <contour>
        <pt x="1069" y="457" on="1"/>
        <pt x="1069" y="338" on="0"/>
        <pt x="1006" y="159" on="0"/>
        <pt x="886" y="37" on="0"/>
        <pt x="714" y="-24" on="0"/>
        <pt x="606" y="-24" on="1"/>
        <pt x="498" y="-24" on="0"/>
        <pt x="326" y="37" on="0"/>
        <pt x="206" y="159" on="0"/>
        <pt x="143" y="338" on="0"/>
        <pt x="143" y="457" on="1"/>
        <pt x="143" y="1405" on="1"/>
        <pt x="323" y="1405" on="1"/>
        <pt x="323" y="446" on="1"/>
        <pt x="323" y="297" on="0"/>
        <pt x="474" y="141" on="0"/>
        <pt x="606" y="141" on="1"/>
        <pt x="738" y="141" on="0"/>
        <pt x="889" y="297" on="0"/>
        <pt x="889" y="446" on="1"/>
        <pt x="889" y="1405" on="1"/>
        <pt x="1069" y="1405" on="1"/>
      </contour>
      <contour>
        <pt x="849" y="1614" on="1"/>
        <pt x="670" y="1614" on="1"/>
        <pt x="670" y="1809" on="1"/>
        <pt x="849" y="1809" on="1"/>
      </contour>
      <contour>
        <pt x="541" y="1614" on="1"/>
        <pt x="363" y="1614" on="1"/>
        <pt x="363" y="1809" on="1"/>
        <pt x="541" y="1809" on="1"/>
      </contour>
    </TTGlyph>
    <TTGlyph name="Ugrave" xMin="143" yMin="-24" xMax="1069" yMax="1809">
      <contour>
        <pt x="1069" y="457" on="1"/>
        <pt x="1069" y="338" on="0"/>
        <pt x="1006" y="159" on="0"/>
        <pt x="886" y="37" on="0"/>
        <pt x="714" y="-24" on="0"/>
        <pt x="606" y="-24" on="1"/>
        <pt x="498" y="-24" on="0"/>
        <pt x="326" y="37" on="0"/>
        <pt x="206" y="159" on="0"/>
        <pt x="143" y="338" on="0"/>
        <pt x="143" y="457" on="1"/>
        <pt x="143" y="1405" on="1"/>
        <pt x="323" y="1405" on="1"/>
        <pt x="323" y="446" on="1"/>
        <pt x="323" y="297" on="0"/>
        <pt x="474" y="141" on="0"/>
        <pt x="606" y="141" on="1"/>
        <pt x="738" y="141" on="0"/>
        <pt x="889" y="297" on="0"/>
        <pt x="889" y="446" on="1"/>
        <pt x="889" y="1405" on="1"/>
        <pt x="1069" y="1405" on="1"/>
      </contour>
      <contour>
        <pt x="587" y="1538" on="1"/>
        <pt x="365" y="1802" on="1"/>
        <pt x="367" y="1809" on="1"/>
        <pt x="552" y="1809" on="1"/>
        <pt x="728" y="1538" on="1"/>
      </contour>
    </TTGlyph>
    <TTGlyph name="Uhungarumlaut" xMin="143" yMin="-24" xMax="1069" yMax="1809">
      <contour>
        <pt x="1069" y="457" on="1"/>
        <pt x="1069" y="338" on="0"/>
        <pt x="1006" y="159" on="0"/>
        <pt x="886" y="37" on="0"/>
        <pt x="714" y="-24" on="0"/>
        <pt x="606" y="-24" on="1"/>
        <pt x="498" y="-24" on="0"/>
        <pt x="326" y="37" on="0"/>
        <pt x="206" y="159" on="0"/>
        <pt x="143" y="338" on="0"/>
        <pt x="143" y="457" on="1"/>
        <pt x="143" y="1405" on="1"/>
        <pt x="323" y="1405" on="1"/>
        <pt x="323" y="446" on="1"/>
        <pt x="323" y="297" on="0"/>
        <pt x="474" y="141" on="0"/>
        <pt x="606" y="141" on="1"/>
        <pt x="738" y="141" on="0"/>
        <pt x="889" y="297" on="0"/>
        <pt x="889" y="446" on="1"/>
        <pt x="889" y="1405" on="1"/>
        <pt x="1069" y="1405" on="1"/>
      </contour>
      <contour>
        <pt x="990" y="1802" on="1"/>
        <pt x="818" y="1538" on="1"/>
        <pt x="677" y="1538" on="1"/>
        <pt x="804" y="1809" on="1"/>
        <pt x="988" y="1809" on="1"/>
      </contour>
      <contour>
        <pt x="723" y="1802" on="1"/>
        <pt x="551" y="1538" on="1"/>
        <pt x="410" y="1538" on="1"/>
        <pt x="537" y="1809" on="1"/>
        <pt x="721" y="1809" on="1"/>
      </contour>
    </TTGlyph>
    <TTGlyph name="Umacron" xMin="143" yMin="-24" xMax="1069" yMax="1702">
      <contour>
        <pt x="1069" y="457" on="1"/>
        <pt x="1069" y="338" on="0"/>
        <pt x="1006" y="159" on="0"/>
        <pt x="886" y="37" on="0"/>
        <pt x="714" y="-24" on="0"/>
        <pt x="606" y="-24" on="1"/>
        <pt x="498" y="-24" on="0"/>
        <pt x="326" y="37" on="0"/>
        <pt x="206" y="159" on="0"/>
        <pt x="143" y="338" on="0"/>
        <pt x="143" y="457" on="1"/>
        <pt x="143" y="1405" on="1"/>
        <pt x="323" y="1405" on="1"/>
        <pt x="323" y="446" on="1"/>
        <pt x="323" y="297" on="0"/>
        <pt x="474" y="141" on="0"/>
        <pt x="606" y="141" on="1"/>
        <pt x="738" y="141" on="0"/>
        <pt x="889" y="297" on="0"/>
        <pt x="889" y="446" on="1"/>
        <pt x="889" y="1405" on="1"/>
        <pt x="1069" y="1405" on="1"/>
      </contour>
      <contour>
        <pt x="863" y="1554" on="1"/>
        <pt x="350" y="1554" on="1"/>
        <pt x="350" y="1702" on="1"/>
        <pt x="863" y="1702" on="1"/>
      </contour>
    </TTGlyph>
    <TTGlyph name="Uogonek" xMin="143" yMin="-373" xMax="1069" yMax="1405">
      <contour>
        <pt x="1069" y="457" on="1"/>
        <pt x="1069" y="284" on="0"/>
        <pt x="938" y="62" on="0"/>
        <pt x="817" y="13" on="1"/>
        <pt x="808" y="2" on="0"/>
        <pt x="787" y="-29" on="0"/>
        <pt x="769" y="-65" on="0"/>
        <pt x="758" y="-106" on="0"/>
        <pt x="758" y="-127" on="1"/>
        <pt x="758" y="-148" on="0"/>
        <pt x="768" y="-189" on="0"/>
        <pt x="790" y="-221" on="0"/>
        <pt x="825" y="-240" on="0"/>
        <pt x="851" y="-240" on="1"/>
        <pt x="916" y="-240" on="1"/>
        <pt x="916" y="-344" on="1"/>
        <pt x="884" y="-358" on="0"/>
        <pt x="822" y="-373" on="0"/>
        <pt x="791" y="-373" on="1"/>
        <pt x="758" y="-373" on="0"/>
        <pt x="689" y="-355" on="0"/>
        <pt x="634" y="-312" on="0"/>
        <pt x="598" y="-241" on="0"/>
        <pt x="598" y="-188" on="1"/>
        <pt x="598" y="-134" on="0"/>
        <pt x="630" y="-54" on="0"/>
        <pt x="655" y="-22" on="1"/>
        <pt x="643" y="-23" on="0"/>
        <pt x="619" y="-24" on="0"/>
        <pt x="606" y="-24" on="1"/>
        <pt x="498" y="-24" on="0"/>
        <pt x="326" y="37" on="0"/>
        <pt x="206" y="159" on="0"/>
        <pt x="143" y="338" on="0"/>
        <pt x="143" y="457" on="1"/>
        <pt x="143" y="1405" on="1"/>
        <pt x="323" y="1405" on="1"/>
        <pt x="323" y="446" on="1"/>
        <pt x="323" y="297" on="0"/>
        <pt x="474" y="141" on="0"/>
        <pt x="606" y="141" on="1"/>
        <pt x="738" y="141" on="0"/>
        <pt x="889" y="297" on="0"/>
        <pt x="889" y="446" on="1"/>
        <pt x="889" y="1405" on="1"/>
        <pt x="1069" y="1405" on="1"/>
      </contour>
    </TTGlyph>
    <TTGlyph name="Uring" xMin="143" yMin="-24" xMax="1069" yMax="1873">
      <contour>
        <pt x="1069" y="457" on="1"/>
        <pt x="1069" y="338" on="0"/>
        <pt x="1006" y="159" on="0"/>
        <pt x="886" y="37" on="0"/>
        <pt x="714" y="-24" on="0"/>
        <pt x="606" y="-24" on="1"/>
        <pt x="498" y="-24" on="0"/>
        <pt x="326" y="37" on="0"/>
        <pt x="206" y="159" on="0"/>
        <pt x="143" y="338" on="0"/>
        <pt x="143" y="457" on="1"/>
        <pt x="143" y="1405" on="1"/>
        <pt x="323" y="1405" on="1"/>
        <pt x="323" y="446" on="1"/>
        <pt x="323" y="297" on="0"/>
        <pt x="474" y="141" on="0"/>
        <pt x="606" y="141" on="1"/>
        <pt x="738" y="141" on="0"/>
        <pt x="889" y="297" on="0"/>
        <pt x="889" y="446" on="1"/>
        <pt x="889" y="1405" on="1"/>
        <pt x="1069" y="1405" on="1"/>
      </contour>
      <contour>
        <pt x="606" y="1873" on="1"/>
        <pt x="648" y="1873" on="0"/>
        <pt x="719" y="1842" on="0"/>
        <pt x="772" y="1788" on="0"/>
        <pt x="802" y="1717" on="0"/>
        <pt x="802" y="1677" on="1"/>
        <pt x="802" y="1636" on="0"/>
        <pt x="771" y="1564" on="0"/>
        <pt x="718" y="1511" on="0"/>
        <pt x="647" y="1480" on="0"/>
        <pt x="606" y="1480" on="1"/>
        <pt x="566" y="1480" on="0"/>
        <pt x="494" y="1510" on="0"/>
        <pt x="440" y="1563" on="0"/>
        <pt x="409" y="1635" on="0"/>
        <pt x="409" y="1677" on="1"/>
        <pt x="409" y="1718" on="0"/>
        <pt x="440" y="1789" on="0"/>
        <pt x="493" y="1842" on="0"/>
        <pt x="565" y="1873" on="0"/>
      </contour>
      <contour>
        <pt x="606" y="1781" on="1"/>
        <pt x="585" y="1781" on="0"/>
        <pt x="546" y="1765" on="0"/>
        <pt x="518" y="1736" on="0"/>
        <pt x="501" y="1698" on="0"/>
        <pt x="501" y="1677" on="1"/>
        <pt x="501" y="1656" on="0"/>
        <pt x="518" y="1617" on="0"/>
        <pt x="546" y="1589" on="0"/>
        <pt x="585" y="1572" on="0"/>
        <pt x="606" y="1572" on="1"/>
        <pt x="627" y="1572" on="0"/>
        <pt x="664" y="1589" on="0"/>
        <pt x="693" y="1617" on="0"/>
        <pt x="710" y="1656" on="0"/>
        <pt x="710" y="1677" on="1"/>
        <pt x="710" y="1698" on="0"/>
        <pt x="693" y="1736" on="0"/>
        <pt x="664" y="1765" on="0"/>
        <pt x="627" y="1781" on="0"/>
      </contour>
    </TTGlyph>
    <TTGlyph name="Utilde" xMin="143" yMin="-24" xMax="1069" yMax="1809">
      <contour>
        <pt x="1069" y="457" on="1"/>
        <pt x="1069" y="338" on="0"/>
        <pt x="1006" y="159" on="0"/>
        <pt x="886" y="37" on="0"/>
        <pt x="714" y="-24" on="0"/>
        <pt x="606" y="-24" on="1"/>
        <pt x="498" y="-24" on="0"/>
        <pt x="326" y="37" on="0"/>
        <pt x="206" y="159" on="0"/>
        <pt x="143" y="338" on="0"/>
        <pt x="143" y="457" on="1"/>
        <pt x="143" y="1405" on="1"/>
        <pt x="323" y="1405" on="1"/>
        <pt x="323" y="446" on="1"/>
        <pt x="323" y="297" on="0"/>
        <pt x="474" y="141" on="0"/>
        <pt x="606" y="141" on="1"/>
        <pt x="738" y="141" on="0"/>
        <pt x="889" y="297" on="0"/>
        <pt x="889" y="446" on="1"/>
        <pt x="889" y="1405" on="1"/>
        <pt x="1069" y="1405" on="1"/>
      </contour>
      <contour>
        <pt x="905" y="1809" on="1"/>
        <pt x="905" y="1773" on="0"/>
        <pt x="885" y="1698" on="0"/>
        <pt x="843" y="1636" on="0"/>
        <pt x="777" y="1596" on="0"/>
        <pt x="731" y="1596" on="1"/>
        <pt x="698" y="1596" on="0"/>
        <pt x="638" y="1616" on="0"/>
        <pt x="581" y="1639" on="0"/>
        <pt x="525" y="1659" on="0"/>
        <pt x="495" y="1659" on="1"/>
        <pt x="467" y="1659" on="0"/>
        <pt x="431" y="1631" on="0"/>
        <pt x="426" y="1596" on="1"/>
        <pt x="307" y="1596" on="1"/>
        <pt x="307" y="1631" on="0"/>
        <pt x="327" y="1707" on="0"/>
        <pt x="369" y="1769" on="0"/>
        <pt x="435" y="1809" on="0"/>
        <pt x="481" y="1809" on="1"/>
        <pt x="514" y="1809" on="0"/>
        <pt x="573" y="1789" on="0"/>
        <pt x="630" y="1766" on="0"/>
        <pt x="686" y="1746" on="0"/>
        <pt x="716" y="1746" on="1"/>
        <pt x="744" y="1746" on="0"/>
        <pt x="781" y="1774" on="0"/>
        <pt x="786" y="1809" on="1"/>
      </contour>
    </TTGlyph>
    <TTGlyph name="V" xMin="16" yMin="0" xMax="1104" yMax="1405">
      <contour>
        <pt x="676" y="0" on="1"/>
        <pt x="444" y="0" on="1"/>
        <pt x="16" y="1405" on="1"/>
        <pt x="215" y="1405" on="1"/>
        <pt x="563" y="198" on="1"/>
        <pt x="571" y="198" on="1"/>
        <pt x="929" y="1405" on="1"/>
        <pt x="1104" y="1405" on="1"/>
      </contour>
    </TTGlyph>
    <TTGlyph name="W" xMin="20" yMin="0" xMax="1565" yMax="1405">
      <contour>
        <pt x="1239" y="0" on="1"/>
        <pt x="1006" y="0" on="1"/>
        <pt x="834" y="953" on="1"/>
        <pt x="828" y="988" on="0"/>
        <pt x="814" y="1083" on="0"/>
        <pt x="808" y="1128" on="1"/>
        <pt x="801" y="1180" on="0"/>
        <pt x="794" y="1234" on="1"/>
        <pt x="786" y="1234" on="1"/>
        <pt x="780" y="1180" on="0"/>
        <pt x="773" y="1128" on="1"/>
        <pt x="767" y="1083" on="0"/>
        <pt x="753" y="988" on="0"/>
        <pt x="747" y="953" on="1"/>
        <pt x="580" y="0" on="1"/>
        <pt x="346" y="0" on="1"/>
        <pt x="20" y="1405" on="1"/>
        <pt x="210" y="1405" on="1"/>
        <pt x="426" y="434" on="1"/>
        <pt x="433" y="403" on="0"/>
        <pt x="447" y="317" on="0"/>
        <pt x="454" y="278" on="1"/>
        <pt x="461" y="232" on="0"/>
        <pt x="469" y="184" on="1"/>
        <pt x="477" y="184" on="1"/>
        <pt x="481" y="222" on="0"/>
        <pt x="486" y="263" on="1"/>
        <pt x="491" y="298" on="0"/>
        <pt x="503" y="387" on="0"/>
        <pt x="511" y="434" on="1"/>
        <pt x="674" y="1405" on="1"/>
        <pt x="923" y="1405" on="1"/>
        <pt x="1098" y="434" on="1"/>
        <pt x="1105" y="396" on="0"/>
        <pt x="1119" y="309" on="0"/>
        <pt x="1124" y="271" on="1"/>
        <pt x="1130" y="227" on="0"/>
        <pt x="1135" y="184" on="1"/>
        <pt x="1143" y="184" on="1"/>
        <pt x="1157" y="274" on="1"/>
        <pt x="1163" y="312" on="0"/>
        <pt x="1178" y="399" on="0"/>
        <pt x="1186" y="434" on="1"/>
        <pt x="1401" y="1405" on="1"/>
        <pt x="1565" y="1405" on="1"/>
      </contour>
    </TTGlyph>
    <TTGlyph name="Wacute" xMin="20" yMin="0" xMax="1565" yMax="1809">
      <contour>
        <pt x="1006" y="0" on="1"/>
        <pt x="834" y="953" on="1"/>
        <pt x="828" y="988" on="0"/>
        <pt x="814" y="1083" on="0"/>
        <pt x="808" y="1128" on="1"/>
        <pt x="801" y="1180" on="0"/>
        <pt x="794" y="1234" on="1"/>
        <pt x="786" y="1234" on="1"/>
        <pt x="780" y="1180" on="0"/>
        <pt x="773" y="1128" on="1"/>
        <pt x="767" y="1083" on="0"/>
        <pt x="753" y="988" on="0"/>
        <pt x="747" y="953" on="1"/>
        <pt x="580" y="0" on="1"/>
        <pt x="346" y="0" on="1"/>
        <pt x="20" y="1405" on="1"/>
        <pt x="210" y="1405" on="1"/>
        <pt x="426" y="434" on="1"/>
        <pt x="433" y="403" on="0"/>
        <pt x="447" y="317" on="0"/>
        <pt x="454" y="278" on="1"/>
        <pt x="461" y="232" on="0"/>
        <pt x="469" y="184" on="1"/>
        <pt x="477" y="184" on="1"/>
        <pt x="481" y="222" on="0"/>
        <pt x="486" y="263" on="1"/>
        <pt x="491" y="298" on="0"/>
        <pt x="503" y="387" on="0"/>
        <pt x="511" y="434" on="1"/>
        <pt x="674" y="1405" on="1"/>
        <pt x="923" y="1405" on="1"/>
        <pt x="1098" y="434" on="1"/>
        <pt x="1105" y="396" on="0"/>
        <pt x="1119" y="309" on="0"/>
        <pt x="1124" y="271" on="1"/>
        <pt x="1130" y="227" on="0"/>
        <pt x="1135" y="184" on="1"/>
        <pt x="1143" y="184" on="1"/>
        <pt x="1157" y="274" on="1"/>
        <pt x="1163" y="312" on="0"/>
        <pt x="1178" y="399" on="0"/>
        <pt x="1186" y="434" on="1"/>
        <pt x="1401" y="1405" on="1"/>
        <pt x="1565" y="1405" on="1"/>
        <pt x="1239" y="0" on="1"/>
      </contour>
      <contour>
        <pt x="813" y="1538" on="1"/>
        <pt x="671" y="1538" on="1"/>
        <pt x="847" y="1809" on="1"/>
        <pt x="1031" y="1809" on="1"/>
        <pt x="1033" y="1802" on="1"/>
      </contour>
    </TTGlyph>
    <TTGlyph name="Wcircumflex" xMin="20" yMin="0" xMax="1565" yMax="1807">
      <contour>
        <pt x="1239" y="0" on="1"/>
        <pt x="1006" y="0" on="1"/>
        <pt x="834" y="953" on="1"/>
        <pt x="828" y="988" on="0"/>
        <pt x="814" y="1083" on="0"/>
        <pt x="808" y="1128" on="1"/>
        <pt x="801" y="1180" on="0"/>
        <pt x="794" y="1234" on="1"/>
        <pt x="786" y="1234" on="1"/>
        <pt x="780" y="1180" on="0"/>
        <pt x="773" y="1128" on="1"/>
        <pt x="767" y="1083" on="0"/>
        <pt x="753" y="988" on="0"/>
        <pt x="747" y="953" on="1"/>
        <pt x="580" y="0" on="1"/>
        <pt x="346" y="0" on="1"/>
        <pt x="20" y="1405" on="1"/>
        <pt x="210" y="1405" on="1"/>
        <pt x="426" y="434" on="1"/>
        <pt x="433" y="403" on="0"/>
        <pt x="447" y="317" on="0"/>
        <pt x="454" y="278" on="1"/>
        <pt x="461" y="232" on="0"/>
        <pt x="469" y="184" on="1"/>
        <pt x="477" y="184" on="1"/>
        <pt x="481" y="222" on="0"/>
        <pt x="486" y="263" on="1"/>
        <pt x="491" y="298" on="0"/>
        <pt x="503" y="387" on="0"/>
        <pt x="511" y="434" on="1"/>
        <pt x="674" y="1405" on="1"/>
        <pt x="923" y="1405" on="1"/>
        <pt x="1098" y="434" on="1"/>
        <pt x="1105" y="396" on="0"/>
        <pt x="1119" y="309" on="0"/>
        <pt x="1124" y="271" on="1"/>
        <pt x="1130" y="227" on="0"/>
        <pt x="1135" y="184" on="1"/>
        <pt x="1143" y="184" on="1"/>
        <pt x="1157" y="274" on="1"/>
        <pt x="1163" y="312" on="0"/>
        <pt x="1178" y="399" on="0"/>
        <pt x="1186" y="434" on="1"/>
        <pt x="1401" y="1405" on="1"/>
        <pt x="1565" y="1405" on="1"/>
      </contour>
      <contour>
        <pt x="1049" y="1530" on="1"/>
        <pt x="885" y="1530" on="1"/>
        <pt x="795" y="1692" on="1"/>
        <pt x="702" y="1530" on="1"/>
        <pt x="538" y="1530" on="1"/>
        <pt x="714" y="1807" on="1"/>
        <pt x="874" y="1807" on="1"/>
      </contour>
    </TTGlyph>
    <TTGlyph name="Wdieresis" xMin="20" yMin="0" xMax="1565" yMax="1809">
      <contour>
        <pt x="1239" y="0" on="1"/>
        <pt x="1006" y="0" on="1"/>
        <pt x="834" y="953" on="1"/>
        <pt x="828" y="988" on="0"/>
        <pt x="814" y="1083" on="0"/>
        <pt x="808" y="1128" on="1"/>
        <pt x="801" y="1180" on="0"/>
        <pt x="794" y="1234" on="1"/>
        <pt x="786" y="1234" on="1"/>
        <pt x="780" y="1180" on="0"/>
        <pt x="773" y="1128" on="1"/>
        <pt x="767" y="1083" on="0"/>
        <pt x="753" y="988" on="0"/>
        <pt x="747" y="953" on="1"/>
        <pt x="580" y="0" on="1"/>
        <pt x="346" y="0" on="1"/>
        <pt x="20" y="1405" on="1"/>
        <pt x="210" y="1405" on="1"/>
        <pt x="426" y="434" on="1"/>
        <pt x="433" y="403" on="0"/>
        <pt x="447" y="317" on="0"/>
        <pt x="454" y="278" on="1"/>
        <pt x="461" y="232" on="0"/>
        <pt x="469" y="184" on="1"/>
        <pt x="477" y="184" on="1"/>
        <pt x="481" y="222" on="0"/>
        <pt x="486" y="263" on="1"/>
        <pt x="491" y="298" on="0"/>
        <pt x="503" y="387" on="0"/>
        <pt x="511" y="434" on="1"/>
        <pt x="674" y="1405" on="1"/>
        <pt x="923" y="1405" on="1"/>
        <pt x="1098" y="434" on="1"/>
        <pt x="1105" y="396" on="0"/>
        <pt x="1119" y="309" on="0"/>
        <pt x="1124" y="271" on="1"/>
        <pt x="1130" y="227" on="0"/>
        <pt x="1135" y="184" on="1"/>
        <pt x="1143" y="184" on="1"/>
        <pt x="1157" y="274" on="1"/>
        <pt x="1163" y="312" on="0"/>
        <pt x="1178" y="399" on="0"/>
        <pt x="1186" y="434" on="1"/>
        <pt x="1401" y="1405" on="1"/>
        <pt x="1565" y="1405" on="1"/>
      </contour>
      <contour>
        <pt x="1036" y="1614" on="1"/>
        <pt x="857" y="1614" on="1"/>
        <pt x="857" y="1809" on="1"/>
        <pt x="1036" y="1809" on="1"/>
      </contour>
      <contour>
        <pt x="728" y="1614" on="1"/>
        <pt x="550" y="1614" on="1"/>
        <pt x="550" y="1809" on="1"/>
        <pt x="728" y="1809" on="1"/>
      </contour>
    </TTGlyph>
    <TTGlyph name="Wgrave" xMin="20" yMin="0" xMax="1565" yMax="1809">
      <contour>
        <pt x="1006" y="0" on="1"/>
        <pt x="834" y="953" on="1"/>
        <pt x="828" y="988" on="0"/>
        <pt x="814" y="1083" on="0"/>
        <pt x="808" y="1128" on="1"/>
        <pt x="801" y="1180" on="0"/>
        <pt x="794" y="1234" on="1"/>
        <pt x="786" y="1234" on="1"/>
        <pt x="780" y="1180" on="0"/>
        <pt x="773" y="1128" on="1"/>
        <pt x="767" y="1083" on="0"/>
        <pt x="753" y="988" on="0"/>
        <pt x="747" y="953" on="1"/>
        <pt x="580" y="0" on="1"/>
        <pt x="346" y="0" on="1"/>
        <pt x="20" y="1405" on="1"/>
        <pt x="210" y="1405" on="1"/>
        <pt x="426" y="434" on="1"/>
        <pt x="433" y="403" on="0"/>
        <pt x="447" y="317" on="0"/>
        <pt x="454" y="278" on="1"/>
        <pt x="461" y="232" on="0"/>
        <pt x="469" y="184" on="1"/>
        <pt x="477" y="184" on="1"/>
        <pt x="481" y="222" on="0"/>
        <pt x="486" y="263" on="1"/>
        <pt x="491" y="298" on="0"/>
        <pt x="503" y="387" on="0"/>
        <pt x="511" y="434" on="1"/>
        <pt x="674" y="1405" on="1"/>
        <pt x="923" y="1405" on="1"/>
        <pt x="1098" y="434" on="1"/>
        <pt x="1105" y="396" on="0"/>
        <pt x="1119" y="309" on="0"/>
        <pt x="1124" y="271" on="1"/>
        <pt x="1130" y="227" on="0"/>
        <pt x="1135" y="184" on="1"/>
        <pt x="1143" y="184" on="1"/>
        <pt x="1157" y="274" on="1"/>
        <pt x="1163" y="312" on="0"/>
        <pt x="1178" y="399" on="0"/>
        <pt x="1186" y="434" on="1"/>
        <pt x="1401" y="1405" on="1"/>
        <pt x="1565" y="1405" on="1"/>
        <pt x="1239" y="0" on="1"/>
      </contour>
      <contour>
        <pt x="774" y="1538" on="1"/>
        <pt x="552" y="1802" on="1"/>
        <pt x="554" y="1809" on="1"/>
        <pt x="739" y="1809" on="1"/>
        <pt x="915" y="1538" on="1"/>
      </contour>
    </TTGlyph>
    <TTGlyph name="X" xMin="8" yMin="0" xMax="1112" yMax="1405">
      <contour>
        <pt x="1067" y="1405" on="1"/>
        <pt x="1049" y="1376" on="1"/>
        <pt x="1032" y="1347" on="0"/>
        <pt x="975" y="1254" on="0"/>
        <pt x="901" y="1136" on="0"/>
        <pt x="863" y="1074" on="1"/>
        <pt x="773" y="929" on="0"/>
        <pt x="660" y="745" on="1"/>
        <pt x="1112" y="0" on="1"/>
        <pt x="899" y="0" on="1"/>
        <pt x="553" y="574" on="1"/>
        <pt x="200" y="0" on="1"/>
        <pt x="8" y="0" on="1"/>
        <pt x="457" y="729" on="1"/>
        <pt x="49" y="1405" on="1"/>
        <pt x="262" y="1405" on="1"/>
        <pt x="565" y="903" on="1"/>
        <pt x="651" y="1043" on="0"/>
        <pt x="720" y="1153" on="1"/>
        <pt x="749" y="1200" on="0"/>
        <pt x="805" y="1290" on="0"/>
        <pt x="848" y="1361" on="0"/>
        <pt x="861" y="1383" on="1"/>
        <pt x="875" y="1405" on="1"/>
      </contour>
    </TTGlyph>
    <TTGlyph name="Y" xMin="16" yMin="0" xMax="1104" yMax="1405">
      <contour>
        <pt x="651" y="582" on="1"/>
        <pt x="651" y="0" on="1"/>
        <pt x="471" y="0" on="1"/>
        <pt x="471" y="582" on="1"/>
        <pt x="16" y="1405" on="1"/>
        <pt x="215" y="1405" on="1"/>
        <pt x="571" y="754" on="1"/>
        <pt x="580" y="754" on="1"/>
        <pt x="929" y="1405" on="1"/>
        <pt x="1104" y="1405" on="1"/>
      </contour>
    </TTGlyph>
    <TTGlyph name="Yacute" xMin="16" yMin="0" xMax="1104" yMax="1809">
      <contour>
        <pt x="651" y="0" on="1"/>
        <pt x="471" y="0" on="1"/>
        <pt x="471" y="582" on="1"/>
        <pt x="16" y="1405" on="1"/>
        <pt x="215" y="1405" on="1"/>
        <pt x="571" y="754" on="1"/>
        <pt x="580" y="754" on="1"/>
        <pt x="929" y="1405" on="1"/>
        <pt x="1104" y="1405" on="1"/>
        <pt x="651" y="582" on="1"/>
      </contour>
      <contour>
        <pt x="580" y="1538" on="1"/>
        <pt x="438" y="1538" on="1"/>
        <pt x="614" y="1809" on="1"/>
        <pt x="798" y="1809" on="1"/>
        <pt x="800" y="1802" on="1"/>
      </contour>
    </TTGlyph>
    <TTGlyph name="Ycircumflex" xMin="16" yMin="0" xMax="1104" yMax="1807">
      <contour>
        <pt x="651" y="582" on="1"/>
        <pt x="651" y="0" on="1"/>
        <pt x="471" y="0" on="1"/>
        <pt x="471" y="582" on="1"/>
        <pt x="16" y="1405" on="1"/>
        <pt x="215" y="1405" on="1"/>
        <pt x="571" y="754" on="1"/>
        <pt x="580" y="754" on="1"/>
        <pt x="929" y="1405" on="1"/>
        <pt x="1104" y="1405" on="1"/>
      </contour>
      <contour>
        <pt x="816" y="1530" on="1"/>
        <pt x="652" y="1530" on="1"/>
        <pt x="562" y="1692" on="1"/>
        <pt x="469" y="1530" on="1"/>
        <pt x="305" y="1530" on="1"/>
        <pt x="481" y="1807" on="1"/>
        <pt x="641" y="1807" on="1"/>
      </contour>
    </TTGlyph>
    <TTGlyph name="Ydieresis" xMin="16" yMin="0" xMax="1104" yMax="1809">
      <contour>
        <pt x="651" y="582" on="1"/>
        <pt x="651" y="0" on="1"/>
        <pt x="471" y="0" on="1"/>
        <pt x="471" y="582" on="1"/>
        <pt x="16" y="1405" on="1"/>
        <pt x="215" y="1405" on="1"/>
        <pt x="571" y="754" on="1"/>
        <pt x="580" y="754" on="1"/>
        <pt x="929" y="1405" on="1"/>
        <pt x="1104" y="1405" on="1"/>
      </contour>
      <contour>
        <pt x="803" y="1614" on="1"/>
        <pt x="624" y="1614" on="1"/>
        <pt x="624" y="1809" on="1"/>
        <pt x="803" y="1809" on="1"/>
      </contour>
      <contour>
        <pt x="495" y="1614" on="1"/>
        <pt x="317" y="1614" on="1"/>
        <pt x="317" y="1809" on="1"/>
        <pt x="495" y="1809" on="1"/>
      </contour>
    </TTGlyph>
    <TTGlyph name="Ygrave" xMin="16" yMin="0" xMax="1104" yMax="1809">
      <contour>
        <pt x="651" y="0" on="1"/>
        <pt x="471" y="0" on="1"/>
        <pt x="471" y="582" on="1"/>
        <pt x="16" y="1405" on="1"/>
        <pt x="215" y="1405" on="1"/>
        <pt x="571" y="754" on="1"/>
        <pt x="580" y="754" on="1"/>
        <pt x="929" y="1405" on="1"/>
        <pt x="1104" y="1405" on="1"/>
        <pt x="651" y="582" on="1"/>
      </contour>
      <contour>
        <pt x="541" y="1538" on="1"/>
        <pt x="319" y="1802" on="1"/>
        <pt x="321" y="1809" on="1"/>
        <pt x="506" y="1809" on="1"/>
        <pt x="682" y="1538" on="1"/>
      </contour>
    </TTGlyph>
    <TTGlyph name="Z" xMin="41" yMin="0" xMax="981" yMax="1405">
      <contour>
        <pt x="41" y="0" on="1"/>
        <pt x="41" y="78" on="1"/>
        <pt x="709" y="1241" on="1"/>
        <pt x="84" y="1241" on="1"/>
        <pt x="84" y="1405" on="1"/>
        <pt x="967" y="1405" on="1"/>
        <pt x="967" y="1327" on="1"/>
        <pt x="297" y="164" on="1"/>
        <pt x="981" y="164" on="1"/>
        <pt x="981" y="0" on="1"/>
      </contour>
    </TTGlyph>
    <TTGlyph name="Zacute" xMin="41" yMin="0" xMax="981" yMax="1808">
      <contour>
        <pt x="532" y="1538" on="1"/>
        <pt x="391" y="1538" on="1"/>
        <pt x="567" y="1808" on="1"/>
        <pt x="752" y="1808" on="1"/>
        <pt x="754" y="1802" on="1"/>
      </contour>
      <contour>
        <pt x="41" y="0" on="1"/>
        <pt x="41" y="78" on="1"/>
        <pt x="709" y="1241" on="1"/>
        <pt x="84" y="1241" on="1"/>
        <pt x="84" y="1405" on="1"/>
        <pt x="967" y="1405" on="1"/>
        <pt x="967" y="1327" on="1"/>
        <pt x="297" y="164" on="1"/>
        <pt x="981" y="164" on="1"/>
        <pt x="981" y="0" on="1"/>
      </contour>
    </TTGlyph>
    <TTGlyph name="Zcaron" xMin="41" yMin="0" xMax="981" yMax="1808">
      <contour>
        <pt x="592" y="1532" on="1"/>
        <pt x="432" y="1532" on="1"/>
        <pt x="258" y="1808" on="1"/>
        <pt x="422" y="1808" on="1"/>
        <pt x="512" y="1647" on="1"/>
        <pt x="604" y="1808" on="1"/>
        <pt x="768" y="1808" on="1"/>
      </contour>
      <contour>
        <pt x="41" y="0" on="1"/>
        <pt x="41" y="78" on="1"/>
        <pt x="709" y="1241" on="1"/>
        <pt x="84" y="1241" on="1"/>
        <pt x="84" y="1405" on="1"/>
        <pt x="967" y="1405" on="1"/>
        <pt x="967" y="1327" on="1"/>
        <pt x="297" y="164" on="1"/>
        <pt x="981" y="164" on="1"/>
        <pt x="981" y="0" on="1"/>
      </contour>
    </TTGlyph>
    <TTGlyph name="Zdotaccent" xMin="41" yMin="0" xMax="981" yMax="1808">
      <contour>
        <pt x="602" y="1614" on="1"/>
        <pt x="424" y="1614" on="1"/>
        <pt x="424" y="1808" on="1"/>
        <pt x="602" y="1808" on="1"/>
      </contour>
      <contour>
        <pt x="41" y="0" on="1"/>
        <pt x="41" y="78" on="1"/>
        <pt x="709" y="1241" on="1"/>
        <pt x="84" y="1241" on="1"/>
        <pt x="84" y="1405" on="1"/>
        <pt x="967" y="1405" on="1"/>
        <pt x="967" y="1327" on="1"/>
        <pt x="297" y="164" on="1"/>
        <pt x="981" y="164" on="1"/>
        <pt x="981" y="0" on="1"/>
      </contour>
    </TTGlyph>
    <TTGlyph name="a" xMin="69" yMin="-24" xMax="905" yMax="1102">
      <contour>
        <pt x="457" y="1102" on="1"/>
        <pt x="620" y="1102" on="0"/>
        <pt x="782" y="943" on="0"/>
        <pt x="782" y="800" on="1"/>
        <pt x="782" y="196" on="1"/>
        <pt x="782" y="158" on="0"/>
        <pt x="818" y="125" on="0"/>
        <pt x="840" y="125" on="1"/>
        <pt x="905" y="125" on="1"/>
        <pt x="905" y="8" on="1"/>
        <pt x="891" y="0" on="0"/>
        <pt x="835" y="-16" on="0"/>
        <pt x="794" y="-16" on="1"/>
        <pt x="728" y="-16" on="0"/>
        <pt x="640" y="57" on="0"/>
        <pt x="624" y="117" on="1"/>
        <pt x="614" y="117" on="1"/>
        <pt x="572" y="50" on="0"/>
        <pt x="437" y="-24" on="0"/>
        <pt x="352" y="-24" on="1"/>
        <pt x="325" y="-24" on="0"/>
        <pt x="263" y="-15" on="0"/>
        <pt x="200" y="8" on="0"/>
        <pt x="141" y="51" on="0"/>
        <pt x="96" y="118" on="0"/>
        <pt x="69" y="214" on="0"/>
        <pt x="69" y="279" on="1"/>
        <pt x="69" y="390" on="0"/>
        <pt x="151" y="531" on="0"/>
        <pt x="297" y="610" on="0"/>
        <pt x="497" y="639" on="0"/>
        <pt x="614" y="639" on="1"/>
        <pt x="614" y="778" on="1"/>
        <pt x="614" y="817" on="0"/>
        <pt x="600" y="881" on="0"/>
        <pt x="562" y="927" on="0"/>
        <pt x="496" y="953" on="0"/>
        <pt x="444" y="953" on="1"/>
        <pt x="396" y="953" on="0"/>
        <pt x="333" y="923" on="0"/>
        <pt x="295" y="874" on="0"/>
        <pt x="279" y="813" on="0"/>
        <pt x="279" y="782" on="1"/>
        <pt x="279" y="758" on="1"/>
        <pt x="113" y="758" on="1"/>
        <pt x="111" y="767" on="0"/>
        <pt x="111" y="777" on="1"/>
        <pt x="111" y="802" on="1"/>
        <pt x="111" y="876" on="0"/>
        <pt x="162" y="989" on="0"/>
        <pt x="254" y="1064" on="0"/>
        <pt x="381" y="1102" on="0"/>
      </contour>
      <contour>
        <pt x="614" y="489" on="1"/>
        <pt x="532" y="489" on="0"/>
        <pt x="397" y="474" on="0"/>
        <pt x="300" y="430" on="0"/>
        <pt x="246" y="352" on="0"/>
        <pt x="246" y="289" on="1"/>
        <pt x="246" y="197" on="0"/>
        <pt x="320" y="125" on="0"/>
        <pt x="391" y="125" on="1"/>
        <pt x="431" y="125" on="0"/>
        <pt x="510" y="158" on="0"/>
        <pt x="574" y="224" on="0"/>
        <pt x="614" y="324" on="0"/>
        <pt x="614" y="391" on="1"/>
      </contour>
    </TTGlyph>
    <TTGlyph name="aacute" xMin="69" yMin="-24" xMax="905" yMax="1481">
      <contour>
        <pt x="457" y="1102" on="1"/>
        <pt x="620" y="1102" on="0"/>
        <pt x="782" y="943" on="0"/>
        <pt x="782" y="800" on="1"/>
        <pt x="782" y="196" on="1"/>
        <pt x="782" y="158" on="0"/>
        <pt x="818" y="125" on="0"/>
        <pt x="840" y="125" on="1"/>
        <pt x="905" y="125" on="1"/>
        <pt x="905" y="8" on="1"/>
        <pt x="891" y="0" on="0"/>
        <pt x="835" y="-16" on="0"/>
        <pt x="794" y="-16" on="1"/>
        <pt x="728" y="-16" on="0"/>
        <pt x="640" y="57" on="0"/>
        <pt x="624" y="117" on="1"/>
        <pt x="614" y="117" on="1"/>
        <pt x="572" y="50" on="0"/>
        <pt x="437" y="-24" on="0"/>
        <pt x="352" y="-24" on="1"/>
        <pt x="325" y="-24" on="0"/>
        <pt x="263" y="-15" on="0"/>
        <pt x="200" y="8" on="0"/>
        <pt x="141" y="51" on="0"/>
        <pt x="96" y="118" on="0"/>
        <pt x="69" y="214" on="0"/>
        <pt x="69" y="279" on="1"/>
        <pt x="69" y="390" on="0"/>
        <pt x="151" y="531" on="0"/>
        <pt x="297" y="610" on="0"/>
        <pt x="497" y="639" on="0"/>
        <pt x="614" y="639" on="1"/>
        <pt x="614" y="778" on="1"/>
        <pt x="614" y="817" on="0"/>
        <pt x="600" y="881" on="0"/>
        <pt x="562" y="927" on="0"/>
        <pt x="496" y="953" on="0"/>
        <pt x="444" y="953" on="1"/>
        <pt x="396" y="953" on="0"/>
        <pt x="333" y="923" on="0"/>
        <pt x="295" y="874" on="0"/>
        <pt x="279" y="813" on="0"/>
        <pt x="279" y="782" on="1"/>
        <pt x="279" y="758" on="1"/>
        <pt x="113" y="758" on="1"/>
        <pt x="111" y="767" on="0"/>
        <pt x="111" y="777" on="1"/>
        <pt x="111" y="802" on="1"/>
        <pt x="111" y="876" on="0"/>
        <pt x="162" y="989" on="0"/>
        <pt x="254" y="1064" on="0"/>
        <pt x="381" y="1102" on="0"/>
      </contour>
      <contour>
        <pt x="614" y="489" on="1"/>
        <pt x="532" y="489" on="0"/>
        <pt x="397" y="474" on="0"/>
        <pt x="300" y="430" on="0"/>
        <pt x="246" y="352" on="0"/>
        <pt x="246" y="289" on="1"/>
        <pt x="246" y="197" on="0"/>
        <pt x="320" y="125" on="0"/>
        <pt x="391" y="125" on="1"/>
        <pt x="431" y="125" on="0"/>
        <pt x="510" y="158" on="0"/>
        <pt x="574" y="224" on="0"/>
        <pt x="614" y="324" on="0"/>
        <pt x="614" y="391" on="1"/>
      </contour>
      <contour>
        <pt x="478" y="1210" on="1"/>
        <pt x="336" y="1210" on="1"/>
        <pt x="512" y="1481" on="1"/>
        <pt x="696" y="1481" on="1"/>
        <pt x="698" y="1474" on="1"/>
      </contour>
    </TTGlyph>
    <TTGlyph name="abreve" xMin="69" yMin="-24" xMax="905" yMax="1481">
      <contour>
        <pt x="457" y="1102" on="1"/>
        <pt x="620" y="1102" on="0"/>
        <pt x="782" y="943" on="0"/>
        <pt x="782" y="800" on="1"/>
        <pt x="782" y="196" on="1"/>
        <pt x="782" y="158" on="0"/>
        <pt x="818" y="125" on="0"/>
        <pt x="840" y="125" on="1"/>
        <pt x="905" y="125" on="1"/>
        <pt x="905" y="8" on="1"/>
        <pt x="891" y="0" on="0"/>
        <pt x="835" y="-16" on="0"/>
        <pt x="794" y="-16" on="1"/>
        <pt x="728" y="-16" on="0"/>
        <pt x="640" y="57" on="0"/>
        <pt x="624" y="117" on="1"/>
        <pt x="614" y="117" on="1"/>
        <pt x="572" y="50" on="0"/>
        <pt x="437" y="-24" on="0"/>
        <pt x="352" y="-24" on="1"/>
        <pt x="325" y="-24" on="0"/>
        <pt x="263" y="-15" on="0"/>
        <pt x="200" y="8" on="0"/>
        <pt x="141" y="51" on="0"/>
        <pt x="96" y="118" on="0"/>
        <pt x="69" y="214" on="0"/>
        <pt x="69" y="279" on="1"/>
        <pt x="69" y="390" on="0"/>
        <pt x="151" y="531" on="0"/>
        <pt x="297" y="610" on="0"/>
        <pt x="497" y="639" on="0"/>
        <pt x="614" y="639" on="1"/>
        <pt x="614" y="778" on="1"/>
        <pt x="614" y="817" on="0"/>
        <pt x="600" y="881" on="0"/>
        <pt x="562" y="927" on="0"/>
        <pt x="496" y="953" on="0"/>
        <pt x="444" y="953" on="1"/>
        <pt x="396" y="953" on="0"/>
        <pt x="333" y="923" on="0"/>
        <pt x="295" y="874" on="0"/>
        <pt x="279" y="813" on="0"/>
        <pt x="279" y="782" on="1"/>
        <pt x="279" y="758" on="1"/>
        <pt x="113" y="758" on="1"/>
        <pt x="111" y="767" on="0"/>
        <pt x="111" y="777" on="1"/>
        <pt x="111" y="802" on="1"/>
        <pt x="111" y="876" on="0"/>
        <pt x="162" y="989" on="0"/>
        <pt x="254" y="1064" on="0"/>
        <pt x="381" y="1102" on="0"/>
      </contour>
      <contour>
        <pt x="614" y="489" on="1"/>
        <pt x="532" y="489" on="0"/>
        <pt x="397" y="474" on="0"/>
        <pt x="300" y="430" on="0"/>
        <pt x="246" y="352" on="0"/>
        <pt x="246" y="289" on="1"/>
        <pt x="246" y="197" on="0"/>
        <pt x="320" y="125" on="0"/>
        <pt x="391" y="125" on="1"/>
        <pt x="431" y="125" on="0"/>
        <pt x="510" y="158" on="0"/>
        <pt x="574" y="224" on="0"/>
        <pt x="614" y="324" on="0"/>
        <pt x="614" y="391" on="1"/>
      </contour>
      <contour>
        <pt x="721" y="1481" on="1"/>
        <pt x="721" y="1446" on="0"/>
        <pt x="686" y="1375" on="0"/>
        <pt x="620" y="1318" on="0"/>
        <pt x="526" y="1282" on="0"/>
        <pt x="467" y="1282" on="1"/>
        <pt x="408" y="1282" on="0"/>
        <pt x="315" y="1318" on="0"/>
        <pt x="249" y="1375" on="0"/>
        <pt x="214" y="1446" on="0"/>
        <pt x="214" y="1481" on="1"/>
        <pt x="346" y="1481" on="1"/>
        <pt x="348" y="1470" on="0"/>
        <pt x="367" y="1446" on="0"/>
        <pt x="399" y="1426" on="0"/>
        <pt x="441" y="1413" on="0"/>
        <pt x="467" y="1413" on="1"/>
        <pt x="493" y="1413" on="0"/>
        <pt x="537" y="1426" on="0"/>
        <pt x="569" y="1446" on="0"/>
        <pt x="588" y="1470" on="0"/>
        <pt x="590" y="1481" on="1"/>
      </contour>
    </TTGlyph>
    <TTGlyph name="acircumflex" xMin="69" yMin="-24" xMax="905" yMax="1479">
      <contour>
        <pt x="457" y="1102" on="1"/>
        <pt x="620" y="1102" on="0"/>
        <pt x="782" y="943" on="0"/>
        <pt x="782" y="800" on="1"/>
        <pt x="782" y="196" on="1"/>
        <pt x="782" y="158" on="0"/>
        <pt x="818" y="125" on="0"/>
        <pt x="840" y="125" on="1"/>
        <pt x="905" y="125" on="1"/>
        <pt x="905" y="8" on="1"/>
        <pt x="891" y="0" on="0"/>
        <pt x="835" y="-16" on="0"/>
        <pt x="794" y="-16" on="1"/>
        <pt x="728" y="-16" on="0"/>
        <pt x="640" y="57" on="0"/>
        <pt x="624" y="117" on="1"/>
        <pt x="614" y="117" on="1"/>
        <pt x="572" y="50" on="0"/>
        <pt x="437" y="-24" on="0"/>
        <pt x="352" y="-24" on="1"/>
        <pt x="325" y="-24" on="0"/>
        <pt x="263" y="-15" on="0"/>
        <pt x="200" y="8" on="0"/>
        <pt x="141" y="51" on="0"/>
        <pt x="96" y="118" on="0"/>
        <pt x="69" y="214" on="0"/>
        <pt x="69" y="279" on="1"/>
        <pt x="69" y="390" on="0"/>
        <pt x="151" y="531" on="0"/>
        <pt x="297" y="610" on="0"/>
        <pt x="497" y="639" on="0"/>
        <pt x="614" y="639" on="1"/>
        <pt x="614" y="778" on="1"/>
        <pt x="614" y="817" on="0"/>
        <pt x="600" y="881" on="0"/>
        <pt x="562" y="927" on="0"/>
        <pt x="496" y="953" on="0"/>
        <pt x="444" y="953" on="1"/>
        <pt x="396" y="953" on="0"/>
        <pt x="333" y="923" on="0"/>
        <pt x="295" y="874" on="0"/>
        <pt x="279" y="813" on="0"/>
        <pt x="279" y="782" on="1"/>
        <pt x="279" y="758" on="1"/>
        <pt x="113" y="758" on="1"/>
        <pt x="111" y="767" on="0"/>
        <pt x="111" y="777" on="1"/>
        <pt x="111" y="802" on="1"/>
        <pt x="111" y="876" on="0"/>
        <pt x="162" y="989" on="0"/>
        <pt x="254" y="1064" on="0"/>
        <pt x="381" y="1102" on="0"/>
      </contour>
      <contour>
        <pt x="614" y="489" on="1"/>
        <pt x="532" y="489" on="0"/>
        <pt x="397" y="474" on="0"/>
        <pt x="300" y="430" on="0"/>
        <pt x="246" y="352" on="0"/>
        <pt x="246" y="289" on="1"/>
        <pt x="246" y="197" on="0"/>
        <pt x="320" y="125" on="0"/>
        <pt x="391" y="125" on="1"/>
        <pt x="431" y="125" on="0"/>
        <pt x="510" y="158" on="0"/>
        <pt x="574" y="224" on="0"/>
        <pt x="614" y="324" on="0"/>
        <pt x="614" y="391" on="1"/>
      </contour>
      <contour>
        <pt x="723" y="1202" on="1"/>
        <pt x="559" y="1202" on="1"/>
        <pt x="469" y="1364" on="1"/>
        <pt x="376" y="1202" on="1"/>
        <pt x="212" y="1202" on="1"/>
        <pt x="388" y="1479" on="1"/>
        <pt x="548" y="1479" on="1"/>
      </contour>
    </TTGlyph>
    <TTGlyph name="acute" xMin="139" yMin="1210" xMax="501" yMax="1481">
      <contour>
        <pt x="501" y="1474" on="1"/>
        <pt x="281" y="1210" on="1"/>
        <pt x="139" y="1210" on="1"/>
        <pt x="315" y="1481" on="1"/>
        <pt x="499" y="1481" on="1"/>
      </contour>
    </TTGlyph>
    <TTGlyph name="adieresis" xMin="69" yMin="-24" xMax="905" yMax="1481">
      <contour>
        <pt x="457" y="1102" on="1"/>
        <pt x="620" y="1102" on="0"/>
        <pt x="782" y="943" on="0"/>
        <pt x="782" y="800" on="1"/>
        <pt x="782" y="196" on="1"/>
        <pt x="782" y="158" on="0"/>
        <pt x="818" y="125" on="0"/>
        <pt x="840" y="125" on="1"/>
        <pt x="905" y="125" on="1"/>
        <pt x="905" y="8" on="1"/>
        <pt x="891" y="0" on="0"/>
        <pt x="835" y="-16" on="0"/>
        <pt x="794" y="-16" on="1"/>
        <pt x="728" y="-16" on="0"/>
        <pt x="640" y="57" on="0"/>
        <pt x="624" y="117" on="1"/>
        <pt x="614" y="117" on="1"/>
        <pt x="572" y="50" on="0"/>
        <pt x="437" y="-24" on="0"/>
        <pt x="352" y="-24" on="1"/>
        <pt x="325" y="-24" on="0"/>
        <pt x="263" y="-15" on="0"/>
        <pt x="200" y="8" on="0"/>
        <pt x="141" y="51" on="0"/>
        <pt x="96" y="118" on="0"/>
        <pt x="69" y="214" on="0"/>
        <pt x="69" y="279" on="1"/>
        <pt x="69" y="390" on="0"/>
        <pt x="151" y="531" on="0"/>
        <pt x="297" y="610" on="0"/>
        <pt x="497" y="639" on="0"/>
        <pt x="614" y="639" on="1"/>
        <pt x="614" y="778" on="1"/>
        <pt x="614" y="817" on="0"/>
        <pt x="600" y="881" on="0"/>
        <pt x="562" y="927" on="0"/>
        <pt x="496" y="953" on="0"/>
        <pt x="444" y="953" on="1"/>
        <pt x="396" y="953" on="0"/>
        <pt x="333" y="923" on="0"/>
        <pt x="295" y="874" on="0"/>
        <pt x="279" y="813" on="0"/>
        <pt x="279" y="782" on="1"/>
        <pt x="279" y="758" on="1"/>
        <pt x="113" y="758" on="1"/>
        <pt x="111" y="767" on="0"/>
        <pt x="111" y="777" on="1"/>
        <pt x="111" y="802" on="1"/>
        <pt x="111" y="876" on="0"/>
        <pt x="162" y="989" on="0"/>
        <pt x="254" y="1064" on="0"/>
        <pt x="381" y="1102" on="0"/>
      </contour>
      <contour>
        <pt x="614" y="489" on="1"/>
        <pt x="532" y="489" on="0"/>
        <pt x="397" y="474" on="0"/>
        <pt x="300" y="430" on="0"/>
        <pt x="246" y="352" on="0"/>
        <pt x="246" y="289" on="1"/>
        <pt x="246" y="197" on="0"/>
        <pt x="320" y="125" on="0"/>
        <pt x="391" y="125" on="1"/>
        <pt x="431" y="125" on="0"/>
        <pt x="510" y="158" on="0"/>
        <pt x="574" y="224" on="0"/>
        <pt x="614" y="324" on="0"/>
        <pt x="614" y="391" on="1"/>
      </contour>
      <contour>
        <pt x="710" y="1286" on="1"/>
        <pt x="531" y="1286" on="1"/>
        <pt x="531" y="1481" on="1"/>
        <pt x="710" y="1481" on="1"/>
      </contour>
      <contour>
        <pt x="402" y="1286" on="1"/>
        <pt x="224" y="1286" on="1"/>
        <pt x="224" y="1481" on="1"/>
        <pt x="402" y="1481" on="1"/>
      </contour>
    </TTGlyph>
    <TTGlyph name="ae" xMin="82" yMin="-24" xMax="1386" yMax="1102">
      <contour>
        <pt x="1032" y="1102" on="1"/>
        <pt x="1120" y="1102" on="0"/>
        <pt x="1253" y="1045" on="0"/>
        <pt x="1342" y="923" on="0"/>
        <pt x="1386" y="731" on="0"/>
        <pt x="1386" y="596" on="1"/>
        <pt x="1386" y="489" on="1"/>
        <pt x="802" y="489" on="1"/>
        <pt x="804" y="300" on="0"/>
        <pt x="918" y="125" on="0"/>
        <pt x="1038" y="125" on="1"/>
        <pt x="1078" y="125" on="0"/>
        <pt x="1145" y="158" on="0"/>
        <pt x="1193" y="221" on="0"/>
        <pt x="1220" y="311" on="0"/>
        <pt x="1220" y="367" on="1"/>
        <pt x="1386" y="367" on="1"/>
        <pt x="1386" y="276" on="0"/>
        <pt x="1335" y="131" on="0"/>
        <pt x="1242" y="30" on="0"/>
        <pt x="1112" y="-24" on="0"/>
        <pt x="1034" y="-24" on="1"/>
        <pt x="922" y="-24" on="0"/>
        <pt x="758" y="52" on="0"/>
        <pt x="707" y="139" on="1"/>
        <pt x="649" y="64" on="0"/>
        <pt x="490" y="-24" on="0"/>
        <pt x="396" y="-24" on="1"/>
        <pt x="346" y="-24" on="0"/>
        <pt x="235" y="-3" on="0"/>
        <pt x="142" y="62" on="0"/>
        <pt x="82" y="181" on="0"/>
        <pt x="82" y="279" on="1"/>
        <pt x="82" y="390" on="0"/>
        <pt x="164" y="531" on="0"/>
        <pt x="309" y="610" on="0"/>
        <pt x="509" y="639" on="0"/>
        <pt x="626" y="639" on="1"/>
        <pt x="626" y="778" on="1"/>
        <pt x="626" y="817" on="0"/>
        <pt x="612" y="881" on="0"/>
        <pt x="574" y="927" on="0"/>
        <pt x="508" y="953" on="0"/>
        <pt x="457" y="953" on="1"/>
        <pt x="409" y="953" on="0"/>
        <pt x="345" y="923" on="0"/>
        <pt x="307" y="874" on="0"/>
        <pt x="291" y="813" on="0"/>
        <pt x="291" y="782" on="1"/>
        <pt x="291" y="758" on="1"/>
        <pt x="125" y="758" on="1"/>
        <pt x="123" y="767" on="0"/>
        <pt x="123" y="777" on="1"/>
        <pt x="123" y="802" on="1"/>
        <pt x="123" y="876" on="0"/>
        <pt x="174" y="989" on="0"/>
        <pt x="266" y="1064" on="0"/>
        <pt x="393" y="1102" on="0"/>
        <pt x="469" y="1102" on="1"/>
        <pt x="568" y="1102" on="0"/>
        <pt x="707" y="1039" on="0"/>
        <pt x="745" y="979" on="1"/>
        <pt x="797" y="1042" on="0"/>
        <pt x="938" y="1102" on="0"/>
      </contour>
      <contour>
        <pt x="626" y="489" on="1"/>
        <pt x="544" y="489" on="0"/>
        <pt x="409" y="474" on="0"/>
        <pt x="312" y="430" on="0"/>
        <pt x="258" y="352" on="0"/>
        <pt x="258" y="289" on="1"/>
        <pt x="258" y="197" on="0"/>
        <pt x="333" y="125" on="0"/>
        <pt x="404" y="125" on="1"/>
        <pt x="443" y="125" on="0"/>
        <pt x="523" y="156" on="0"/>
        <pt x="586" y="218" on="0"/>
        <pt x="626" y="312" on="0"/>
        <pt x="626" y="375" on="1"/>
      </contour>
      <contour>
        <pt x="1032" y="953" on="1"/>
        <pt x="976" y="953" on="0"/>
        <pt x="895" y="913" on="0"/>
        <pt x="841" y="834" on="0"/>
        <pt x="811" y="717" on="0"/>
        <pt x="805" y="639" on="1"/>
        <pt x="1210" y="639" on="1"/>
        <pt x="1210" y="794" on="0"/>
        <pt x="1120" y="953" on="0"/>
      </contour>
    </TTGlyph>
</ttFont>
